  0
SECTION
  2
BLOCKS
  0
ENDSEC
  0
SECTION
  2
ENTITIES
  0
LINE
  8
0
 10
2.18155
 20
-124.981
 11
4.36243
 21
-124.924
  0
LINE
  8
0
 10
4.36243
 20
-124.924
 11
6.54199
 21
-124.829
  0
LINE
  8
0
 10
6.54199
 20
-124.829
 11
8.71956
 21
-124.695
  0
LINE
  8
0
 10
8.71956
 20
-124.695
 11
10.8945
 21
-124.524
  0
LINE
  8
0
 10
10.8945
 20
-124.524
 11
13.0661
 21
-124.315
  0
LINE
  8
0
 10
13.0661
 20
-124.315
 11
15.2337
 21
-124.068
  0
LINE
  8
0
 10
15.2337
 20
-124.068
 11
17.3966
 21
-123.784
  0
LINE
  8
0
 10
17.3966
 20
-123.784
 11
19.5543
 21
-123.461
  0
LINE
  8
0
 10
19.5543
 20
-123.461
 11
21.706
 21
-123.101
  0
LINE
  8
0
 10
21.706
 20
-123.101
 11
23.8511
 21
-122.703
  0
LINE
  8
0
 10
23.8511
 20
-122.703
 11
25.989
 21
-122.268
  0
LINE
  8
0
 10
25.989
 20
-122.268
 11
28.1189
 21
-121.796
  0
LINE
  8
0
 10
28.1189
 20
-121.796
 11
30.2402
 21
-121.287
  0
LINE
  8
0
 10
30.2402
 20
-121.287
 11
32.3524
 21
-120.741
  0
LINE
  8
0
 10
32.3524
 20
-120.741
 11
34.4547
 21
-120.158
  0
LINE
  8
0
 10
34.4547
 20
-120.158
 11
36.5465
 21
-119.538
  0
LINE
  8
0
 10
36.5465
 20
-119.538
 11
38.6271
 21
-118.882
  0
LINE
  8
0
 10
38.6271
 20
-118.882
 11
40.696
 21
-118.19
  0
LINE
  8
0
 10
40.696
 20
-118.19
 11
42.7525
 21
-117.462
  0
LINE
  8
0
 10
42.7525
 20
-117.462
 11
44.796
 21
-116.698
  0
LINE
  8
0
 10
44.796
 20
-116.698
 11
46.8258
 21
-115.898
  0
LINE
  8
0
 10
46.8258
 20
-115.898
 11
48.8414
 21
-115.063
  0
LINE
  8
0
 10
48.8414
 20
-115.063
 11
50.8421
 21
-114.193
  0
LINE
  8
0
 10
50.8421
 20
-114.193
 11
52.8273
 21
-113.288
  0
LINE
  8
0
 10
52.8273
 20
-113.288
 11
54.7964
 21
-112.349
  0
LINE
  8
0
 10
54.7964
 20
-112.349
 11
56.7488
 21
-111.376
  0
LINE
  8
0
 10
56.7488
 20
-111.376
 11
58.6839
 21
-110.368
  0
LINE
  8
0
 10
58.6839
 20
-110.368
 11
60.6012
 21
-109.327
  0
LINE
  8
0
 10
60.6012
 20
-109.327
 11
62.5
 21
-108.253
  0
LINE
  8
0
 10
62.5
 20
-108.253
 11
64.3797
 21
-107.146
  0
LINE
  8
0
 10
64.3797
 20
-107.146
 11
66.2399
 21
-106.006
  0
LINE
  8
0
 10
66.2399
 20
-106.006
 11
68.0799
 21
-104.834
  0
LINE
  8
0
 10
68.0799
 20
-104.834
 11
69.8991
 21
-103.63
  0
LINE
  8
0
 10
69.8991
 20
-103.63
 11
71.6971
 21
-102.394
  0
LINE
  8
0
 10
71.6971
 20
-102.394
 11
73.4731
 21
-101.127
  0
LINE
  8
0
 10
73.4731
 20
-101.127
 11
75.2269
 21
-99.8294
  0
LINE
  8
0
 10
75.2269
 20
-99.8294
 11
76.9577
 21
-98.5013
  0
LINE
  8
0
 10
76.9577
 20
-98.5013
 11
78.665
 21
-97.1432
  0
LINE
  8
0
 10
78.665
 20
-97.1432
 11
80.3484
 21
-95.7556
  0
LINE
  8
0
 10
80.3484
 20
-95.7556
 11
82.0074
 21
-94.3387
  0
LINE
  8
0
 10
82.0074
 20
-94.3387
 11
83.6413
 21
-92.8931
  0
LINE
  8
0
 10
83.6413
 20
-92.8931
 11
85.2498
 21
-91.4192
  0
LINE
  8
0
 10
85.2498
 20
-91.4192
 11
86.8323
 21
-89.9175
  0
LINE
  8
0
 10
86.8323
 20
-89.9175
 11
88.3883
 21
-88.3883
  0
LINE
  8
0
 10
88.3883
 20
-88.3883
 11
89.9175
 21
-86.8323
  0
LINE
  8
0
 10
89.9175
 20
-86.8323
 11
91.4192
 21
-85.2498
  0
LINE
  8
0
 10
91.4192
 20
-85.2498
 11
92.8931
 21
-83.6413
  0
LINE
  8
0
 10
92.8931
 20
-83.6413
 11
94.3387
 21
-82.0074
  0
LINE
  8
0
 10
94.3387
 20
-82.0074
 11
95.7556
 21
-80.3484
  0
LINE
  8
0
 10
95.7556
 20
-80.3484
 11
97.1432
 21
-78.665
  0
LINE
  8
0
 10
97.1432
 20
-78.665
 11
98.5013
 21
-76.9577
  0
LINE
  8
0
 10
98.5013
 20
-76.9577
 11
99.8294
 21
-75.2269
  0
LINE
  8
0
 10
99.8294
 20
-75.2269
 11
101.127
 21
-73.4731
  0
LINE
  8
0
 10
101.127
 20
-73.4731
 11
102.394
 21
-71.6971
  0
LINE
  8
0
 10
102.394
 20
-71.6971
 11
103.63
 21
-69.8991
  0
LINE
  8
0
 10
103.63
 20
-69.8991
 11
104.834
 21
-68.0799
  0
LINE
  8
0
 10
104.834
 20
-68.0799
 11
106.006
 21
-66.2399
  0
LINE
  8
0
 10
106.006
 20
-66.2399
 11
107.146
 21
-64.3797
  0
LINE
  8
0
 10
107.146
 20
-64.3797
 11
108.253
 21
-62.5
  0
LINE
  8
0
 10
108.253
 20
-62.5
 11
109.327
 21
-60.6012
  0
LINE
  8
0
 10
109.327
 20
-60.6012
 11
110.368
 21
-58.6839
  0
LINE
  8
0
 10
110.368
 20
-58.6839
 11
111.376
 21
-56.7488
  0
LINE
  8
0
 10
111.376
 20
-56.7488
 11
112.349
 21
-54.7964
  0
LINE
  8
0
 10
112.349
 20
-54.7964
 11
113.288
 21
-52.8273
  0
LINE
  8
0
 10
113.288
 20
-52.8273
 11
114.193
 21
-50.8421
  0
LINE
  8
0
 10
114.193
 20
-50.8421
 11
115.063
 21
-48.8414
  0
LINE
  8
0
 10
115.063
 20
-48.8414
 11
115.898
 21
-46.8258
  0
LINE
  8
0
 10
115.898
 20
-46.8258
 11
116.698
 21
-44.796
  0
LINE
  8
0
 10
116.698
 20
-44.796
 11
117.462
 21
-42.7525
  0
LINE
  8
0
 10
117.462
 20
-42.7525
 11
118.19
 21
-40.696
  0
LINE
  8
0
 10
118.19
 20
-40.696
 11
118.882
 21
-38.6271
  0
LINE
  8
0
 10
118.882
 20
-38.6271
 11
119.538
 21
-36.5465
  0
LINE
  8
0
 10
119.538
 20
-36.5465
 11
120.158
 21
-34.4547
  0
LINE
  8
0
 10
120.158
 20
-34.4547
 11
120.741
 21
-32.3524
  0
LINE
  8
0
 10
120.741
 20
-32.3524
 11
121.287
 21
-30.2402
  0
LINE
  8
0
 10
121.287
 20
-30.2402
 11
121.796
 21
-28.1189
  0
LINE
  8
0
 10
121.796
 20
-28.1189
 11
122.268
 21
-25.989
  0
LINE
  8
0
 10
122.268
 20
-25.989
 11
122.703
 21
-23.8511
  0
LINE
  8
0
 10
122.703
 20
-23.8511
 11
123.101
 21
-21.706
  0
LINE
  8
0
 10
123.101
 20
-21.706
 11
123.461
 21
-19.5543
  0
LINE
  8
0
 10
123.461
 20
-19.5543
 11
123.784
 21
-17.3966
  0
LINE
  8
0
 10
123.784
 20
-17.3966
 11
124.068
 21
-15.2337
  0
LINE
  8
0
 10
124.068
 20
-15.2337
 11
124.315
 21
-13.0661
  0
LINE
  8
0
 10
124.315
 20
-13.0661
 11
124.524
 21
-10.8945
  0
LINE
  8
0
 10
124.524
 20
-10.8945
 11
124.695
 21
-8.71956
  0
LINE
  8
0
 10
124.695
 20
-8.71956
 11
124.829
 21
-6.54199
  0
LINE
  8
0
 10
124.829
 20
-6.54199
 11
124.924
 21
-4.36243
  0
LINE
  8
0
 10
124.924
 20
-4.36243
 11
124.981
 21
-2.18155
  0
LINE
  8
0
 10
124.981
 20
-2.18155
 11
125
 21
0
  0
LINE
  8
0
 10
125
 20
0
 11
124.981
 21
2.18155
  0
LINE
  8
0
 10
124.981
 20
2.18155
 11
124.924
 21
4.36243
  0
LINE
  8
0
 10
124.924
 20
4.36243
 11
124.829
 21
6.54199
  0
LINE
  8
0
 10
124.829
 20
6.54199
 11
124.695
 21
8.71956
  0
LINE
  8
0
 10
124.695
 20
8.71956
 11
124.524
 21
10.8945
  0
LINE
  8
0
 10
124.524
 20
10.8945
 11
124.315
 21
13.0661
  0
LINE
  8
0
 10
124.315
 20
13.0661
 11
124.068
 21
15.2337
  0
LINE
  8
0
 10
124.068
 20
15.2337
 11
123.784
 21
17.3966
  0
LINE
  8
0
 10
123.784
 20
17.3966
 11
123.461
 21
19.5543
  0
LINE
  8
0
 10
123.461
 20
19.5543
 11
123.101
 21
21.706
  0
LINE
  8
0
 10
123.101
 20
21.706
 11
122.703
 21
23.8511
  0
LINE
  8
0
 10
122.703
 20
23.8511
 11
122.268
 21
25.989
  0
LINE
  8
0
 10
122.268
 20
25.989
 11
121.796
 21
28.1189
  0
LINE
  8
0
 10
121.796
 20
28.1189
 11
121.287
 21
30.2402
  0
LINE
  8
0
 10
121.287
 20
30.2402
 11
120.741
 21
32.3524
  0
LINE
  8
0
 10
120.741
 20
32.3524
 11
120.158
 21
34.4547
  0
LINE
  8
0
 10
120.158
 20
34.4547
 11
119.538
 21
36.5465
  0
LINE
  8
0
 10
119.538
 20
36.5465
 11
118.882
 21
38.6271
  0
LINE
  8
0
 10
118.882
 20
38.6271
 11
118.19
 21
40.696
  0
LINE
  8
0
 10
118.19
 20
40.696
 11
117.462
 21
42.7525
  0
LINE
  8
0
 10
117.462
 20
42.7525
 11
116.698
 21
44.796
  0
LINE
  8
0
 10
116.698
 20
44.796
 11
115.898
 21
46.8258
  0
LINE
  8
0
 10
115.898
 20
46.8258
 11
115.063
 21
48.8414
  0
LINE
  8
0
 10
115.063
 20
48.8414
 11
114.193
 21
50.8421
  0
LINE
  8
0
 10
114.193
 20
50.8421
 11
113.288
 21
52.8273
  0
LINE
  8
0
 10
113.288
 20
52.8273
 11
112.349
 21
54.7964
  0
LINE
  8
0
 10
112.349
 20
54.7964
 11
111.376
 21
56.7488
  0
LINE
  8
0
 10
111.376
 20
56.7488
 11
110.368
 21
58.6839
  0
LINE
  8
0
 10
110.368
 20
58.6839
 11
109.327
 21
60.6012
  0
LINE
  8
0
 10
109.327
 20
60.6012
 11
108.253
 21
62.5
  0
LINE
  8
0
 10
108.253
 20
62.5
 11
107.146
 21
64.3797
  0
LINE
  8
0
 10
107.146
 20
64.3797
 11
106.006
 21
66.2399
  0
LINE
  8
0
 10
106.006
 20
66.2399
 11
104.834
 21
68.0799
  0
LINE
  8
0
 10
104.834
 20
68.0799
 11
103.63
 21
69.8991
  0
LINE
  8
0
 10
103.63
 20
69.8991
 11
102.394
 21
71.6971
  0
LINE
  8
0
 10
102.394
 20
71.6971
 11
101.127
 21
73.4731
  0
LINE
  8
0
 10
101.127
 20
73.4731
 11
99.8294
 21
75.2269
  0
LINE
  8
0
 10
99.8294
 20
75.2269
 11
98.5013
 21
76.9577
  0
LINE
  8
0
 10
98.5013
 20
76.9577
 11
97.1432
 21
78.665
  0
LINE
  8
0
 10
97.1432
 20
78.665
 11
95.7556
 21
80.3484
  0
LINE
  8
0
 10
95.7556
 20
80.3484
 11
94.3387
 21
82.0074
  0
LINE
  8
0
 10
94.3387
 20
82.0074
 11
92.8931
 21
83.6413
  0
LINE
  8
0
 10
92.8931
 20
83.6413
 11
91.4192
 21
85.2498
  0
LINE
  8
0
 10
91.4192
 20
85.2498
 11
89.9175
 21
86.8323
  0
LINE
  8
0
 10
89.9175
 20
86.8323
 11
88.3883
 21
88.3883
  0
LINE
  8
0
 10
88.3883
 20
88.3883
 11
86.8323
 21
89.9175
  0
LINE
  8
0
 10
86.8323
 20
89.9175
 11
85.2498
 21
91.4192
  0
LINE
  8
0
 10
85.2498
 20
91.4192
 11
83.6413
 21
92.8931
  0
LINE
  8
0
 10
83.6413
 20
92.8931
 11
82.0074
 21
94.3387
  0
LINE
  8
0
 10
82.0074
 20
94.3387
 11
80.3484
 21
95.7556
  0
LINE
  8
0
 10
80.3484
 20
95.7556
 11
80.0977
 21
95.9622
  0
LINE
  8
0
 10
80.0977
 20
95.9622
 11
80.1209
 21
96.1544
  0
LINE
  8
0
 10
80.1209
 20
96.1544
 11
80.1637
 21
96.5894
  0
LINE
  8
0
 10
80.1637
 20
96.5894
 11
80.197
 21
97.0249
  0
LINE
  8
0
 10
80.197
 20
97.0249
 11
80.2207
 21
97.4608
  0
LINE
  8
0
 10
80.2207
 20
97.4608
 11
80.235
 21
97.897
  0
LINE
  8
0
 10
80.235
 20
97.897
 11
80.2398
 21
98.3333
  0
LINE
  8
0
 10
80.2398
 20
98.3333
 11
80.235
 21
98.7696
  0
LINE
  8
0
 10
80.235
 20
98.7696
 11
80.2207
 21
99.2058
  0
LINE
  8
0
 10
80.2207
 20
99.2058
 11
80.197
 21
99.6417
  0
LINE
  8
0
 10
80.197
 20
99.6417
 11
80.1637
 21
100.077
  0
LINE
  8
0
 10
80.1637
 20
100.077
 11
80.1209
 21
100.512
  0
LINE
  8
0
 10
80.1209
 20
100.512
 11
80.0686
 21
100.947
  0
LINE
  8
0
 10
80.0686
 20
100.947
 11
80.0069
 21
101.38
  0
LINE
  8
0
 10
80.0069
 20
101.38
 11
79.9357
 21
101.813
  0
LINE
  8
0
 10
79.9357
 20
101.813
 11
79.855
 21
102.244
  0
LINE
  8
0
 10
79.855
 20
102.244
 11
79.765
 21
102.675
  0
LINE
  8
0
 10
79.765
 20
102.675
 11
79.6656
 21
103.104
  0
LINE
  8
0
 10
79.6656
 20
103.104
 11
79.5569
 21
103.531
  0
LINE
  8
0
 10
79.5569
 20
103.531
 11
79.4389
 21
103.957
  0
LINE
  8
0
 10
79.4389
 20
103.957
 11
79.3115
 21
104.381
  0
LINE
  8
0
 10
79.3115
 20
104.381
 11
79.175
 21
104.804
  0
LINE
  8
0
 10
79.175
 20
104.804
 11
79.0292
 21
105.224
  0
LINE
  8
0
 10
79.0292
 20
105.224
 11
78.8743
 21
105.643
  0
LINE
  8
0
 10
78.8743
 20
105.643
 11
78.7103
 21
106.059
  0
LINE
  8
0
 10
78.7103
 20
106.059
 11
78.5372
 21
106.473
  0
LINE
  8
0
 10
78.5372
 20
106.473
 11
78.3552
 21
106.884
  0
LINE
  8
0
 10
78.3552
 20
106.884
 11
78.1642
 21
107.293
  0
LINE
  8
0
 10
78.1642
 20
107.293
 11
77.9643
 21
107.698
  0
LINE
  8
0
 10
77.9643
 20
107.698
 11
77.7556
 21
108.102
  0
LINE
  8
0
 10
77.7556
 20
108.102
 11
77.5381
 21
108.502
  0
LINE
  8
0
 10
77.5381
 20
108.502
 11
77.3119
 21
108.899
  0
LINE
  8
0
 10
77.3119
 20
108.899
 11
77.0771
 21
109.293
  0
LINE
  8
0
 10
77.0771
 20
109.293
 11
76.8337
 21
109.683
  0
LINE
  8
0
 10
76.8337
 20
109.683
 11
76.5819
 21
110.07
  0
LINE
  8
0
 10
76.5819
 20
110.07
 11
76.3217
 21
110.454
  0
LINE
  8
0
 10
76.3217
 20
110.454
 11
76.0531
 21
110.833
  0
LINE
  8
0
 10
76.0531
 20
110.833
 11
75.7763
 21
111.209
  0
LINE
  8
0
 10
75.7763
 20
111.209
 11
75.4913
 21
111.581
  0
LINE
  8
0
 10
75.4913
 20
111.581
 11
75.1982
 21
111.949
  0
LINE
  8
0
 10
75.1982
 20
111.949
 11
74.8972
 21
112.313
  0
LINE
  8
0
 10
74.8972
 20
112.313
 11
74.5883
 21
112.673
  0
LINE
  8
0
 10
74.5883
 20
112.673
 11
74.2716
 21
113.028
  0
LINE
  8
0
 10
74.2716
 20
113.028
 11
73.9471
 21
113.379
  0
LINE
  8
0
 10
73.9471
 20
113.379
 11
73.6151
 21
113.725
  0
LINE
  8
0
 10
73.6151
 20
113.725
 11
73.2756
 21
114.066
  0
LINE
  8
0
 10
73.2756
 20
114.066
 11
72.9287
 21
114.403
  0
LINE
  8
0
 10
72.9287
 20
114.403
 11
72.5745
 21
114.735
  0
LINE
  8
0
 10
72.5745
 20
114.735
 11
72.2131
 21
115.062
  0
LINE
  8
0
 10
72.2131
 20
115.062
 11
71.8446
 21
115.383
  0
LINE
  8
0
 10
71.8446
 20
115.383
 11
71.4692
 21
115.7
  0
LINE
  8
0
 10
71.4692
 20
115.7
 11
71.0869
 21
116.011
  0
LINE
  8
0
 10
71.0869
 20
116.011
 11
70.6979
 21
116.317
  0
LINE
  8
0
 10
70.6979
 20
116.317
 11
70.3022
 21
116.617
  0
LINE
  8
0
 10
70.3022
 20
116.617
 11
69.9001
 21
116.912
  0
LINE
  8
0
 10
69.9001
 20
116.912
 11
69.4916
 21
117.201
  0
LINE
  8
0
 10
69.4916
 20
117.201
 11
69.0769
 21
117.484
  0
LINE
  8
0
 10
69.0769
 20
117.484
 11
68.6561
 21
117.762
  0
LINE
  8
0
 10
68.6561
 20
117.762
 11
68.2292
 21
118.034
  0
LINE
  8
0
 10
68.2292
 20
118.034
 11
67.7965
 21
118.299
  0
LINE
  8
0
 10
67.7965
 20
118.299
 11
67.3581
 21
118.559
  0
LINE
  8
0
 10
67.3581
 20
118.559
 11
66.914
 21
118.812
  0
LINE
  8
0
 10
66.914
 20
118.812
 11
66.4646
 21
119.059
  0
LINE
  8
0
 10
66.4646
 20
119.059
 11
66.0098
 21
119.3
  0
LINE
  8
0
 10
66.0098
 20
119.3
 11
65.5498
 21
119.535
  0
LINE
  8
0
 10
65.5498
 20
119.535
 11
65.0847
 21
119.762
  0
LINE
  8
0
 10
65.0847
 20
119.762
 11
64.6148
 21
119.984
  0
LINE
  8
0
 10
64.6148
 20
119.984
 11
64.1401
 21
120.199
  0
LINE
  8
0
 10
64.1401
 20
120.199
 11
63.6608
 21
120.407
  0
LINE
  8
0
 10
63.6608
 20
120.407
 11
63.177
 21
120.608
  0
LINE
  8
0
 10
63.177
 20
120.608
 11
62.6889
 21
120.803
  0
LINE
  8
0
 10
62.6889
 20
120.803
 11
62.1966
 21
120.991
  0
LINE
  8
0
 10
62.1966
 20
120.991
 11
61.7003
 21
121.172
  0
LINE
  8
0
 10
61.7003
 20
121.172
 11
61.2001
 21
121.346
  0
LINE
  8
0
 10
61.2001
 20
121.346
 11
60.6962
 21
121.513
  0
LINE
  8
0
 10
60.6962
 20
121.513
 11
60.1888
 21
121.673
  0
LINE
  8
0
 10
60.1888
 20
121.673
 11
59.6779
 21
121.826
  0
LINE
  8
0
 10
59.6779
 20
121.826
 11
59.1638
 21
121.971
  0
LINE
  8
0
 10
59.1638
 20
121.971
 11
58.6466
 21
122.11
  0
LINE
  8
0
 10
58.6466
 20
122.11
 11
58.1264
 21
122.241
  0
LINE
  8
0
 10
58.1264
 20
122.241
 11
57.6035
 21
122.365
  0
LINE
  8
0
 10
57.6035
 20
122.365
 11
57.0779
 21
122.481
  0
LINE
  8
0
 10
57.0779
 20
122.481
 11
56.5499
 21
122.591
  0
LINE
  8
0
 10
56.5499
 20
122.591
 11
56.0195
 21
122.693
  0
LINE
  8
0
 10
56.0195
 20
122.693
 11
55.487
 21
122.787
  0
LINE
  8
0
 10
55.487
 20
122.787
 11
54.9526
 21
122.874
  0
LINE
  8
0
 10
54.9526
 20
122.874
 11
54.4163
 21
122.954
  0
LINE
  8
0
 10
54.4163
 20
122.954
 11
53.8784
 21
123.026
  0
LINE
  8
0
 10
53.8784
 20
123.026
 11
53.3389
 21
123.09
  0
LINE
  8
0
 10
53.3389
 20
123.09
 11
52.7982
 21
123.147
  0
LINE
  8
0
 10
52.7982
 20
123.147
 11
52.2563
 21
123.196
  0
LINE
  8
0
 10
52.2563
 20
123.196
 11
51.7134
 21
123.238
  0
LINE
  8
0
 10
51.7134
 20
123.238
 11
51.1697
 21
123.272
  0
LINE
  8
0
 10
51.1697
 20
123.272
 11
50.6253
 21
123.299
  0
LINE
  8
0
 10
50.6253
 20
123.299
 11
50.0804
 21
123.318
  0
LINE
  8
0
 10
50.0804
 20
123.318
 11
49.5352
 21
123.33
  0
LINE
  8
0
 10
49.5352
 20
123.33
 11
48.9898
 21
123.333
  0
LINE
  8
0
 10
48.9898
 20
123.333
 11
48.4444
 21
123.33
  0
LINE
  8
0
 10
48.4444
 20
123.33
 11
47.8992
 21
123.318
  0
LINE
  8
0
 10
47.8992
 20
123.318
 11
47.702
 21
123.311
  0
LINE
  8
0
 10
47.702
 20
123.311
 11
47.5528
 21
123.784
  0
LINE
  8
0
 10
47.5528
 20
123.784
 11
47.2759
 21
124.612
  0
LINE
  8
0
 10
47.2759
 20
124.612
 11
46.9846
 21
125.434
  0
LINE
  8
0
 10
46.9846
 20
125.434
 11
46.679
 21
126.252
  0
LINE
  8
0
 10
46.679
 20
126.252
 11
46.3592
 21
127.064
  0
LINE
  8
0
 10
46.3592
 20
127.064
 11
46.0252
 21
127.87
  0
LINE
  8
0
 10
46.0252
 20
127.87
 11
45.6773
 21
128.67
  0
LINE
  8
0
 10
45.6773
 20
128.67
 11
45.3154
 21
129.464
  0
LINE
  8
0
 10
45.3154
 20
129.464
 11
44.9397
 21
130.252
  0
LINE
  8
0
 10
44.9397
 20
130.252
 11
44.5503
 21
131.033
  0
LINE
  8
0
 10
44.5503
 20
131.033
 11
44.1474
 21
131.807
  0
LINE
  8
0
 10
44.1474
 20
131.807
 11
43.731
 21
132.574
  0
LINE
  8
0
 10
43.731
 20
132.574
 11
43.3013
 21
133.333
  0
LINE
  8
0
 10
43.3013
 20
133.333
 11
42.8584
 21
134.085
  0
LINE
  8
0
 10
42.8584
 20
134.085
 11
42.4024
 21
134.829
  0
LINE
  8
0
 10
42.4024
 20
134.829
 11
41.9335
 21
135.565
  0
LINE
  8
0
 10
41.9335
 20
135.565
 11
41.4519
 21
136.293
  0
LINE
  8
0
 10
41.4519
 20
136.293
 11
40.9576
 21
137.012
  0
LINE
  8
0
 10
40.9576
 20
137.012
 11
40.4508
 21
137.723
  0
LINE
  8
0
 10
40.4508
 20
137.723
 11
39.9318
 21
138.424
  0
LINE
  8
0
 10
39.9318
 20
138.424
 11
39.4005
 21
139.116
  0
LINE
  8
0
 10
39.4005
 20
139.116
 11
38.8573
 21
139.799
  0
LINE
  8
0
 10
38.8573
 20
139.799
 11
38.3022
 21
140.473
  0
LINE
  8
0
 10
38.3022
 20
140.473
 11
37.7355
 21
141.136
  0
LINE
  8
0
 10
37.7355
 20
141.136
 11
37.1572
 21
141.79
  0
LINE
  8
0
 10
37.1572
 20
141.79
 11
36.5677
 21
142.433
  0
LINE
  8
0
 10
36.5677
 20
142.433
 11
35.967
 21
143.066
  0
LINE
  8
0
 10
35.967
 20
143.066
 11
35.3553
 21
143.689
  0
LINE
  8
0
 10
35.3553
 20
143.689
 11
34.7329
 21
144.3
  0
LINE
  8
0
 10
34.7329
 20
144.3
 11
34.0999
 21
144.901
  0
LINE
  8
0
 10
34.0999
 20
144.901
 11
33.4565
 21
145.491
  0
LINE
  8
0
 10
33.4565
 20
145.491
 11
32.8029
 21
146.069
  0
LINE
  8
0
 10
32.8029
 20
146.069
 11
32.1394
 21
146.636
  0
LINE
  8
0
 10
32.1394
 20
146.636
 11
31.466
 21
147.191
  0
LINE
  8
0
 10
31.466
 20
147.191
 11
30.7831
 21
147.734
  0
LINE
  8
0
 10
30.7831
 20
147.734
 11
30.0907
 21
148.265
  0
LINE
  8
0
 10
30.0907
 20
148.265
 11
29.3893
 21
148.784
  0
LINE
  8
0
 10
29.3893
 20
148.784
 11
28.6788
 21
149.291
  0
LINE
  8
0
 10
28.6788
 20
149.291
 11
27.9596
 21
149.785
  0
LINE
  8
0
 10
27.9596
 20
149.785
 11
27.2319
 21
150.267
  0
LINE
  8
0
 10
27.2319
 20
150.267
 11
26.496
 21
150.736
  0
LINE
  8
0
 10
26.496
 20
150.736
 11
25.7519
 21
151.192
  0
LINE
  8
0
 10
25.7519
 20
151.192
 11
25
 21
151.635
  0
LINE
  8
0
 10
25
 20
151.635
 11
24.2405
 21
152.064
  0
LINE
  8
0
 10
24.2405
 20
152.064
 11
23.4736
 21
152.481
  0
LINE
  8
0
 10
23.4736
 20
152.481
 11
22.6995
 21
152.884
  0
LINE
  8
0
 10
22.6995
 20
152.884
 11
21.9185
 21
153.273
  0
LINE
  8
0
 10
21.9185
 20
153.273
 11
21.1309
 21
153.649
  0
LINE
  8
0
 10
21.1309
 20
153.649
 11
20.3368
 21
154.011
  0
LINE
  8
0
 10
20.3368
 20
154.011
 11
19.5365
 21
154.359
  0
LINE
  8
0
 10
19.5365
 20
154.359
 11
18.7303
 21
154.693
  0
LINE
  8
0
 10
18.7303
 20
154.693
 11
17.9184
 21
155.012
  0
LINE
  8
0
 10
17.9184
 20
155.012
 11
17.101
 21
155.318
  0
LINE
  8
0
 10
17.101
 20
155.318
 11
16.2784
 21
155.609
  0
LINE
  8
0
 10
16.2784
 20
155.609
 11
15.4508
 21
155.886
  0
LINE
  8
0
 10
15.4508
 20
155.886
 11
14.6186
 21
156.149
  0
LINE
  8
0
 10
14.6186
 20
156.149
 11
13.7819
 21
156.396
  0
LINE
  8
0
 10
13.7819
 20
156.396
 11
12.9409
 21
156.63
  0
LINE
  8
0
 10
12.9409
 20
156.63
 11
12.0961
 21
156.848
  0
LINE
  8
0
 10
12.0961
 20
156.848
 11
11.2475
 21
157.052
  0
LINE
  8
0
 10
11.2475
 20
157.052
 11
10.3956
 21
157.241
  0
LINE
  8
0
 10
10.3956
 20
157.241
 11
9.54044
 21
157.415
  0
LINE
  8
0
 10
9.54044
 20
157.415
 11
8.6824
 21
157.574
  0
LINE
  8
0
 10
8.6824
 20
157.574
 11
7.82172
 21
157.718
  0
LINE
  8
0
 10
7.82172
 20
157.718
 11
6.95865
 21
157.847
  0
LINE
  8
0
 10
6.95865
 20
157.847
 11
6.09346
 21
157.961
  0
LINE
  8
0
 10
6.09346
 20
157.961
 11
5.22641
 21
158.059
  0
LINE
  8
0
 10
5.22641
 20
158.059
 11
4.35777
 21
158.143
  0
LINE
  8
0
 10
4.35777
 20
158.143
 11
3.48782
 21
158.212
  0
LINE
  8
0
 10
3.48782
 20
158.212
 11
2.61679
 21
158.265
  0
LINE
  8
0
 10
2.61679
 20
158.265
 11
1.74496
 21
158.303
  0
LINE
  8
0
 10
1.74496
 20
158.303
 11
0.87262
 21
158.326
  0
LINE
  8
0
 10
0.87262
 20
158.326
 11
0
 21
158.333
  0
LINE
  8
0
 10
0
 20
158.333
 11
-0.87262
 21
158.326
  0
LINE
  8
0
 10
-0.87262
 20
158.326
 11
-1.74496
 21
158.303
  0
LINE
  8
0
 10
-1.74496
 20
158.303
 11
-2.61679
 21
158.265
  0
LINE
  8
0
 10
-2.61679
 20
158.265
 11
-3.48782
 21
158.212
  0
LINE
  8
0
 10
-3.48782
 20
158.212
 11
-4.35777
 21
158.143
  0
LINE
  8
0
 10
-4.35777
 20
158.143
 11
-5.22641
 21
158.059
  0
LINE
  8
0
 10
-5.22641
 20
158.059
 11
-6.09346
 21
157.961
  0
LINE
  8
0
 10
-6.09346
 20
157.961
 11
-6.95865
 21
157.847
  0
LINE
  8
0
 10
-6.95865
 20
157.847
 11
-7.82172
 21
157.718
  0
LINE
  8
0
 10
-7.82172
 20
157.718
 11
-8.6824
 21
157.574
  0
LINE
  8
0
 10
-8.6824
 20
157.574
 11
-9.54044
 21
157.415
  0
LINE
  8
0
 10
-9.54044
 20
157.415
 11
-10.3956
 21
157.241
  0
LINE
  8
0
 10
-10.3956
 20
157.241
 11
-11.2475
 21
157.052
  0
LINE
  8
0
 10
-11.2475
 20
157.052
 11
-12.0961
 21
156.848
  0
LINE
  8
0
 10
-12.0961
 20
156.848
 11
-12.9409
 21
156.63
  0
LINE
  8
0
 10
-12.9409
 20
156.63
 11
-13.7819
 21
156.396
  0
LINE
  8
0
 10
-13.7819
 20
156.396
 11
-14.6186
 21
156.149
  0
LINE
  8
0
 10
-14.6186
 20
156.149
 11
-15.4508
 21
155.886
  0
LINE
  8
0
 10
-15.4508
 20
155.886
 11
-16.2784
 21
155.609
  0
LINE
  8
0
 10
-16.2784
 20
155.609
 11
-17.101
 21
155.318
  0
LINE
  8
0
 10
-17.101
 20
155.318
 11
-17.9184
 21
155.012
  0
LINE
  8
0
 10
-17.9184
 20
155.012
 11
-18.7303
 21
154.693
  0
LINE
  8
0
 10
-18.7303
 20
154.693
 11
-19.5365
 21
154.359
  0
LINE
  8
0
 10
-19.5365
 20
154.359
 11
-20.3368
 21
154.011
  0
LINE
  8
0
 10
-20.3368
 20
154.011
 11
-21.1309
 21
153.649
  0
LINE
  8
0
 10
-21.1309
 20
153.649
 11
-21.9185
 21
153.273
  0
LINE
  8
0
 10
-21.9185
 20
153.273
 11
-22.6995
 21
152.884
  0
LINE
  8
0
 10
-22.6995
 20
152.884
 11
-23.4736
 21
152.481
  0
LINE
  8
0
 10
-23.4736
 20
152.481
 11
-24.2405
 21
152.064
  0
LINE
  8
0
 10
-24.2405
 20
152.064
 11
-25
 21
151.635
  0
LINE
  8
0
 10
-25
 20
151.635
 11
-25.7519
 21
151.192
  0
LINE
  8
0
 10
-25.7519
 20
151.192
 11
-26.496
 21
150.736
  0
LINE
  8
0
 10
-26.496
 20
150.736
 11
-27.2319
 21
150.267
  0
LINE
  8
0
 10
-27.2319
 20
150.267
 11
-27.9596
 21
149.785
  0
LINE
  8
0
 10
-27.9596
 20
149.785
 11
-28.6788
 21
149.291
  0
LINE
  8
0
 10
-28.6788
 20
149.291
 11
-29.3893
 21
148.784
  0
LINE
  8
0
 10
-29.3893
 20
148.784
 11
-30.0907
 21
148.265
  0
LINE
  8
0
 10
-30.0907
 20
148.265
 11
-30.7831
 21
147.734
  0
LINE
  8
0
 10
-30.7831
 20
147.734
 11
-31.466
 21
147.191
  0
LINE
  8
0
 10
-31.466
 20
147.191
 11
-32.1394
 21
146.636
  0
LINE
  8
0
 10
-32.1394
 20
146.636
 11
-32.8029
 21
146.069
  0
LINE
  8
0
 10
-32.8029
 20
146.069
 11
-33.4565
 21
145.491
  0
LINE
  8
0
 10
-33.4565
 20
145.491
 11
-34.0999
 21
144.901
  0
LINE
  8
0
 10
-34.0999
 20
144.901
 11
-34.7329
 21
144.3
  0
LINE
  8
0
 10
-34.7329
 20
144.3
 11
-35.3553
 21
143.689
  0
LINE
  8
0
 10
-35.3553
 20
143.689
 11
-35.967
 21
143.066
  0
LINE
  8
0
 10
-35.967
 20
143.066
 11
-36.5677
 21
142.433
  0
LINE
  8
0
 10
-36.5677
 20
142.433
 11
-37.1572
 21
141.79
  0
LINE
  8
0
 10
-37.1572
 20
141.79
 11
-37.7355
 21
141.136
  0
LINE
  8
0
 10
-37.7355
 20
141.136
 11
-38.3022
 21
140.473
  0
LINE
  8
0
 10
-38.3022
 20
140.473
 11
-38.8573
 21
139.799
  0
LINE
  8
0
 10
-38.8573
 20
139.799
 11
-39.4005
 21
139.116
  0
LINE
  8
0
 10
-39.4005
 20
139.116
 11
-39.9318
 21
138.424
  0
LINE
  8
0
 10
-39.9318
 20
138.424
 11
-40.4508
 21
137.723
  0
LINE
  8
0
 10
-40.4508
 20
137.723
 11
-40.9576
 21
137.012
  0
LINE
  8
0
 10
-40.9576
 20
137.012
 11
-41.4519
 21
136.293
  0
LINE
  8
0
 10
-41.4519
 20
136.293
 11
-41.9335
 21
135.565
  0
LINE
  8
0
 10
-41.9335
 20
135.565
 11
-42.4024
 21
134.829
  0
LINE
  8
0
 10
-42.4024
 20
134.829
 11
-42.8584
 21
134.085
  0
LINE
  8
0
 10
-42.8584
 20
134.085
 11
-43.3013
 21
133.333
  0
LINE
  8
0
 10
-43.3013
 20
133.333
 11
-43.731
 21
132.574
  0
LINE
  8
0
 10
-43.731
 20
132.574
 11
-44.1474
 21
131.807
  0
LINE
  8
0
 10
-44.1474
 20
131.807
 11
-44.5503
 21
131.033
  0
LINE
  8
0
 10
-44.5503
 20
131.033
 11
-44.9397
 21
130.252
  0
LINE
  8
0
 10
-44.9397
 20
130.252
 11
-45.3154
 21
129.464
  0
LINE
  8
0
 10
-45.3154
 20
129.464
 11
-45.6773
 21
128.67
  0
LINE
  8
0
 10
-45.6773
 20
128.67
 11
-46.0252
 21
127.87
  0
LINE
  8
0
 10
-46.0252
 20
127.87
 11
-46.3592
 21
127.064
  0
LINE
  8
0
 10
-46.3592
 20
127.064
 11
-46.679
 21
126.252
  0
LINE
  8
0
 10
-46.679
 20
126.252
 11
-46.9846
 21
125.434
  0
LINE
  8
0
 10
-46.9846
 20
125.434
 11
-47.2759
 21
124.612
  0
LINE
  8
0
 10
-47.2759
 20
124.612
 11
-47.5528
 21
123.784
  0
LINE
  8
0
 10
-47.5528
 20
123.784
 11
-47.702
 21
123.311
  0
LINE
  8
0
 10
-47.702
 20
123.311
 11
-47.8992
 21
123.318
  0
LINE
  8
0
 10
-47.8992
 20
123.318
 11
-48.4444
 21
123.33
  0
LINE
  8
0
 10
-48.4444
 20
123.33
 11
-48.9898
 21
123.333
  0
LINE
  8
0
 10
-48.9898
 20
123.333
 11
-49.5352
 21
123.33
  0
LINE
  8
0
 10
-49.5352
 20
123.33
 11
-50.0804
 21
123.318
  0
LINE
  8
0
 10
-50.0804
 20
123.318
 11
-50.6253
 21
123.299
  0
LINE
  8
0
 10
-50.6253
 20
123.299
 11
-51.1697
 21
123.272
  0
LINE
  8
0
 10
-51.1697
 20
123.272
 11
-51.7134
 21
123.238
  0
LINE
  8
0
 10
-51.7134
 20
123.238
 11
-52.2563
 21
123.196
  0
LINE
  8
0
 10
-52.2563
 20
123.196
 11
-52.7982
 21
123.147
  0
LINE
  8
0
 10
-52.7982
 20
123.147
 11
-53.3389
 21
123.09
  0
LINE
  8
0
 10
-53.3389
 20
123.09
 11
-53.8784
 21
123.026
  0
LINE
  8
0
 10
-53.8784
 20
123.026
 11
-54.4163
 21
122.954
  0
LINE
  8
0
 10
-54.4163
 20
122.954
 11
-54.9526
 21
122.874
  0
LINE
  8
0
 10
-54.9526
 20
122.874
 11
-55.487
 21
122.787
  0
LINE
  8
0
 10
-55.487
 20
122.787
 11
-56.0195
 21
122.693
  0
LINE
  8
0
 10
-56.0195
 20
122.693
 11
-56.5499
 21
122.591
  0
LINE
  8
0
 10
-56.5499
 20
122.591
 11
-57.0779
 21
122.481
  0
LINE
  8
0
 10
-57.0779
 20
122.481
 11
-57.6035
 21
122.365
  0
LINE
  8
0
 10
-57.6035
 20
122.365
 11
-58.1264
 21
122.241
  0
LINE
  8
0
 10
-58.1264
 20
122.241
 11
-58.6466
 21
122.11
  0
LINE
  8
0
 10
-58.6466
 20
122.11
 11
-59.1638
 21
121.971
  0
LINE
  8
0
 10
-59.1638
 20
121.971
 11
-59.6779
 21
121.826
  0
LINE
  8
0
 10
-59.6779
 20
121.826
 11
-60.1888
 21
121.673
  0
LINE
  8
0
 10
-60.1888
 20
121.673
 11
-60.6962
 21
121.513
  0
LINE
  8
0
 10
-60.6962
 20
121.513
 11
-61.2001
 21
121.346
  0
LINE
  8
0
 10
-61.2001
 20
121.346
 11
-61.7003
 21
121.172
  0
LINE
  8
0
 10
-61.7003
 20
121.172
 11
-62.1966
 21
120.991
  0
LINE
  8
0
 10
-62.1966
 20
120.991
 11
-62.6889
 21
120.803
  0
LINE
  8
0
 10
-62.6889
 20
120.803
 11
-63.177
 21
120.608
  0
LINE
  8
0
 10
-63.177
 20
120.608
 11
-63.6608
 21
120.407
  0
LINE
  8
0
 10
-63.6608
 20
120.407
 11
-64.1401
 21
120.199
  0
LINE
  8
0
 10
-64.1401
 20
120.199
 11
-64.6148
 21
119.984
  0
LINE
  8
0
 10
-64.6148
 20
119.984
 11
-65.0847
 21
119.762
  0
LINE
  8
0
 10
-65.0847
 20
119.762
 11
-65.5498
 21
119.535
  0
LINE
  8
0
 10
-65.5498
 20
119.535
 11
-66.0098
 21
119.3
  0
LINE
  8
0
 10
-66.0098
 20
119.3
 11
-66.4646
 21
119.059
  0
LINE
  8
0
 10
-66.4646
 20
119.059
 11
-66.914
 21
118.812
  0
LINE
  8
0
 10
-66.914
 20
118.812
 11
-67.3581
 21
118.559
  0
LINE
  8
0
 10
-67.3581
 20
118.559
 11
-67.7965
 21
118.299
  0
LINE
  8
0
 10
-67.7965
 20
118.299
 11
-68.2292
 21
118.034
  0
LINE
  8
0
 10
-68.2292
 20
118.034
 11
-68.6561
 21
117.762
  0
LINE
  8
0
 10
-68.6561
 20
117.762
 11
-69.0769
 21
117.484
  0
LINE
  8
0
 10
-69.0769
 20
117.484
 11
-69.4916
 21
117.201
  0
LINE
  8
0
 10
-69.4916
 20
117.201
 11
-69.9001
 21
116.912
  0
LINE
  8
0
 10
-69.9001
 20
116.912
 11
-70.3022
 21
116.617
  0
LINE
  8
0
 10
-70.3022
 20
116.617
 11
-70.6979
 21
116.317
  0
LINE
  8
0
 10
-70.6979
 20
116.317
 11
-71.0869
 21
116.011
  0
LINE
  8
0
 10
-71.0869
 20
116.011
 11
-71.4692
 21
115.7
  0
LINE
  8
0
 10
-71.4692
 20
115.7
 11
-71.8446
 21
115.383
  0
LINE
  8
0
 10
-71.8446
 20
115.383
 11
-72.2131
 21
115.062
  0
LINE
  8
0
 10
-72.2131
 20
115.062
 11
-72.5745
 21
114.735
  0
LINE
  8
0
 10
-72.5745
 20
114.735
 11
-72.9287
 21
114.403
  0
LINE
  8
0
 10
-72.9287
 20
114.403
 11
-73.2756
 21
114.066
  0
LINE
  8
0
 10
-73.2756
 20
114.066
 11
-73.6151
 21
113.725
  0
LINE
  8
0
 10
-73.6151
 20
113.725
 11
-73.9471
 21
113.379
  0
LINE
  8
0
 10
-73.9471
 20
113.379
 11
-74.2716
 21
113.028
  0
LINE
  8
0
 10
-74.2716
 20
113.028
 11
-74.5883
 21
112.673
  0
LINE
  8
0
 10
-74.5883
 20
112.673
 11
-74.8972
 21
112.313
  0
LINE
  8
0
 10
-74.8972
 20
112.313
 11
-75.1982
 21
111.949
  0
LINE
  8
0
 10
-75.1982
 20
111.949
 11
-75.4913
 21
111.581
  0
LINE
  8
0
 10
-75.4913
 20
111.581
 11
-75.7763
 21
111.209
  0
LINE
  8
0
 10
-75.7763
 20
111.209
 11
-76.0531
 21
110.833
  0
LINE
  8
0
 10
-76.0531
 20
110.833
 11
-76.3217
 21
110.454
  0
LINE
  8
0
 10
-76.3217
 20
110.454
 11
-76.5819
 21
110.07
  0
LINE
  8
0
 10
-76.5819
 20
110.07
 11
-76.8337
 21
109.683
  0
LINE
  8
0
 10
-76.8337
 20
109.683
 11
-77.0771
 21
109.293
  0
LINE
  8
0
 10
-77.0771
 20
109.293
 11
-77.3119
 21
108.899
  0
LINE
  8
0
 10
-77.3119
 20
108.899
 11
-77.5381
 21
108.502
  0
LINE
  8
0
 10
-77.5381
 20
108.502
 11
-77.7556
 21
108.102
  0
LINE
  8
0
 10
-77.7556
 20
108.102
 11
-77.9643
 21
107.698
  0
LINE
  8
0
 10
-77.9643
 20
107.698
 11
-78.1642
 21
107.293
  0
LINE
  8
0
 10
-78.1642
 20
107.293
 11
-78.3552
 21
106.884
  0
LINE
  8
0
 10
-78.3552
 20
106.884
 11
-78.5372
 21
106.473
  0
LINE
  8
0
 10
-78.5372
 20
106.473
 11
-78.7103
 21
106.059
  0
LINE
  8
0
 10
-78.7103
 20
106.059
 11
-78.8743
 21
105.643
  0
LINE
  8
0
 10
-78.8743
 20
105.643
 11
-79.0292
 21
105.224
  0
LINE
  8
0
 10
-79.0292
 20
105.224
 11
-79.175
 21
104.804
  0
LINE
  8
0
 10
-79.175
 20
104.804
 11
-79.3115
 21
104.381
  0
LINE
  8
0
 10
-79.3115
 20
104.381
 11
-79.4389
 21
103.957
  0
LINE
  8
0
 10
-79.4389
 20
103.957
 11
-79.5569
 21
103.531
  0
LINE
  8
0
 10
-79.5569
 20
103.531
 11
-79.6656
 21
103.104
  0
LINE
  8
0
 10
-79.6656
 20
103.104
 11
-79.765
 21
102.675
  0
LINE
  8
0
 10
-79.765
 20
102.675
 11
-79.855
 21
102.244
  0
LINE
  8
0
 10
-79.855
 20
102.244
 11
-79.9357
 21
101.813
  0
LINE
  8
0
 10
-79.9357
 20
101.813
 11
-80.0069
 21
101.38
  0
LINE
  8
0
 10
-80.0069
 20
101.38
 11
-80.0686
 21
100.947
  0
LINE
  8
0
 10
-80.0686
 20
100.947
 11
-80.1209
 21
100.512
  0
LINE
  8
0
 10
-80.1209
 20
100.512
 11
-80.1637
 21
100.077
  0
LINE
  8
0
 10
-80.1637
 20
100.077
 11
-80.197
 21
99.6417
  0
LINE
  8
0
 10
-80.197
 20
99.6417
 11
-80.2207
 21
99.2058
  0
LINE
  8
0
 10
-80.2207
 20
99.2058
 11
-80.235
 21
98.7696
  0
LINE
  8
0
 10
-80.235
 20
98.7696
 11
-80.2398
 21
98.3333
  0
LINE
  8
0
 10
-80.2398
 20
98.3333
 11
-80.235
 21
97.897
  0
LINE
  8
0
 10
-80.235
 20
97.897
 11
-80.2207
 21
97.4608
  0
LINE
  8
0
 10
-80.2207
 20
97.4608
 11
-80.197
 21
97.0249
  0
LINE
  8
0
 10
-80.197
 20
97.0249
 11
-80.1637
 21
96.5894
  0
LINE
  8
0
 10
-80.1637
 20
96.5894
 11
-80.1209
 21
96.1544
  0
LINE
  8
0
 10
-80.1209
 20
96.1544
 11
-80.0977
 21
95.9622
  0
LINE
  8
0
 10
-80.0977
 20
95.9622
 11
-80.3484
 21
95.7556
  0
LINE
  8
0
 10
-80.3484
 20
95.7556
 11
-82.0074
 21
94.3387
  0
LINE
  8
0
 10
-82.0074
 20
94.3387
 11
-83.6413
 21
92.8931
  0
LINE
  8
0
 10
-83.6413
 20
92.8931
 11
-85.2498
 21
91.4192
  0
LINE
  8
0
 10
-85.2498
 20
91.4192
 11
-86.8323
 21
89.9175
  0
LINE
  8
0
 10
-86.8323
 20
89.9175
 11
-88.3883
 21
88.3883
  0
LINE
  8
0
 10
-88.3883
 20
88.3883
 11
-89.9175
 21
86.8323
  0
LINE
  8
0
 10
-89.9175
 20
86.8323
 11
-91.4192
 21
85.2498
  0
LINE
  8
0
 10
-91.4192
 20
85.2498
 11
-92.8931
 21
83.6413
  0
LINE
  8
0
 10
-92.8931
 20
83.6413
 11
-94.3387
 21
82.0074
  0
LINE
  8
0
 10
-94.3387
 20
82.0074
 11
-95.7556
 21
80.3484
  0
LINE
  8
0
 10
-95.7556
 20
80.3484
 11
-97.1432
 21
78.665
  0
LINE
  8
0
 10
-97.1432
 20
78.665
 11
-98.5013
 21
76.9577
  0
LINE
  8
0
 10
-98.5013
 20
76.9577
 11
-99.8294
 21
75.2269
  0
LINE
  8
0
 10
-99.8294
 20
75.2269
 11
-101.127
 21
73.4731
  0
LINE
  8
0
 10
-101.127
 20
73.4731
 11
-102.394
 21
71.6971
  0
LINE
  8
0
 10
-102.394
 20
71.6971
 11
-103.63
 21
69.8991
  0
LINE
  8
0
 10
-103.63
 20
69.8991
 11
-104.834
 21
68.0799
  0
LINE
  8
0
 10
-104.834
 20
68.0799
 11
-106.006
 21
66.2399
  0
LINE
  8
0
 10
-106.006
 20
66.2399
 11
-107.146
 21
64.3797
  0
LINE
  8
0
 10
-107.146
 20
64.3797
 11
-108.253
 21
62.5
  0
LINE
  8
0
 10
-108.253
 20
62.5
 11
-109.327
 21
60.6012
  0
LINE
  8
0
 10
-109.327
 20
60.6012
 11
-110.368
 21
58.6839
  0
LINE
  8
0
 10
-110.368
 20
58.6839
 11
-111.376
 21
56.7488
  0
LINE
  8
0
 10
-111.376
 20
56.7488
 11
-112.349
 21
54.7964
  0
LINE
  8
0
 10
-112.349
 20
54.7964
 11
-113.288
 21
52.8273
  0
LINE
  8
0
 10
-113.288
 20
52.8273
 11
-114.193
 21
50.8421
  0
LINE
  8
0
 10
-114.193
 20
50.8421
 11
-115.063
 21
48.8414
  0
LINE
  8
0
 10
-115.063
 20
48.8414
 11
-115.898
 21
46.8258
  0
LINE
  8
0
 10
-115.898
 20
46.8258
 11
-116.698
 21
44.796
  0
LINE
  8
0
 10
-116.698
 20
44.796
 11
-117.462
 21
42.7525
  0
LINE
  8
0
 10
-117.462
 20
42.7525
 11
-118.19
 21
40.696
  0
LINE
  8
0
 10
-118.19
 20
40.696
 11
-118.882
 21
38.6271
  0
LINE
  8
0
 10
-118.882
 20
38.6271
 11
-119.538
 21
36.5465
  0
LINE
  8
0
 10
-119.538
 20
36.5465
 11
-120.158
 21
34.4547
  0
LINE
  8
0
 10
-120.158
 20
34.4547
 11
-120.741
 21
32.3524
  0
LINE
  8
0
 10
-120.741
 20
32.3524
 11
-121.287
 21
30.2402
  0
LINE
  8
0
 10
-121.287
 20
30.2402
 11
-121.796
 21
28.1189
  0
LINE
  8
0
 10
-121.796
 20
28.1189
 11
-122.268
 21
25.989
  0
LINE
  8
0
 10
-122.268
 20
25.989
 11
-122.703
 21
23.8511
  0
LINE
  8
0
 10
-122.703
 20
23.8511
 11
-123.101
 21
21.706
  0
LINE
  8
0
 10
-123.101
 20
21.706
 11
-123.461
 21
19.5543
  0
LINE
  8
0
 10
-123.461
 20
19.5543
 11
-123.784
 21
17.3966
  0
LINE
  8
0
 10
-123.784
 20
17.3966
 11
-124.068
 21
15.2337
  0
LINE
  8
0
 10
-124.068
 20
15.2337
 11
-124.315
 21
13.0661
  0
LINE
  8
0
 10
-124.315
 20
13.0661
 11
-124.524
 21
10.8945
  0
LINE
  8
0
 10
-124.524
 20
10.8945
 11
-124.695
 21
8.71956
  0
LINE
  8
0
 10
-124.695
 20
8.71956
 11
-124.829
 21
6.54199
  0
LINE
  8
0
 10
-124.829
 20
6.54199
 11
-124.924
 21
4.36243
  0
LINE
  8
0
 10
-124.924
 20
4.36243
 11
-124.981
 21
2.18155
  0
LINE
  8
0
 10
-124.981
 20
2.18155
 11
-125
 21
0
  0
LINE
  8
0
 10
-125
 20
0
 11
-124.981
 21
-2.18155
  0
LINE
  8
0
 10
-124.981
 20
-2.18155
 11
-124.924
 21
-4.36243
  0
LINE
  8
0
 10
-124.924
 20
-4.36243
 11
-124.829
 21
-6.54199
  0
LINE
  8
0
 10
-124.829
 20
-6.54199
 11
-124.695
 21
-8.71956
  0
LINE
  8
0
 10
-124.695
 20
-8.71956
 11
-124.524
 21
-10.8945
  0
LINE
  8
0
 10
-124.524
 20
-10.8945
 11
-124.315
 21
-13.0661
  0
LINE
  8
0
 10
-124.315
 20
-13.0661
 11
-124.068
 21
-15.2337
  0
LINE
  8
0
 10
-124.068
 20
-15.2337
 11
-123.784
 21
-17.3966
  0
LINE
  8
0
 10
-123.784
 20
-17.3966
 11
-123.461
 21
-19.5543
  0
LINE
  8
0
 10
-123.461
 20
-19.5543
 11
-123.101
 21
-21.706
  0
LINE
  8
0
 10
-123.101
 20
-21.706
 11
-122.703
 21
-23.8511
  0
LINE
  8
0
 10
-122.703
 20
-23.8511
 11
-122.268
 21
-25.989
  0
LINE
  8
0
 10
-122.268
 20
-25.989
 11
-121.796
 21
-28.1189
  0
LINE
  8
0
 10
-121.796
 20
-28.1189
 11
-121.287
 21
-30.2402
  0
LINE
  8
0
 10
-121.287
 20
-30.2402
 11
-120.741
 21
-32.3524
  0
LINE
  8
0
 10
-120.741
 20
-32.3524
 11
-120.158
 21
-34.4547
  0
LINE
  8
0
 10
-120.158
 20
-34.4547
 11
-119.538
 21
-36.5465
  0
LINE
  8
0
 10
-119.538
 20
-36.5465
 11
-118.882
 21
-38.6271
  0
LINE
  8
0
 10
-118.882
 20
-38.6271
 11
-118.19
 21
-40.696
  0
LINE
  8
0
 10
-118.19
 20
-40.696
 11
-117.462
 21
-42.7525
  0
LINE
  8
0
 10
-117.462
 20
-42.7525
 11
-116.698
 21
-44.796
  0
LINE
  8
0
 10
-116.698
 20
-44.796
 11
-115.898
 21
-46.8258
  0
LINE
  8
0
 10
-115.898
 20
-46.8258
 11
-115.063
 21
-48.8414
  0
LINE
  8
0
 10
-115.063
 20
-48.8414
 11
-114.193
 21
-50.8421
  0
LINE
  8
0
 10
-114.193
 20
-50.8421
 11
-113.288
 21
-52.8273
  0
LINE
  8
0
 10
-113.288
 20
-52.8273
 11
-112.349
 21
-54.7964
  0
LINE
  8
0
 10
-112.349
 20
-54.7964
 11
-111.376
 21
-56.7488
  0
LINE
  8
0
 10
-111.376
 20
-56.7488
 11
-110.368
 21
-58.6839
  0
LINE
  8
0
 10
-110.368
 20
-58.6839
 11
-109.327
 21
-60.6012
  0
LINE
  8
0
 10
-109.327
 20
-60.6012
 11
-108.253
 21
-62.5
  0
LINE
  8
0
 10
-108.253
 20
-62.5
 11
-107.146
 21
-64.3797
  0
LINE
  8
0
 10
-107.146
 20
-64.3797
 11
-106.006
 21
-66.2399
  0
LINE
  8
0
 10
-106.006
 20
-66.2399
 11
-104.834
 21
-68.0799
  0
LINE
  8
0
 10
-104.834
 20
-68.0799
 11
-103.63
 21
-69.8991
  0
LINE
  8
0
 10
-103.63
 20
-69.8991
 11
-102.394
 21
-71.6971
  0
LINE
  8
0
 10
-102.394
 20
-71.6971
 11
-101.127
 21
-73.4731
  0
LINE
  8
0
 10
-101.127
 20
-73.4731
 11
-99.8294
 21
-75.2269
  0
LINE
  8
0
 10
-99.8294
 20
-75.2269
 11
-98.5013
 21
-76.9577
  0
LINE
  8
0
 10
-98.5013
 20
-76.9577
 11
-97.1432
 21
-78.665
  0
LINE
  8
0
 10
-97.1432
 20
-78.665
 11
-95.7556
 21
-80.3484
  0
LINE
  8
0
 10
-95.7556
 20
-80.3484
 11
-94.3387
 21
-82.0074
  0
LINE
  8
0
 10
-94.3387
 20
-82.0074
 11
-92.8931
 21
-83.6413
  0
LINE
  8
0
 10
-92.8931
 20
-83.6413
 11
-91.4192
 21
-85.2498
  0
LINE
  8
0
 10
-91.4192
 20
-85.2498
 11
-89.9175
 21
-86.8323
  0
LINE
  8
0
 10
-89.9175
 20
-86.8323
 11
-88.3883
 21
-88.3883
  0
LINE
  8
0
 10
-88.3883
 20
-88.3883
 11
-86.8323
 21
-89.9175
  0
LINE
  8
0
 10
-86.8323
 20
-89.9175
 11
-85.2498
 21
-91.4192
  0
LINE
  8
0
 10
-85.2498
 20
-91.4192
 11
-83.6413
 21
-92.8931
  0
LINE
  8
0
 10
-83.6413
 20
-92.8931
 11
-82.0074
 21
-94.3387
  0
LINE
  8
0
 10
-82.0074
 20
-94.3387
 11
-80.3484
 21
-95.7556
  0
LINE
  8
0
 10
-80.3484
 20
-95.7556
 11
-78.665
 21
-97.1432
  0
LINE
  8
0
 10
-78.665
 20
-97.1432
 11
-76.9577
 21
-98.5013
  0
LINE
  8
0
 10
-76.9577
 20
-98.5013
 11
-75.2269
 21
-99.8294
  0
LINE
  8
0
 10
-75.2269
 20
-99.8294
 11
-73.4731
 21
-101.127
  0
LINE
  8
0
 10
-73.4731
 20
-101.127
 11
-71.6971
 21
-102.394
  0
LINE
  8
0
 10
-71.6971
 20
-102.394
 11
-69.8991
 21
-103.63
  0
LINE
  8
0
 10
-69.8991
 20
-103.63
 11
-68.0799
 21
-104.834
  0
LINE
  8
0
 10
-68.0799
 20
-104.834
 11
-66.2399
 21
-106.006
  0
LINE
  8
0
 10
-66.2399
 20
-106.006
 11
-64.3797
 21
-107.146
  0
LINE
  8
0
 10
-64.3797
 20
-107.146
 11
-62.5
 21
-108.253
  0
LINE
  8
0
 10
-62.5
 20
-108.253
 11
-60.6012
 21
-109.327
  0
LINE
  8
0
 10
-60.6012
 20
-109.327
 11
-58.6839
 21
-110.368
  0
LINE
  8
0
 10
-58.6839
 20
-110.368
 11
-56.7488
 21
-111.376
  0
LINE
  8
0
 10
-56.7488
 20
-111.376
 11
-54.7964
 21
-112.349
  0
LINE
  8
0
 10
-54.7964
 20
-112.349
 11
-52.8273
 21
-113.288
  0
LINE
  8
0
 10
-52.8273
 20
-113.288
 11
-50.8421
 21
-114.193
  0
LINE
  8
0
 10
-50.8421
 20
-114.193
 11
-48.8414
 21
-115.063
  0
LINE
  8
0
 10
-48.8414
 20
-115.063
 11
-46.8258
 21
-115.898
  0
LINE
  8
0
 10
-46.8258
 20
-115.898
 11
-44.796
 21
-116.698
  0
LINE
  8
0
 10
-44.796
 20
-116.698
 11
-42.7525
 21
-117.462
  0
LINE
  8
0
 10
-42.7525
 20
-117.462
 11
-40.696
 21
-118.19
  0
LINE
  8
0
 10
-40.696
 20
-118.19
 11
-38.6271
 21
-118.882
  0
LINE
  8
0
 10
-38.6271
 20
-118.882
 11
-36.5465
 21
-119.538
  0
LINE
  8
0
 10
-36.5465
 20
-119.538
 11
-34.4547
 21
-120.158
  0
LINE
  8
0
 10
-34.4547
 20
-120.158
 11
-32.3524
 21
-120.741
  0
LINE
  8
0
 10
-32.3524
 20
-120.741
 11
-30.2402
 21
-121.287
  0
LINE
  8
0
 10
-30.2402
 20
-121.287
 11
-28.1189
 21
-121.796
  0
LINE
  8
0
 10
-28.1189
 20
-121.796
 11
-25.989
 21
-122.268
  0
LINE
  8
0
 10
-25.989
 20
-122.268
 11
-23.8511
 21
-122.703
  0
LINE
  8
0
 10
-23.8511
 20
-122.703
 11
-21.706
 21
-123.101
  0
LINE
  8
0
 10
-21.706
 20
-123.101
 11
-19.5543
 21
-123.461
  0
LINE
  8
0
 10
-19.5543
 20
-123.461
 11
-17.3966
 21
-123.784
  0
LINE
  8
0
 10
-17.3966
 20
-123.784
 11
-15.2337
 21
-124.068
  0
LINE
  8
0
 10
-15.2337
 20
-124.068
 11
-13.0661
 21
-124.315
  0
LINE
  8
0
 10
-13.0661
 20
-124.315
 11
-10.8945
 21
-124.524
  0
LINE
  8
0
 10
-10.8945
 20
-124.524
 11
-8.71956
 21
-124.695
  0
LINE
  8
0
 10
-8.71956
 20
-124.695
 11
-6.54199
 21
-124.829
  0
LINE
  8
0
 10
-6.54199
 20
-124.829
 11
-4.36243
 21
-124.924
  0
LINE
  8
0
 10
-4.36243
 20
-124.924
 11
-2.18155
 21
-124.981
  0
LINE
  8
0
 10
-2.18155
 20
-124.981
 11
0
 21
-125
  0
LINE
  8
0
 10
0
 20
-125
 11
2.18155
 21
-124.981
  0
LINE
  8
0
 10
-0.069809
 20
129.334
 11
-0.139587
 21
129.336
  0
LINE
  8
0
 10
-0.139587
 20
129.336
 11
-0.209335
 21
129.339
  0
LINE
  8
0
 10
-0.209335
 20
129.339
 11
-0.279022
 21
129.343
  0
LINE
  8
0
 10
-0.279022
 20
129.343
 11
-0.348618
 21
129.349
  0
LINE
  8
0
 10
-0.348618
 20
129.349
 11
-0.418106
 21
129.355
  0
LINE
  8
0
 10
-0.418106
 20
129.355
 11
-0.487473
 21
129.363
  0
LINE
  8
0
 10
-0.487473
 20
129.363
 11
-0.556686
 21
129.372
  0
LINE
  8
0
 10
-0.556686
 20
129.372
 11
-0.625732
 21
129.383
  0
LINE
  8
0
 10
-0.625732
 20
129.383
 11
-0.69458
 21
129.394
  0
LINE
  8
0
 10
-0.69458
 20
129.394
 11
-0.763229
 21
129.407
  0
LINE
  8
0
 10
-0.763229
 20
129.407
 11
-0.831635
 21
129.421
  0
LINE
  8
0
 10
-0.831635
 20
129.421
 11
-0.899796
 21
129.436
  0
LINE
  8
0
 10
-0.899796
 20
129.436
 11
-0.967682
 21
129.452
  0
LINE
  8
0
 10
-0.967682
 20
129.452
 11
-1.03526
 21
129.47
  0
LINE
  8
0
 10
-1.03526
 20
129.47
 11
-1.10254
 21
129.488
  0
LINE
  8
0
 10
-1.10254
 20
129.488
 11
-1.16948
 21
129.508
  0
LINE
  8
0
 10
-1.16948
 20
129.508
 11
-1.23605
 21
129.529
  0
LINE
  8
0
 10
-1.23605
 20
129.529
 11
-1.30226
 21
129.551
  0
LINE
  8
0
 10
-1.30226
 20
129.551
 11
-1.36807
 21
129.575
  0
LINE
  8
0
 10
-1.36807
 20
129.575
 11
-1.43347
 21
129.599
  0
LINE
  8
0
 10
-1.43347
 20
129.599
 11
-1.49841
 21
129.625
  0
LINE
  8
0
 10
-1.49841
 20
129.625
 11
-1.56291
 21
129.651
  0
LINE
  8
0
 10
-1.56291
 20
129.651
 11
-1.62694
 21
129.679
  0
LINE
  8
0
 10
-1.62694
 20
129.679
 11
-1.69046
 21
129.708
  0
LINE
  8
0
 10
-1.69046
 20
129.708
 11
-1.75348
 21
129.738
  0
LINE
  8
0
 10
-1.75348
 20
129.738
 11
-1.81595
 21
129.769
  0
LINE
  8
0
 10
-1.81595
 20
129.769
 11
-1.87788
 21
129.802
  0
LINE
  8
0
 10
-1.87788
 20
129.802
 11
-1.93922
 21
129.835
  0
LINE
  8
0
 10
-1.93922
 20
129.835
 11
-2
 21
129.869
  0
LINE
  8
0
 10
-2
 20
129.869
 11
-2.06015
 21
129.905
  0
LINE
  8
0
 10
-2.06015
 20
129.905
 11
-2.11967
 21
129.941
  0
LINE
  8
0
 10
-2.11967
 20
129.941
 11
-2.17854
 21
129.979
  0
LINE
  8
0
 10
-2.17854
 20
129.979
 11
-2.23677
 21
130.017
  0
LINE
  8
0
 10
-2.23677
 20
130.017
 11
-2.2943
 21
130.057
  0
LINE
  8
0
 10
-2.2943
 20
130.057
 11
-2.35114
 21
130.097
  0
LINE
  8
0
 10
-2.35114
 20
130.097
 11
-2.40726
 21
130.139
  0
LINE
  8
0
 10
-2.40726
 20
130.139
 11
-2.46263
 21
130.181
  0
LINE
  8
0
 10
-2.46263
 20
130.181
 11
-2.51727
 21
130.225
  0
LINE
  8
0
 10
-2.51727
 20
130.225
 11
-2.57114
 21
130.269
  0
LINE
  8
0
 10
-2.57114
 20
130.269
 11
-2.62422
 21
130.314
  0
LINE
  8
0
 10
-2.62422
 20
130.314
 11
-2.67651
 21
130.361
  0
LINE
  8
0
 10
-2.67651
 20
130.361
 11
-2.72798
 21
130.408
  0
LINE
  8
0
 10
-2.72798
 20
130.408
 11
-2.77863
 21
130.456
  0
LINE
  8
0
 10
-2.77863
 20
130.456
 11
-2.82841
 21
130.505
  0
LINE
  8
0
 10
-2.82841
 20
130.505
 11
-2.87735
 21
130.555
  0
LINE
  8
0
 10
-2.87735
 20
130.555
 11
-2.9254
 21
130.605
  0
LINE
  8
0
 10
-2.9254
 20
130.605
 11
-2.97256
 21
130.657
  0
LINE
  8
0
 10
-2.97256
 20
130.657
 11
-3.01883
 21
130.709
  0
LINE
  8
0
 10
-3.01883
 20
130.709
 11
-3.06416
 21
130.762
  0
LINE
  8
0
 10
-3.06416
 20
130.762
 11
-3.10858
 21
130.816
  0
LINE
  8
0
 10
-3.10858
 20
130.816
 11
-3.15204
 21
130.871
  0
LINE
  8
0
 10
-3.15204
 20
130.871
 11
-3.19453
 21
130.926
  0
LINE
  8
0
 10
-3.19453
 20
130.926
 11
-3.23605
 21
130.982
  0
LINE
  8
0
 10
-3.23605
 20
130.982
 11
-3.2766
 21
131.039
  0
LINE
  8
0
 10
-3.2766
 20
131.039
 11
-3.31615
 21
131.097
  0
LINE
  8
0
 10
-3.31615
 20
131.097
 11
-3.35468
 21
131.155
  0
LINE
  8
0
 10
-3.35468
 20
131.155
 11
-3.39218
 21
131.214
  0
LINE
  8
0
 10
-3.39218
 20
131.214
 11
-3.42867
 21
131.273
  0
LINE
  8
0
 10
-3.42867
 20
131.273
 11
-3.4641
 21
131.333
  0
LINE
  8
0
 10
-3.4641
 20
131.333
 11
-3.49847
 21
131.394
  0
LINE
  8
0
 10
-3.49847
 20
131.394
 11
-3.53178
 21
131.455
  0
LINE
  8
0
 10
-3.53178
 20
131.455
 11
-3.56403
 21
131.517
  0
LINE
  8
0
 10
-3.56403
 20
131.517
 11
-3.59517
 21
131.58
  0
LINE
  8
0
 10
-3.59517
 20
131.58
 11
-3.62523
 21
131.643
  0
LINE
  8
0
 10
-3.62523
 20
131.643
 11
-3.65417
 21
131.706
  0
LINE
  8
0
 10
-3.65417
 20
131.706
 11
-3.68201
 21
131.77
  0
LINE
  8
0
 10
-3.68201
 20
131.77
 11
-3.70872
 21
131.835
  0
LINE
  8
0
 10
-3.70872
 20
131.835
 11
-3.73431
 21
131.9
  0
LINE
  8
0
 10
-3.73431
 20
131.9
 11
-3.75876
 21
131.965
  0
LINE
  8
0
 10
-3.75876
 20
131.965
 11
-3.78207
 21
132.031
  0
LINE
  8
0
 10
-3.78207
 20
132.031
 11
-3.80421
 21
132.097
  0
LINE
  8
0
 10
-3.80421
 20
132.097
 11
-3.82521
 21
132.164
  0
LINE
  8
0
 10
-3.82521
 20
132.164
 11
-3.84503
 21
132.231
  0
LINE
  8
0
 10
-3.84503
 20
132.231
 11
-3.86369
 21
132.298
  0
LINE
  8
0
 10
-3.86369
 20
132.298
 11
-3.88118
 21
132.366
  0
LINE
  8
0
 10
-3.88118
 20
132.366
 11
-3.89748
 21
132.434
  0
LINE
  8
0
 10
-3.89748
 20
132.434
 11
-3.91258
 21
132.502
  0
LINE
  8
0
 10
-3.91258
 20
132.502
 11
-3.9265
 21
132.57
  0
LINE
  8
0
 10
-3.9265
 20
132.57
 11
-3.93922
 21
132.639
  0
LINE
  8
0
 10
-3.93922
 20
132.639
 11
-3.95074
 21
132.708
  0
LINE
  8
0
 10
-3.95074
 20
132.708
 11
-3.96106
 21
132.777
  0
LINE
  8
0
 10
-3.96106
 20
132.777
 11
-3.97018
 21
132.846
  0
LINE
  8
0
 10
-3.97018
 20
132.846
 11
-3.97807
 21
132.915
  0
LINE
  8
0
 10
-3.97807
 20
132.915
 11
-3.98477
 21
132.985
  0
LINE
  8
0
 10
-3.98477
 20
132.985
 11
-3.99025
 21
133.054
  0
LINE
  8
0
 10
-3.99025
 20
133.054
 11
-3.99451
 21
133.124
  0
LINE
  8
0
 10
-3.99451
 20
133.124
 11
-3.99756
 21
133.194
  0
LINE
  8
0
 10
-3.99756
 20
133.194
 11
-3.99939
 21
133.264
  0
LINE
  8
0
 10
-3.99939
 20
133.264
 11
-4
 21
133.333
  0
LINE
  8
0
 10
-4
 20
133.333
 11
-3.99939
 21
133.403
  0
LINE
  8
0
 10
-3.99939
 20
133.403
 11
-3.99756
 21
133.473
  0
LINE
  8
0
 10
-3.99756
 20
133.473
 11
-3.99451
 21
133.543
  0
LINE
  8
0
 10
-3.99451
 20
133.543
 11
-3.99025
 21
133.612
  0
LINE
  8
0
 10
-3.99025
 20
133.612
 11
-3.98477
 21
133.682
  0
LINE
  8
0
 10
-3.98477
 20
133.682
 11
-3.97807
 21
133.751
  0
LINE
  8
0
 10
-3.97807
 20
133.751
 11
-3.97018
 21
133.821
  0
LINE
  8
0
 10
-3.97018
 20
133.821
 11
-3.96106
 21
133.89
  0
LINE
  8
0
 10
-3.96106
 20
133.89
 11
-3.95074
 21
133.959
  0
LINE
  8
0
 10
-3.95074
 20
133.959
 11
-3.93922
 21
134.028
  0
LINE
  8
0
 10
-3.93922
 20
134.028
 11
-3.9265
 21
134.097
  0
LINE
  8
0
 10
-3.9265
 20
134.097
 11
-3.91258
 21
134.165
  0
LINE
  8
0
 10
-3.91258
 20
134.165
 11
-3.89748
 21
134.233
  0
LINE
  8
0
 10
-3.89748
 20
134.233
 11
-3.88118
 21
134.301
  0
LINE
  8
0
 10
-3.88118
 20
134.301
 11
-3.86369
 21
134.369
  0
LINE
  8
0
 10
-3.86369
 20
134.369
 11
-3.84503
 21
134.436
  0
LINE
  8
0
 10
-3.84503
 20
134.436
 11
-3.82521
 21
134.503
  0
LINE
  8
0
 10
-3.82521
 20
134.503
 11
-3.80421
 21
134.569
  0
LINE
  8
0
 10
-3.80421
 20
134.569
 11
-3.78207
 21
134.636
  0
LINE
  8
0
 10
-3.78207
 20
134.636
 11
-3.75876
 21
134.701
  0
LINE
  8
0
 10
-3.75876
 20
134.701
 11
-3.73431
 21
134.767
  0
LINE
  8
0
 10
-3.73431
 20
134.767
 11
-3.70872
 21
134.832
  0
LINE
  8
0
 10
-3.70872
 20
134.832
 11
-3.68201
 21
134.896
  0
LINE
  8
0
 10
-3.68201
 20
134.896
 11
-3.65417
 21
134.96
  0
LINE
  8
0
 10
-3.65417
 20
134.96
 11
-3.62523
 21
135.024
  0
LINE
  8
0
 10
-3.62523
 20
135.024
 11
-3.59517
 21
135.087
  0
LINE
  8
0
 10
-3.59517
 20
135.087
 11
-3.56403
 21
135.149
  0
LINE
  8
0
 10
-3.56403
 20
135.149
 11
-3.53178
 21
135.211
  0
LINE
  8
0
 10
-3.53178
 20
135.211
 11
-3.49847
 21
135.273
  0
LINE
  8
0
 10
-3.49847
 20
135.273
 11
-3.4641
 21
135.333
  0
LINE
  8
0
 10
-3.4641
 20
135.333
 11
-3.42867
 21
135.393
  0
LINE
  8
0
 10
-3.42867
 20
135.393
 11
-3.39218
 21
135.453
  0
LINE
  8
0
 10
-3.39218
 20
135.453
 11
-3.35468
 21
135.512
  0
LINE
  8
0
 10
-3.35468
 20
135.512
 11
-3.31615
 21
135.57
  0
LINE
  8
0
 10
-3.31615
 20
135.57
 11
-3.2766
 21
135.628
  0
LINE
  8
0
 10
-3.2766
 20
135.628
 11
-3.23605
 21
135.684
  0
LINE
  8
0
 10
-3.23605
 20
135.684
 11
-3.19453
 21
135.741
  0
LINE
  8
0
 10
-3.19453
 20
135.741
 11
-3.15204
 21
135.796
  0
LINE
  8
0
 10
-3.15204
 20
135.796
 11
-3.10858
 21
135.851
  0
LINE
  8
0
 10
-3.10858
 20
135.851
 11
-3.06416
 21
135.904
  0
LINE
  8
0
 10
-3.06416
 20
135.904
 11
-3.01883
 21
135.958
  0
LINE
  8
0
 10
-3.01883
 20
135.958
 11
-2.97256
 21
136.01
  0
LINE
  8
0
 10
-2.97256
 20
136.01
 11
-2.9254
 21
136.061
  0
LINE
  8
0
 10
-2.9254
 20
136.061
 11
-2.87735
 21
136.112
  0
LINE
  8
0
 10
-2.87735
 20
136.112
 11
-2.82841
 21
136.162
  0
LINE
  8
0
 10
-2.82841
 20
136.162
 11
-2.77863
 21
136.211
  0
LINE
  8
0
 10
-2.77863
 20
136.211
 11
-2.72798
 21
136.259
  0
LINE
  8
0
 10
-2.72798
 20
136.259
 11
-2.67651
 21
136.306
  0
LINE
  8
0
 10
-2.67651
 20
136.306
 11
-2.62422
 21
136.352
  0
LINE
  8
0
 10
-2.62422
 20
136.352
 11
-2.57114
 21
136.397
  0
LINE
  8
0
 10
-2.57114
 20
136.397
 11
-2.51727
 21
136.442
  0
LINE
  8
0
 10
-2.51727
 20
136.442
 11
-2.46263
 21
136.485
  0
LINE
  8
0
 10
-2.46263
 20
136.485
 11
-2.40726
 21
136.528
  0
LINE
  8
0
 10
-2.40726
 20
136.528
 11
-2.35114
 21
136.569
  0
LINE
  8
0
 10
-2.35114
 20
136.569
 11
-2.2943
 21
136.61
  0
LINE
  8
0
 10
-2.2943
 20
136.61
 11
-2.23677
 21
136.649
  0
LINE
  8
0
 10
-2.23677
 20
136.649
 11
-2.17854
 21
136.688
  0
LINE
  8
0
 10
-2.17854
 20
136.688
 11
-2.11967
 21
136.726
  0
LINE
  8
0
 10
-2.11967
 20
136.726
 11
-2.06015
 21
136.762
  0
LINE
  8
0
 10
-2.06015
 20
136.762
 11
-2
 21
136.797
  0
LINE
  8
0
 10
-2
 20
136.797
 11
-1.93922
 21
136.832
  0
LINE
  8
0
 10
-1.93922
 20
136.832
 11
-1.87788
 21
136.865
  0
LINE
  8
0
 10
-1.87788
 20
136.865
 11
-1.81595
 21
136.897
  0
LINE
  8
0
 10
-1.81595
 20
136.897
 11
-1.75348
 21
136.928
  0
LINE
  8
0
 10
-1.75348
 20
136.928
 11
-1.69046
 21
136.959
  0
LINE
  8
0
 10
-1.69046
 20
136.959
 11
-1.62694
 21
136.988
  0
LINE
  8
0
 10
-1.62694
 20
136.988
 11
-1.56291
 21
137.015
  0
LINE
  8
0
 10
-1.56291
 20
137.015
 11
-1.49841
 21
137.042
  0
LINE
  8
0
 10
-1.49841
 20
137.042
 11
-1.43347
 21
137.068
  0
LINE
  8
0
 10
-1.43347
 20
137.068
 11
-1.36807
 21
137.092
  0
LINE
  8
0
 10
-1.36807
 20
137.092
 11
-1.30226
 21
137.115
  0
LINE
  8
0
 10
-1.30226
 20
137.115
 11
-1.23605
 21
137.138
  0
LINE
  8
0
 10
-1.23605
 20
137.138
 11
-1.16948
 21
137.159
  0
LINE
  8
0
 10
-1.16948
 20
137.159
 11
-1.10254
 21
137.178
  0
LINE
  8
0
 10
-1.10254
 20
137.178
 11
-1.03526
 21
137.197
  0
LINE
  8
0
 10
-1.03526
 20
137.197
 11
-0.967682
 21
137.215
  0
LINE
  8
0
 10
-0.967682
 20
137.215
 11
-0.899796
 21
137.231
  0
LINE
  8
0
 10
-0.899796
 20
137.231
 11
-0.831635
 21
137.246
  0
LINE
  8
0
 10
-0.831635
 20
137.246
 11
-0.763229
 21
137.26
  0
LINE
  8
0
 10
-0.763229
 20
137.26
 11
-0.69458
 21
137.273
  0
LINE
  8
0
 10
-0.69458
 20
137.273
 11
-0.625732
 21
137.284
  0
LINE
  8
0
 10
-0.625732
 20
137.284
 11
-0.556686
 21
137.294
  0
LINE
  8
0
 10
-0.556686
 20
137.294
 11
-0.487473
 21
137.304
  0
LINE
  8
0
 10
-0.487473
 20
137.304
 11
-0.418106
 21
137.311
  0
LINE
  8
0
 10
-0.418106
 20
137.311
 11
-0.348618
 21
137.318
  0
LINE
  8
0
 10
-0.348618
 20
137.318
 11
-0.279022
 21
137.324
  0
LINE
  8
0
 10
-0.279022
 20
137.324
 11
-0.209335
 21
137.328
  0
LINE
  8
0
 10
-0.209335
 20
137.328
 11
-0.139587
 21
137.331
  0
LINE
  8
0
 10
-0.139587
 20
137.331
 11
-0.069809
 21
137.333
  0
LINE
  8
0
 10
-0.069809
 20
137.333
 11
0
 21
137.333
  0
LINE
  8
0
 10
0
 20
137.333
 11
0.069809
 21
137.333
  0
LINE
  8
0
 10
0.069809
 20
137.333
 11
0.139587
 21
137.331
  0
LINE
  8
0
 10
0.139587
 20
137.331
 11
0.209335
 21
137.328
  0
LINE
  8
0
 10
0.209335
 20
137.328
 11
0.279022
 21
137.324
  0
LINE
  8
0
 10
0.279022
 20
137.324
 11
0.348618
 21
137.318
  0
LINE
  8
0
 10
0.348618
 20
137.318
 11
0.418106
 21
137.311
  0
LINE
  8
0
 10
0.418106
 20
137.311
 11
0.487473
 21
137.304
  0
LINE
  8
0
 10
0.487473
 20
137.304
 11
0.556686
 21
137.294
  0
LINE
  8
0
 10
0.556686
 20
137.294
 11
0.625732
 21
137.284
  0
LINE
  8
0
 10
0.625732
 20
137.284
 11
0.69458
 21
137.273
  0
LINE
  8
0
 10
0.69458
 20
137.273
 11
0.763229
 21
137.26
  0
LINE
  8
0
 10
0.763229
 20
137.26
 11
0.831635
 21
137.246
  0
LINE
  8
0
 10
0.831635
 20
137.246
 11
0.899796
 21
137.231
  0
LINE
  8
0
 10
0.899796
 20
137.231
 11
0.967682
 21
137.215
  0
LINE
  8
0
 10
0.967682
 20
137.215
 11
1.03526
 21
137.197
  0
LINE
  8
0
 10
1.03526
 20
137.197
 11
1.10254
 21
137.178
  0
LINE
  8
0
 10
1.10254
 20
137.178
 11
1.16948
 21
137.159
  0
LINE
  8
0
 10
1.16948
 20
137.159
 11
1.23605
 21
137.138
  0
LINE
  8
0
 10
1.23605
 20
137.138
 11
1.30226
 21
137.115
  0
LINE
  8
0
 10
1.30226
 20
137.115
 11
1.36807
 21
137.092
  0
LINE
  8
0
 10
1.36807
 20
137.092
 11
1.43347
 21
137.068
  0
LINE
  8
0
 10
1.43347
 20
137.068
 11
1.49841
 21
137.042
  0
LINE
  8
0
 10
1.49841
 20
137.042
 11
1.56291
 21
137.015
  0
LINE
  8
0
 10
1.56291
 20
137.015
 11
1.62694
 21
136.988
  0
LINE
  8
0
 10
1.62694
 20
136.988
 11
1.69046
 21
136.959
  0
LINE
  8
0
 10
1.69046
 20
136.959
 11
1.75348
 21
136.928
  0
LINE
  8
0
 10
1.75348
 20
136.928
 11
1.81595
 21
136.897
  0
LINE
  8
0
 10
1.81595
 20
136.897
 11
1.87788
 21
136.865
  0
LINE
  8
0
 10
1.87788
 20
136.865
 11
1.93922
 21
136.832
  0
LINE
  8
0
 10
1.93922
 20
136.832
 11
2
 21
136.797
  0
LINE
  8
0
 10
2
 20
136.797
 11
2.06015
 21
136.762
  0
LINE
  8
0
 10
2.06015
 20
136.762
 11
2.11967
 21
136.726
  0
LINE
  8
0
 10
2.11967
 20
136.726
 11
2.17854
 21
136.688
  0
LINE
  8
0
 10
2.17854
 20
136.688
 11
2.23677
 21
136.649
  0
LINE
  8
0
 10
2.23677
 20
136.649
 11
2.2943
 21
136.61
  0
LINE
  8
0
 10
2.2943
 20
136.61
 11
2.35114
 21
136.569
  0
LINE
  8
0
 10
2.35114
 20
136.569
 11
2.40726
 21
136.528
  0
LINE
  8
0
 10
2.40726
 20
136.528
 11
2.46263
 21
136.485
  0
LINE
  8
0
 10
2.46263
 20
136.485
 11
2.51727
 21
136.442
  0
LINE
  8
0
 10
2.51727
 20
136.442
 11
2.57114
 21
136.397
  0
LINE
  8
0
 10
2.57114
 20
136.397
 11
2.62422
 21
136.352
  0
LINE
  8
0
 10
2.62422
 20
136.352
 11
2.67651
 21
136.306
  0
LINE
  8
0
 10
2.67651
 20
136.306
 11
2.72798
 21
136.259
  0
LINE
  8
0
 10
2.72798
 20
136.259
 11
2.77863
 21
136.211
  0
LINE
  8
0
 10
2.77863
 20
136.211
 11
2.82841
 21
136.162
  0
LINE
  8
0
 10
2.82841
 20
136.162
 11
2.87735
 21
136.112
  0
LINE
  8
0
 10
2.87735
 20
136.112
 11
2.9254
 21
136.061
  0
LINE
  8
0
 10
2.9254
 20
136.061
 11
2.97256
 21
136.01
  0
LINE
  8
0
 10
2.97256
 20
136.01
 11
3.01883
 21
135.958
  0
LINE
  8
0
 10
3.01883
 20
135.958
 11
3.06416
 21
135.904
  0
LINE
  8
0
 10
3.06416
 20
135.904
 11
3.10858
 21
135.851
  0
LINE
  8
0
 10
3.10858
 20
135.851
 11
3.15204
 21
135.796
  0
LINE
  8
0
 10
3.15204
 20
135.796
 11
3.19453
 21
135.741
  0
LINE
  8
0
 10
3.19453
 20
135.741
 11
3.23605
 21
135.684
  0
LINE
  8
0
 10
3.23605
 20
135.684
 11
3.2766
 21
135.628
  0
LINE
  8
0
 10
3.2766
 20
135.628
 11
3.31615
 21
135.57
  0
LINE
  8
0
 10
3.31615
 20
135.57
 11
3.35468
 21
135.512
  0
LINE
  8
0
 10
3.35468
 20
135.512
 11
3.39218
 21
135.453
  0
LINE
  8
0
 10
3.39218
 20
135.453
 11
3.42867
 21
135.393
  0
LINE
  8
0
 10
3.42867
 20
135.393
 11
3.4641
 21
135.333
  0
LINE
  8
0
 10
3.4641
 20
135.333
 11
3.49847
 21
135.273
  0
LINE
  8
0
 10
3.49847
 20
135.273
 11
3.53178
 21
135.211
  0
LINE
  8
0
 10
3.53178
 20
135.211
 11
3.56403
 21
135.149
  0
LINE
  8
0
 10
3.56403
 20
135.149
 11
3.59517
 21
135.087
  0
LINE
  8
0
 10
3.59517
 20
135.087
 11
3.62523
 21
135.024
  0
LINE
  8
0
 10
3.62523
 20
135.024
 11
3.65417
 21
134.96
  0
LINE
  8
0
 10
3.65417
 20
134.96
 11
3.68201
 21
134.896
  0
LINE
  8
0
 10
3.68201
 20
134.896
 11
3.70872
 21
134.832
  0
LINE
  8
0
 10
3.70872
 20
134.832
 11
3.73431
 21
134.767
  0
LINE
  8
0
 10
3.73431
 20
134.767
 11
3.75876
 21
134.701
  0
LINE
  8
0
 10
3.75876
 20
134.701
 11
3.78207
 21
134.636
  0
LINE
  8
0
 10
3.78207
 20
134.636
 11
3.80421
 21
134.569
  0
LINE
  8
0
 10
3.80421
 20
134.569
 11
3.82521
 21
134.503
  0
LINE
  8
0
 10
3.82521
 20
134.503
 11
3.84503
 21
134.436
  0
LINE
  8
0
 10
3.84503
 20
134.436
 11
3.86369
 21
134.369
  0
LINE
  8
0
 10
3.86369
 20
134.369
 11
3.88118
 21
134.301
  0
LINE
  8
0
 10
3.88118
 20
134.301
 11
3.89748
 21
134.233
  0
LINE
  8
0
 10
3.89748
 20
134.233
 11
3.91258
 21
134.165
  0
LINE
  8
0
 10
3.91258
 20
134.165
 11
3.9265
 21
134.097
  0
LINE
  8
0
 10
3.9265
 20
134.097
 11
3.93922
 21
134.028
  0
LINE
  8
0
 10
3.93922
 20
134.028
 11
3.95074
 21
133.959
  0
LINE
  8
0
 10
3.95074
 20
133.959
 11
3.96106
 21
133.89
  0
LINE
  8
0
 10
3.96106
 20
133.89
 11
3.97018
 21
133.821
  0
LINE
  8
0
 10
3.97018
 20
133.821
 11
3.97807
 21
133.751
  0
LINE
  8
0
 10
3.97807
 20
133.751
 11
3.98477
 21
133.682
  0
LINE
  8
0
 10
3.98477
 20
133.682
 11
3.99025
 21
133.612
  0
LINE
  8
0
 10
3.99025
 20
133.612
 11
3.99451
 21
133.543
  0
LINE
  8
0
 10
3.99451
 20
133.543
 11
3.99756
 21
133.473
  0
LINE
  8
0
 10
3.99756
 20
133.473
 11
3.99939
 21
133.403
  0
LINE
  8
0
 10
3.99939
 20
133.403
 11
4
 21
133.333
  0
LINE
  8
0
 10
4
 20
133.333
 11
3.99939
 21
133.264
  0
LINE
  8
0
 10
3.99939
 20
133.264
 11
3.99756
 21
133.194
  0
LINE
  8
0
 10
3.99756
 20
133.194
 11
3.99451
 21
133.124
  0
LINE
  8
0
 10
3.99451
 20
133.124
 11
3.99025
 21
133.054
  0
LINE
  8
0
 10
3.99025
 20
133.054
 11
3.98477
 21
132.985
  0
LINE
  8
0
 10
3.98477
 20
132.985
 11
3.97807
 21
132.915
  0
LINE
  8
0
 10
3.97807
 20
132.915
 11
3.97018
 21
132.846
  0
LINE
  8
0
 10
3.97018
 20
132.846
 11
3.96106
 21
132.777
  0
LINE
  8
0
 10
3.96106
 20
132.777
 11
3.95074
 21
132.708
  0
LINE
  8
0
 10
3.95074
 20
132.708
 11
3.93922
 21
132.639
  0
LINE
  8
0
 10
3.93922
 20
132.639
 11
3.9265
 21
132.57
  0
LINE
  8
0
 10
3.9265
 20
132.57
 11
3.91258
 21
132.502
  0
LINE
  8
0
 10
3.91258
 20
132.502
 11
3.89748
 21
132.434
  0
LINE
  8
0
 10
3.89748
 20
132.434
 11
3.88118
 21
132.366
  0
LINE
  8
0
 10
3.88118
 20
132.366
 11
3.86369
 21
132.298
  0
LINE
  8
0
 10
3.86369
 20
132.298
 11
3.84503
 21
132.231
  0
LINE
  8
0
 10
3.84503
 20
132.231
 11
3.82521
 21
132.164
  0
LINE
  8
0
 10
3.82521
 20
132.164
 11
3.80421
 21
132.097
  0
LINE
  8
0
 10
3.80421
 20
132.097
 11
3.78207
 21
132.031
  0
LINE
  8
0
 10
3.78207
 20
132.031
 11
3.75876
 21
131.965
  0
LINE
  8
0
 10
3.75876
 20
131.965
 11
3.73431
 21
131.9
  0
LINE
  8
0
 10
3.73431
 20
131.9
 11
3.70872
 21
131.835
  0
LINE
  8
0
 10
3.70872
 20
131.835
 11
3.68201
 21
131.77
  0
LINE
  8
0
 10
3.68201
 20
131.77
 11
3.65417
 21
131.706
  0
LINE
  8
0
 10
3.65417
 20
131.706
 11
3.62523
 21
131.643
  0
LINE
  8
0
 10
3.62523
 20
131.643
 11
3.59517
 21
131.58
  0
LINE
  8
0
 10
3.59517
 20
131.58
 11
3.56403
 21
131.517
  0
LINE
  8
0
 10
3.56403
 20
131.517
 11
3.53178
 21
131.455
  0
LINE
  8
0
 10
3.53178
 20
131.455
 11
3.49847
 21
131.394
  0
LINE
  8
0
 10
3.49847
 20
131.394
 11
3.4641
 21
131.333
  0
LINE
  8
0
 10
3.4641
 20
131.333
 11
3.42867
 21
131.273
  0
LINE
  8
0
 10
3.42867
 20
131.273
 11
3.39218
 21
131.214
  0
LINE
  8
0
 10
3.39218
 20
131.214
 11
3.35468
 21
131.155
  0
LINE
  8
0
 10
3.35468
 20
131.155
 11
3.31615
 21
131.097
  0
LINE
  8
0
 10
3.31615
 20
131.097
 11
3.2766
 21
131.039
  0
LINE
  8
0
 10
3.2766
 20
131.039
 11
3.23605
 21
130.982
  0
LINE
  8
0
 10
3.23605
 20
130.982
 11
3.19453
 21
130.926
  0
LINE
  8
0
 10
3.19453
 20
130.926
 11
3.15204
 21
130.871
  0
LINE
  8
0
 10
3.15204
 20
130.871
 11
3.10858
 21
130.816
  0
LINE
  8
0
 10
3.10858
 20
130.816
 11
3.06416
 21
130.762
  0
LINE
  8
0
 10
3.06416
 20
130.762
 11
3.01883
 21
130.709
  0
LINE
  8
0
 10
3.01883
 20
130.709
 11
2.97256
 21
130.657
  0
LINE
  8
0
 10
2.97256
 20
130.657
 11
2.9254
 21
130.605
  0
LINE
  8
0
 10
2.9254
 20
130.605
 11
2.87735
 21
130.555
  0
LINE
  8
0
 10
2.87735
 20
130.555
 11
2.82841
 21
130.505
  0
LINE
  8
0
 10
2.82841
 20
130.505
 11
2.77863
 21
130.456
  0
LINE
  8
0
 10
2.77863
 20
130.456
 11
2.72798
 21
130.408
  0
LINE
  8
0
 10
2.72798
 20
130.408
 11
2.67651
 21
130.361
  0
LINE
  8
0
 10
2.67651
 20
130.361
 11
2.62422
 21
130.314
  0
LINE
  8
0
 10
2.62422
 20
130.314
 11
2.57114
 21
130.269
  0
LINE
  8
0
 10
2.57114
 20
130.269
 11
2.51727
 21
130.225
  0
LINE
  8
0
 10
2.51727
 20
130.225
 11
2.46263
 21
130.181
  0
LINE
  8
0
 10
2.46263
 20
130.181
 11
2.40726
 21
130.139
  0
LINE
  8
0
 10
2.40726
 20
130.139
 11
2.35114
 21
130.097
  0
LINE
  8
0
 10
2.35114
 20
130.097
 11
2.2943
 21
130.057
  0
LINE
  8
0
 10
2.2943
 20
130.057
 11
2.23677
 21
130.017
  0
LINE
  8
0
 10
2.23677
 20
130.017
 11
2.17854
 21
129.979
  0
LINE
  8
0
 10
2.17854
 20
129.979
 11
2.11967
 21
129.941
  0
LINE
  8
0
 10
2.11967
 20
129.941
 11
2.06015
 21
129.905
  0
LINE
  8
0
 10
2.06015
 20
129.905
 11
2
 21
129.869
  0
LINE
  8
0
 10
2
 20
129.869
 11
1.93922
 21
129.835
  0
LINE
  8
0
 10
1.93922
 20
129.835
 11
1.87788
 21
129.802
  0
LINE
  8
0
 10
1.87788
 20
129.802
 11
1.81595
 21
129.769
  0
LINE
  8
0
 10
1.81595
 20
129.769
 11
1.75348
 21
129.738
  0
LINE
  8
0
 10
1.75348
 20
129.738
 11
1.69046
 21
129.708
  0
LINE
  8
0
 10
1.69046
 20
129.708
 11
1.62694
 21
129.679
  0
LINE
  8
0
 10
1.62694
 20
129.679
 11
1.56291
 21
129.651
  0
LINE
  8
0
 10
1.56291
 20
129.651
 11
1.49841
 21
129.625
  0
LINE
  8
0
 10
1.49841
 20
129.625
 11
1.43347
 21
129.599
  0
LINE
  8
0
 10
1.43347
 20
129.599
 11
1.36807
 21
129.575
  0
LINE
  8
0
 10
1.36807
 20
129.575
 11
1.30226
 21
129.551
  0
LINE
  8
0
 10
1.30226
 20
129.551
 11
1.23605
 21
129.529
  0
LINE
  8
0
 10
1.23605
 20
129.529
 11
1.16948
 21
129.508
  0
LINE
  8
0
 10
1.16948
 20
129.508
 11
1.10254
 21
129.488
  0
LINE
  8
0
 10
1.10254
 20
129.488
 11
1.03526
 21
129.47
  0
LINE
  8
0
 10
1.03526
 20
129.47
 11
0.967682
 21
129.452
  0
LINE
  8
0
 10
0.967682
 20
129.452
 11
0.899796
 21
129.436
  0
LINE
  8
0
 10
0.899796
 20
129.436
 11
0.831635
 21
129.421
  0
LINE
  8
0
 10
0.831635
 20
129.421
 11
0.763229
 21
129.407
  0
LINE
  8
0
 10
0.763229
 20
129.407
 11
0.69458
 21
129.394
  0
LINE
  8
0
 10
0.69458
 20
129.394
 11
0.625732
 21
129.383
  0
LINE
  8
0
 10
0.625732
 20
129.383
 11
0.556686
 21
129.372
  0
LINE
  8
0
 10
0.556686
 20
129.372
 11
0.487473
 21
129.363
  0
LINE
  8
0
 10
0.487473
 20
129.363
 11
0.418106
 21
129.355
  0
LINE
  8
0
 10
0.418106
 20
129.355
 11
0.348618
 21
129.349
  0
LINE
  8
0
 10
0.348618
 20
129.349
 11
0.279022
 21
129.343
  0
LINE
  8
0
 10
0.279022
 20
129.343
 11
0.209335
 21
129.339
  0
LINE
  8
0
 10
0.209335
 20
129.339
 11
0.139587
 21
129.336
  0
LINE
  8
0
 10
0.139587
 20
129.336
 11
0.069809
 21
129.334
  0
LINE
  8
0
 10
0.069809
 20
129.334
 11
0
 21
129.333
  0
LINE
  8
0
 10
0
 20
129.333
 11
-0.069809
 21
129.334
  0
LINE
  8
0
 10
-0.0453644
 20
-2.59959
 11
-0.0907288
 21
-2.5984
  0
LINE
  8
0
 10
-0.0907288
 20
-2.5984
 11
-0.136063
 21
-2.59644
  0
LINE
  8
0
 10
-0.136063
 20
-2.59644
 11
-0.181366
 21
-2.59366
  0
LINE
  8
0
 10
-0.181366
 20
-2.59366
 11
-0.226593
 21
-2.5901
  0
LINE
  8
0
 10
-0.226593
 20
-2.5901
 11
-0.271759
 21
-2.58575
  0
LINE
  8
0
 10
-0.271759
 20
-2.58575
 11
-0.316849
 21
-2.58061
  0
LINE
  8
0
 10
-0.316849
 20
-2.58061
 11
-0.361847
 21
-2.57469
  0
LINE
  8
0
 10
-0.361847
 20
-2.57469
 11
-0.406723
 21
-2.56798
  0
LINE
  8
0
 10
-0.406723
 20
-2.56798
 11
-0.451477
 21
-2.56049
  0
LINE
  8
0
 10
-0.451477
 20
-2.56049
 11
-0.496094
 21
-2.55222
  0
LINE
  8
0
 10
-0.496094
 20
-2.55222
 11
-0.540558
 21
-2.54318
  0
LINE
  8
0
 10
-0.540558
 20
-2.54318
 11
-0.584869
 21
-2.53336
  0
LINE
  8
0
 10
-0.584869
 20
-2.53336
 11
-0.628983
 21
-2.52277
  0
LINE
  8
0
 10
-0.628983
 20
-2.52277
 11
-0.672928
 21
-2.5114
  0
LINE
  8
0
 10
-0.672928
 20
-2.5114
 11
-0.716644
 21
-2.49927
  0
LINE
  8
0
 10
-0.716644
 20
-2.49927
 11
-0.760162
 21
-2.48639
  0
LINE
  8
0
 10
-0.760162
 20
-2.48639
 11
-0.803436
 21
-2.47273
  0
LINE
  8
0
 10
-0.803436
 20
-2.47273
 11
-0.846466
 21
-2.45834
  0
LINE
  8
0
 10
-0.846466
 20
-2.45834
 11
-0.889252
 21
-2.44319
  0
LINE
  8
0
 10
-0.889252
 20
-2.44319
 11
-0.931747
 21
-2.42731
  0
LINE
  8
0
 10
-0.931747
 20
-2.42731
 11
-0.973969
 21
-2.41068
  0
LINE
  8
0
 10
-0.973969
 20
-2.41068
 11
-1.0159
 21
-2.39331
  0
LINE
  8
0
 10
-1.0159
 20
-2.39331
 11
-1.05751
 21
-2.37521
  0
LINE
  8
0
 10
-1.05751
 20
-2.37521
 11
-1.0988
 21
-2.3564
  0
LINE
  8
0
 10
-1.0988
 20
-2.3564
 11
-1.13976
 21
-2.33685
  0
LINE
  8
0
 10
-1.13976
 20
-2.33685
 11
-1.18037
 21
-2.3166
  0
LINE
  8
0
 10
-1.18037
 20
-2.3166
 11
-1.22061
 21
-2.29565
  0
LINE
  8
0
 10
-1.22061
 20
-2.29565
 11
-1.2605
 21
-2.274
  0
LINE
  8
0
 10
-1.2605
 20
-2.274
 11
-1.29999
 21
-2.25166
  0
LINE
  8
0
 10
-1.29999
 20
-2.25166
 11
-1.3391
 21
-2.22862
  0
LINE
  8
0
 10
-1.3391
 20
-2.22862
 11
-1.37778
 21
-2.20491
  0
LINE
  8
0
 10
-1.37778
 20
-2.20491
 11
-1.41606
 21
-2.18054
  0
LINE
  8
0
 10
-1.41606
 20
-2.18054
 11
-1.45389
 21
-2.15549
  0
LINE
  8
0
 10
-1.45389
 20
-2.15549
 11
-1.49129
 21
-2.12979
  0
LINE
  8
0
 10
-1.49129
 20
-2.12979
 11
-1.52823
 21
-2.10344
  0
LINE
  8
0
 10
-1.52823
 20
-2.10344
 11
-1.56471
 21
-2.07645
  0
LINE
  8
0
 10
-1.56471
 20
-2.07645
 11
-1.60071
 21
-2.04881
  0
LINE
  8
0
 10
-1.60071
 20
-2.04881
 11
-1.63623
 21
-2.02057
  0
LINE
  8
0
 10
-1.63623
 20
-2.02057
 11
-1.67123
 21
-1.99171
  0
LINE
  8
0
 10
-1.67123
 20
-1.99171
 11
-1.70575
 21
-1.96223
  0
LINE
  8
0
 10
-1.70575
 20
-1.96223
 11
-1.73973
 21
-1.93217
  0
LINE
  8
0
 10
-1.73973
 20
-1.93217
 11
-1.77319
 21
-1.9015
  0
LINE
  8
0
 10
-1.77319
 20
-1.9015
 11
-1.80611
 21
-1.87027
  0
LINE
  8
0
 10
-1.80611
 20
-1.87027
 11
-1.83847
 21
-1.83847
  0
LINE
  8
0
 10
-1.83847
 20
-1.83847
 11
-1.87027
 21
-1.80611
  0
LINE
  8
0
 10
-1.87027
 20
-1.80611
 11
-1.9015
 21
-1.77319
  0
LINE
  8
0
 10
-1.9015
 20
-1.77319
 11
-1.93217
 21
-1.73973
  0
LINE
  8
0
 10
-1.93217
 20
-1.73973
 11
-1.96223
 21
-1.70575
  0
LINE
  8
0
 10
-1.96223
 20
-1.70575
 11
-1.99171
 21
-1.67123
  0
LINE
  8
0
 10
-1.99171
 20
-1.67123
 11
-2.02057
 21
-1.63623
  0
LINE
  8
0
 10
-2.02057
 20
-1.63623
 11
-2.04881
 21
-1.60071
  0
LINE
  8
0
 10
-2.04881
 20
-1.60071
 11
-2.07645
 21
-1.56471
  0
LINE
  8
0
 10
-2.07645
 20
-1.56471
 11
-2.10344
 21
-1.52823
  0
LINE
  8
0
 10
-2.10344
 20
-1.52823
 11
-2.12979
 21
-1.49129
  0
LINE
  8
0
 10
-2.12979
 20
-1.49129
 11
-2.15549
 21
-1.45389
  0
LINE
  8
0
 10
-2.15549
 20
-1.45389
 11
-2.18054
 21
-1.41606
  0
LINE
  8
0
 10
-2.18054
 20
-1.41606
 11
-2.20491
 21
-1.37778
  0
LINE
  8
0
 10
-2.20491
 20
-1.37778
 11
-2.22862
 21
-1.3391
  0
LINE
  8
0
 10
-2.22862
 20
-1.3391
 11
-2.25166
 21
-1.29999
  0
LINE
  8
0
 10
-2.25166
 20
-1.29999
 11
-2.274
 21
-1.2605
  0
LINE
  8
0
 10
-2.274
 20
-1.2605
 11
-2.29565
 21
-1.22061
  0
LINE
  8
0
 10
-2.29565
 20
-1.22061
 11
-2.3166
 21
-1.18037
  0
LINE
  8
0
 10
-2.3166
 20
-1.18037
 11
-2.33685
 21
-1.13976
  0
LINE
  8
0
 10
-2.33685
 20
-1.13976
 11
-2.3564
 21
-1.0988
  0
LINE
  8
0
 10
-2.3564
 20
-1.0988
 11
-2.37521
 21
-1.05751
  0
LINE
  8
0
 10
-2.37521
 20
-1.05751
 11
-2.39331
 21
-1.0159
  0
LINE
  8
0
 10
-2.39331
 20
-1.0159
 11
-2.41068
 21
-0.973969
  0
LINE
  8
0
 10
-2.41068
 20
-0.973969
 11
-2.42731
 21
-0.931747
  0
LINE
  8
0
 10
-2.42731
 20
-0.931747
 11
-2.44319
 21
-0.889252
  0
LINE
  8
0
 10
-2.44319
 20
-0.889252
 11
-2.45834
 21
-0.846466
  0
LINE
  8
0
 10
-2.45834
 20
-0.846466
 11
-2.47273
 21
-0.803436
  0
LINE
  8
0
 10
-2.47273
 20
-0.803436
 11
-2.48639
 21
-0.760162
  0
LINE
  8
0
 10
-2.48639
 20
-0.760162
 11
-2.49927
 21
-0.716644
  0
LINE
  8
0
 10
-2.49927
 20
-0.716644
 11
-2.5114
 21
-0.672928
  0
LINE
  8
0
 10
-2.5114
 20
-0.672928
 11
-2.52277
 21
-0.628983
  0
LINE
  8
0
 10
-2.52277
 20
-0.628983
 11
-2.53336
 21
-0.584869
  0
LINE
  8
0
 10
-2.53336
 20
-0.584869
 11
-2.54318
 21
-0.540558
  0
LINE
  8
0
 10
-2.54318
 20
-0.540558
 11
-2.55222
 21
-0.496094
  0
LINE
  8
0
 10
-2.55222
 20
-0.496094
 11
-2.56049
 21
-0.451477
  0
LINE
  8
0
 10
-2.56049
 20
-0.451477
 11
-2.56798
 21
-0.406723
  0
LINE
  8
0
 10
-2.56798
 20
-0.406723
 11
-2.57469
 21
-0.361847
  0
LINE
  8
0
 10
-2.57469
 20
-0.361847
 11
-2.58061
 21
-0.316849
  0
LINE
  8
0
 10
-2.58061
 20
-0.316849
 11
-2.58575
 21
-0.271759
  0
LINE
  8
0
 10
-2.58575
 20
-0.271759
 11
-2.5901
 21
-0.226593
  0
LINE
  8
0
 10
-2.5901
 20
-0.226593
 11
-2.59366
 21
-0.181366
  0
LINE
  8
0
 10
-2.59366
 20
-0.181366
 11
-2.59644
 21
-0.136063
  0
LINE
  8
0
 10
-2.59644
 20
-0.136063
 11
-2.5984
 21
-0.0907288
  0
LINE
  8
0
 10
-2.5984
 20
-0.0907288
 11
-2.59959
 21
-0.0453644
  0
LINE
  8
0
 10
-2.59959
 20
-0.0453644
 11
-2.59999
 21
0
  0
LINE
  8
0
 10
-2.59999
 20
0
 11
-2.59959
 21
0.0453644
  0
LINE
  8
0
 10
-2.59959
 20
0.0453644
 11
-2.5984
 21
0.0907288
  0
LINE
  8
0
 10
-2.5984
 20
0.0907288
 11
-2.59644
 21
0.136063
  0
LINE
  8
0
 10
-2.59644
 20
0.136063
 11
-2.59366
 21
0.181366
  0
LINE
  8
0
 10
-2.59366
 20
0.181366
 11
-2.5901
 21
0.226593
  0
LINE
  8
0
 10
-2.5901
 20
0.226593
 11
-2.58575
 21
0.271759
  0
LINE
  8
0
 10
-2.58575
 20
0.271759
 11
-2.58061
 21
0.316849
  0
LINE
  8
0
 10
-2.58061
 20
0.316849
 11
-2.57469
 21
0.361847
  0
LINE
  8
0
 10
-2.57469
 20
0.361847
 11
-2.56798
 21
0.406723
  0
LINE
  8
0
 10
-2.56798
 20
0.406723
 11
-2.56049
 21
0.451477
  0
LINE
  8
0
 10
-2.56049
 20
0.451477
 11
-2.55222
 21
0.496094
  0
LINE
  8
0
 10
-2.55222
 20
0.496094
 11
-2.54318
 21
0.540558
  0
LINE
  8
0
 10
-2.54318
 20
0.540558
 11
-2.53336
 21
0.584869
  0
LINE
  8
0
 10
-2.53336
 20
0.584869
 11
-2.52277
 21
0.628983
  0
LINE
  8
0
 10
-2.52277
 20
0.628983
 11
-2.5114
 21
0.672928
  0
LINE
  8
0
 10
-2.5114
 20
0.672928
 11
-2.49927
 21
0.716644
  0
LINE
  8
0
 10
-2.49927
 20
0.716644
 11
-2.48639
 21
0.760162
  0
LINE
  8
0
 10
-2.48639
 20
0.760162
 11
-2.47273
 21
0.803436
  0
LINE
  8
0
 10
-2.47273
 20
0.803436
 11
-2.45834
 21
0.846466
  0
LINE
  8
0
 10
-2.45834
 20
0.846466
 11
-2.44319
 21
0.889252
  0
LINE
  8
0
 10
-2.44319
 20
0.889252
 11
-2.42731
 21
0.931747
  0
LINE
  8
0
 10
-2.42731
 20
0.931747
 11
-2.41068
 21
0.973969
  0
LINE
  8
0
 10
-2.41068
 20
0.973969
 11
-2.39331
 21
1.0159
  0
LINE
  8
0
 10
-2.39331
 20
1.0159
 11
-2.37521
 21
1.05751
  0
LINE
  8
0
 10
-2.37521
 20
1.05751
 11
-2.3564
 21
1.0988
  0
LINE
  8
0
 10
-2.3564
 20
1.0988
 11
-2.33685
 21
1.13976
  0
LINE
  8
0
 10
-2.33685
 20
1.13976
 11
-2.3166
 21
1.18037
  0
LINE
  8
0
 10
-2.3166
 20
1.18037
 11
-2.29565
 21
1.22061
  0
LINE
  8
0
 10
-2.29565
 20
1.22061
 11
-2.274
 21
1.2605
  0
LINE
  8
0
 10
-2.274
 20
1.2605
 11
-2.25166
 21
1.29999
  0
LINE
  8
0
 10
-2.25166
 20
1.29999
 11
-2.22862
 21
1.3391
  0
LINE
  8
0
 10
-2.22862
 20
1.3391
 11
-2.20491
 21
1.37778
  0
LINE
  8
0
 10
-2.20491
 20
1.37778
 11
-2.18054
 21
1.41606
  0
LINE
  8
0
 10
-2.18054
 20
1.41606
 11
-2.15549
 21
1.45389
  0
LINE
  8
0
 10
-2.15549
 20
1.45389
 11
-2.12979
 21
1.49129
  0
LINE
  8
0
 10
-2.12979
 20
1.49129
 11
-2.10344
 21
1.52823
  0
LINE
  8
0
 10
-2.10344
 20
1.52823
 11
-2.07645
 21
1.56471
  0
LINE
  8
0
 10
-2.07645
 20
1.56471
 11
-2.04881
 21
1.60071
  0
LINE
  8
0
 10
-2.04881
 20
1.60071
 11
-2.02057
 21
1.63623
  0
LINE
  8
0
 10
-2.02057
 20
1.63623
 11
-1.99171
 21
1.67123
  0
LINE
  8
0
 10
-1.99171
 20
1.67123
 11
-1.96223
 21
1.70575
  0
LINE
  8
0
 10
-1.96223
 20
1.70575
 11
-1.93217
 21
1.73973
  0
LINE
  8
0
 10
-1.93217
 20
1.73973
 11
-1.9015
 21
1.77319
  0
LINE
  8
0
 10
-1.9015
 20
1.77319
 11
-1.87027
 21
1.80611
  0
LINE
  8
0
 10
-1.87027
 20
1.80611
 11
-1.83847
 21
1.83847
  0
LINE
  8
0
 10
-1.83847
 20
1.83847
 11
-1.80611
 21
1.87027
  0
LINE
  8
0
 10
-1.80611
 20
1.87027
 11
-1.77319
 21
1.9015
  0
LINE
  8
0
 10
-1.77319
 20
1.9015
 11
-1.73973
 21
1.93217
  0
LINE
  8
0
 10
-1.73973
 20
1.93217
 11
-1.70575
 21
1.96223
  0
LINE
  8
0
 10
-1.70575
 20
1.96223
 11
-1.67123
 21
1.99171
  0
LINE
  8
0
 10
-1.67123
 20
1.99171
 11
-1.63623
 21
2.02057
  0
LINE
  8
0
 10
-1.63623
 20
2.02057
 11
-1.60071
 21
2.04881
  0
LINE
  8
0
 10
-1.60071
 20
2.04881
 11
-1.56471
 21
2.07645
  0
LINE
  8
0
 10
-1.56471
 20
2.07645
 11
-1.52823
 21
2.10344
  0
LINE
  8
0
 10
-1.52823
 20
2.10344
 11
-1.49129
 21
2.12979
  0
LINE
  8
0
 10
-1.49129
 20
2.12979
 11
-1.45389
 21
2.15549
  0
LINE
  8
0
 10
-1.45389
 20
2.15549
 11
-1.41606
 21
2.18054
  0
LINE
  8
0
 10
-1.41606
 20
2.18054
 11
-1.37778
 21
2.20491
  0
LINE
  8
0
 10
-1.37778
 20
2.20491
 11
-1.3391
 21
2.22862
  0
LINE
  8
0
 10
-1.3391
 20
2.22862
 11
-1.29999
 21
2.25166
  0
LINE
  8
0
 10
-1.29999
 20
2.25166
 11
-1.2605
 21
2.274
  0
LINE
  8
0
 10
-1.2605
 20
2.274
 11
-1.22061
 21
2.29565
  0
LINE
  8
0
 10
-1.22061
 20
2.29565
 11
-1.18037
 21
2.3166
  0
LINE
  8
0
 10
-1.18037
 20
2.3166
 11
-1.13976
 21
2.33685
  0
LINE
  8
0
 10
-1.13976
 20
2.33685
 11
-1.0988
 21
2.3564
  0
LINE
  8
0
 10
-1.0988
 20
2.3564
 11
-1.05751
 21
2.37521
  0
LINE
  8
0
 10
-1.05751
 20
2.37521
 11
-1.0159
 21
2.39331
  0
LINE
  8
0
 10
-1.0159
 20
2.39331
 11
-0.973969
 21
2.41068
  0
LINE
  8
0
 10
-0.973969
 20
2.41068
 11
-0.931747
 21
2.42731
  0
LINE
  8
0
 10
-0.931747
 20
2.42731
 11
-0.889252
 21
2.44319
  0
LINE
  8
0
 10
-0.889252
 20
2.44319
 11
-0.846466
 21
2.45834
  0
LINE
  8
0
 10
-0.846466
 20
2.45834
 11
-0.803436
 21
2.47273
  0
LINE
  8
0
 10
-0.803436
 20
2.47273
 11
-0.760162
 21
2.48639
  0
LINE
  8
0
 10
-0.760162
 20
2.48639
 11
-0.716644
 21
2.49927
  0
LINE
  8
0
 10
-0.716644
 20
2.49927
 11
-0.672928
 21
2.5114
  0
LINE
  8
0
 10
-0.672928
 20
2.5114
 11
-0.628983
 21
2.52277
  0
LINE
  8
0
 10
-0.628983
 20
2.52277
 11
-0.584869
 21
2.53336
  0
LINE
  8
0
 10
-0.584869
 20
2.53336
 11
-0.540558
 21
2.54318
  0
LINE
  8
0
 10
-0.540558
 20
2.54318
 11
-0.496094
 21
2.55222
  0
LINE
  8
0
 10
-0.496094
 20
2.55222
 11
-0.451477
 21
2.56049
  0
LINE
  8
0
 10
-0.451477
 20
2.56049
 11
-0.406723
 21
2.56798
  0
LINE
  8
0
 10
-0.406723
 20
2.56798
 11
-0.361847
 21
2.57469
  0
LINE
  8
0
 10
-0.361847
 20
2.57469
 11
-0.316849
 21
2.58061
  0
LINE
  8
0
 10
-0.316849
 20
2.58061
 11
-0.271759
 21
2.58575
  0
LINE
  8
0
 10
-0.271759
 20
2.58575
 11
-0.226593
 21
2.5901
  0
LINE
  8
0
 10
-0.226593
 20
2.5901
 11
-0.181366
 21
2.59366
  0
LINE
  8
0
 10
-0.181366
 20
2.59366
 11
-0.136063
 21
2.59644
  0
LINE
  8
0
 10
-0.136063
 20
2.59644
 11
-0.0907288
 21
2.5984
  0
LINE
  8
0
 10
-0.0907288
 20
2.5984
 11
-0.0453644
 21
2.59959
  0
LINE
  8
0
 10
-0.0453644
 20
2.59959
 11
0
 21
2.59999
  0
LINE
  8
0
 10
0
 20
2.59999
 11
0.0453644
 21
2.59959
  0
LINE
  8
0
 10
0.0453644
 20
2.59959
 11
0.0907288
 21
2.5984
  0
LINE
  8
0
 10
0.0907288
 20
2.5984
 11
0.136063
 21
2.59644
  0
LINE
  8
0
 10
0.136063
 20
2.59644
 11
0.181366
 21
2.59366
  0
LINE
  8
0
 10
0.181366
 20
2.59366
 11
0.226593
 21
2.5901
  0
LINE
  8
0
 10
0.226593
 20
2.5901
 11
0.271759
 21
2.58575
  0
LINE
  8
0
 10
0.271759
 20
2.58575
 11
0.316849
 21
2.58061
  0
LINE
  8
0
 10
0.316849
 20
2.58061
 11
0.361847
 21
2.57469
  0
LINE
  8
0
 10
0.361847
 20
2.57469
 11
0.406723
 21
2.56798
  0
LINE
  8
0
 10
0.406723
 20
2.56798
 11
0.451477
 21
2.56049
  0
LINE
  8
0
 10
0.451477
 20
2.56049
 11
0.496094
 21
2.55222
  0
LINE
  8
0
 10
0.496094
 20
2.55222
 11
0.540558
 21
2.54318
  0
LINE
  8
0
 10
0.540558
 20
2.54318
 11
0.584869
 21
2.53336
  0
LINE
  8
0
 10
0.584869
 20
2.53336
 11
0.628983
 21
2.52277
  0
LINE
  8
0
 10
0.628983
 20
2.52277
 11
0.672928
 21
2.5114
  0
LINE
  8
0
 10
0.672928
 20
2.5114
 11
0.716644
 21
2.49927
  0
LINE
  8
0
 10
0.716644
 20
2.49927
 11
0.760162
 21
2.48639
  0
LINE
  8
0
 10
0.760162
 20
2.48639
 11
0.803436
 21
2.47273
  0
LINE
  8
0
 10
0.803436
 20
2.47273
 11
0.846466
 21
2.45834
  0
LINE
  8
0
 10
0.846466
 20
2.45834
 11
0.889252
 21
2.44319
  0
LINE
  8
0
 10
0.889252
 20
2.44319
 11
0.931747
 21
2.42731
  0
LINE
  8
0
 10
0.931747
 20
2.42731
 11
0.973969
 21
2.41068
  0
LINE
  8
0
 10
0.973969
 20
2.41068
 11
1.0159
 21
2.39331
  0
LINE
  8
0
 10
1.0159
 20
2.39331
 11
1.05751
 21
2.37521
  0
LINE
  8
0
 10
1.05751
 20
2.37521
 11
1.0988
 21
2.3564
  0
LINE
  8
0
 10
1.0988
 20
2.3564
 11
1.13976
 21
2.33685
  0
LINE
  8
0
 10
1.13976
 20
2.33685
 11
1.18037
 21
2.3166
  0
LINE
  8
0
 10
1.18037
 20
2.3166
 11
1.22061
 21
2.29565
  0
LINE
  8
0
 10
1.22061
 20
2.29565
 11
1.2605
 21
2.274
  0
LINE
  8
0
 10
1.2605
 20
2.274
 11
1.29999
 21
2.25166
  0
LINE
  8
0
 10
1.29999
 20
2.25166
 11
1.3391
 21
2.22862
  0
LINE
  8
0
 10
1.3391
 20
2.22862
 11
1.37778
 21
2.20491
  0
LINE
  8
0
 10
1.37778
 20
2.20491
 11
1.41606
 21
2.18054
  0
LINE
  8
0
 10
1.41606
 20
2.18054
 11
1.45389
 21
2.15549
  0
LINE
  8
0
 10
1.45389
 20
2.15549
 11
1.49129
 21
2.12979
  0
LINE
  8
0
 10
1.49129
 20
2.12979
 11
1.52823
 21
2.10344
  0
LINE
  8
0
 10
1.52823
 20
2.10344
 11
1.56471
 21
2.07645
  0
LINE
  8
0
 10
1.56471
 20
2.07645
 11
1.60071
 21
2.04881
  0
LINE
  8
0
 10
1.60071
 20
2.04881
 11
1.63623
 21
2.02057
  0
LINE
  8
0
 10
1.63623
 20
2.02057
 11
1.67123
 21
1.99171
  0
LINE
  8
0
 10
1.67123
 20
1.99171
 11
1.70575
 21
1.96223
  0
LINE
  8
0
 10
1.70575
 20
1.96223
 11
1.73973
 21
1.93217
  0
LINE
  8
0
 10
1.73973
 20
1.93217
 11
1.77319
 21
1.9015
  0
LINE
  8
0
 10
1.77319
 20
1.9015
 11
1.80611
 21
1.87027
  0
LINE
  8
0
 10
1.80611
 20
1.87027
 11
1.83847
 21
1.83847
  0
LINE
  8
0
 10
1.83847
 20
1.83847
 11
1.87027
 21
1.80611
  0
LINE
  8
0
 10
1.87027
 20
1.80611
 11
1.9015
 21
1.77319
  0
LINE
  8
0
 10
1.9015
 20
1.77319
 11
1.93217
 21
1.73973
  0
LINE
  8
0
 10
1.93217
 20
1.73973
 11
1.96223
 21
1.70575
  0
LINE
  8
0
 10
1.96223
 20
1.70575
 11
1.99171
 21
1.67123
  0
LINE
  8
0
 10
1.99171
 20
1.67123
 11
2.02057
 21
1.63623
  0
LINE
  8
0
 10
2.02057
 20
1.63623
 11
2.04881
 21
1.60071
  0
LINE
  8
0
 10
2.04881
 20
1.60071
 11
2.07645
 21
1.56471
  0
LINE
  8
0
 10
2.07645
 20
1.56471
 11
2.10344
 21
1.52823
  0
LINE
  8
0
 10
2.10344
 20
1.52823
 11
2.12979
 21
1.49129
  0
LINE
  8
0
 10
2.12979
 20
1.49129
 11
2.15549
 21
1.45389
  0
LINE
  8
0
 10
2.15549
 20
1.45389
 11
2.18054
 21
1.41606
  0
LINE
  8
0
 10
2.18054
 20
1.41606
 11
2.20491
 21
1.37778
  0
LINE
  8
0
 10
2.20491
 20
1.37778
 11
2.22862
 21
1.3391
  0
LINE
  8
0
 10
2.22862
 20
1.3391
 11
2.25166
 21
1.29999
  0
LINE
  8
0
 10
2.25166
 20
1.29999
 11
2.274
 21
1.2605
  0
LINE
  8
0
 10
2.274
 20
1.2605
 11
2.29565
 21
1.22061
  0
LINE
  8
0
 10
2.29565
 20
1.22061
 11
2.3166
 21
1.18037
  0
LINE
  8
0
 10
2.3166
 20
1.18037
 11
2.33685
 21
1.13976
  0
LINE
  8
0
 10
2.33685
 20
1.13976
 11
2.3564
 21
1.0988
  0
LINE
  8
0
 10
2.3564
 20
1.0988
 11
2.37521
 21
1.05751
  0
LINE
  8
0
 10
2.37521
 20
1.05751
 11
2.39331
 21
1.0159
  0
LINE
  8
0
 10
2.39331
 20
1.0159
 11
2.41068
 21
0.973969
  0
LINE
  8
0
 10
2.41068
 20
0.973969
 11
2.42731
 21
0.931747
  0
LINE
  8
0
 10
2.42731
 20
0.931747
 11
2.44319
 21
0.889252
  0
LINE
  8
0
 10
2.44319
 20
0.889252
 11
2.45834
 21
0.846466
  0
LINE
  8
0
 10
2.45834
 20
0.846466
 11
2.47273
 21
0.803436
  0
LINE
  8
0
 10
2.47273
 20
0.803436
 11
2.48639
 21
0.760162
  0
LINE
  8
0
 10
2.48639
 20
0.760162
 11
2.49927
 21
0.716644
  0
LINE
  8
0
 10
2.49927
 20
0.716644
 11
2.5114
 21
0.672928
  0
LINE
  8
0
 10
2.5114
 20
0.672928
 11
2.52277
 21
0.628983
  0
LINE
  8
0
 10
2.52277
 20
0.628983
 11
2.53336
 21
0.584869
  0
LINE
  8
0
 10
2.53336
 20
0.584869
 11
2.54318
 21
0.540558
  0
LINE
  8
0
 10
2.54318
 20
0.540558
 11
2.55222
 21
0.496094
  0
LINE
  8
0
 10
2.55222
 20
0.496094
 11
2.56049
 21
0.451477
  0
LINE
  8
0
 10
2.56049
 20
0.451477
 11
2.56798
 21
0.406723
  0
LINE
  8
0
 10
2.56798
 20
0.406723
 11
2.57469
 21
0.361847
  0
LINE
  8
0
 10
2.57469
 20
0.361847
 11
2.58061
 21
0.316849
  0
LINE
  8
0
 10
2.58061
 20
0.316849
 11
2.58575
 21
0.271759
  0
LINE
  8
0
 10
2.58575
 20
0.271759
 11
2.5901
 21
0.226593
  0
LINE
  8
0
 10
2.5901
 20
0.226593
 11
2.59366
 21
0.181366
  0
LINE
  8
0
 10
2.59366
 20
0.181366
 11
2.59644
 21
0.136063
  0
LINE
  8
0
 10
2.59644
 20
0.136063
 11
2.5984
 21
0.0907288
  0
LINE
  8
0
 10
2.5984
 20
0.0907288
 11
2.59959
 21
0.0453644
  0
LINE
  8
0
 10
2.59959
 20
0.0453644
 11
2.59999
 21
0
  0
LINE
  8
0
 10
2.59999
 20
0
 11
2.59959
 21
-0.0453644
  0
LINE
  8
0
 10
2.59959
 20
-0.0453644
 11
2.5984
 21
-0.0907288
  0
LINE
  8
0
 10
2.5984
 20
-0.0907288
 11
2.59644
 21
-0.136063
  0
LINE
  8
0
 10
2.59644
 20
-0.136063
 11
2.59366
 21
-0.181366
  0
LINE
  8
0
 10
2.59366
 20
-0.181366
 11
2.5901
 21
-0.226593
  0
LINE
  8
0
 10
2.5901
 20
-0.226593
 11
2.58575
 21
-0.271759
  0
LINE
  8
0
 10
2.58575
 20
-0.271759
 11
2.58061
 21
-0.316849
  0
LINE
  8
0
 10
2.58061
 20
-0.316849
 11
2.57469
 21
-0.361847
  0
LINE
  8
0
 10
2.57469
 20
-0.361847
 11
2.56798
 21
-0.406723
  0
LINE
  8
0
 10
2.56798
 20
-0.406723
 11
2.56049
 21
-0.451477
  0
LINE
  8
0
 10
2.56049
 20
-0.451477
 11
2.55222
 21
-0.496094
  0
LINE
  8
0
 10
2.55222
 20
-0.496094
 11
2.54318
 21
-0.540558
  0
LINE
  8
0
 10
2.54318
 20
-0.540558
 11
2.53336
 21
-0.584869
  0
LINE
  8
0
 10
2.53336
 20
-0.584869
 11
2.52277
 21
-0.628983
  0
LINE
  8
0
 10
2.52277
 20
-0.628983
 11
2.5114
 21
-0.672928
  0
LINE
  8
0
 10
2.5114
 20
-0.672928
 11
2.49927
 21
-0.716644
  0
LINE
  8
0
 10
2.49927
 20
-0.716644
 11
2.48639
 21
-0.760162
  0
LINE
  8
0
 10
2.48639
 20
-0.760162
 11
2.47273
 21
-0.803436
  0
LINE
  8
0
 10
2.47273
 20
-0.803436
 11
2.45834
 21
-0.846466
  0
LINE
  8
0
 10
2.45834
 20
-0.846466
 11
2.44319
 21
-0.889252
  0
LINE
  8
0
 10
2.44319
 20
-0.889252
 11
2.42731
 21
-0.931747
  0
LINE
  8
0
 10
2.42731
 20
-0.931747
 11
2.41068
 21
-0.973969
  0
LINE
  8
0
 10
2.41068
 20
-0.973969
 11
2.39331
 21
-1.0159
  0
LINE
  8
0
 10
2.39331
 20
-1.0159
 11
2.37521
 21
-1.05751
  0
LINE
  8
0
 10
2.37521
 20
-1.05751
 11
2.3564
 21
-1.0988
  0
LINE
  8
0
 10
2.3564
 20
-1.0988
 11
2.33685
 21
-1.13976
  0
LINE
  8
0
 10
2.33685
 20
-1.13976
 11
2.3166
 21
-1.18037
  0
LINE
  8
0
 10
2.3166
 20
-1.18037
 11
2.29565
 21
-1.22061
  0
LINE
  8
0
 10
2.29565
 20
-1.22061
 11
2.274
 21
-1.2605
  0
LINE
  8
0
 10
2.274
 20
-1.2605
 11
2.25166
 21
-1.29999
  0
LINE
  8
0
 10
2.25166
 20
-1.29999
 11
2.22862
 21
-1.3391
  0
LINE
  8
0
 10
2.22862
 20
-1.3391
 11
2.20491
 21
-1.37778
  0
LINE
  8
0
 10
2.20491
 20
-1.37778
 11
2.18054
 21
-1.41606
  0
LINE
  8
0
 10
2.18054
 20
-1.41606
 11
2.15549
 21
-1.45389
  0
LINE
  8
0
 10
2.15549
 20
-1.45389
 11
2.12979
 21
-1.49129
  0
LINE
  8
0
 10
2.12979
 20
-1.49129
 11
2.10344
 21
-1.52823
  0
LINE
  8
0
 10
2.10344
 20
-1.52823
 11
2.07645
 21
-1.56471
  0
LINE
  8
0
 10
2.07645
 20
-1.56471
 11
2.04881
 21
-1.60071
  0
LINE
  8
0
 10
2.04881
 20
-1.60071
 11
2.02057
 21
-1.63623
  0
LINE
  8
0
 10
2.02057
 20
-1.63623
 11
1.99171
 21
-1.67123
  0
LINE
  8
0
 10
1.99171
 20
-1.67123
 11
1.96223
 21
-1.70575
  0
LINE
  8
0
 10
1.96223
 20
-1.70575
 11
1.93217
 21
-1.73973
  0
LINE
  8
0
 10
1.93217
 20
-1.73973
 11
1.9015
 21
-1.77319
  0
LINE
  8
0
 10
1.9015
 20
-1.77319
 11
1.87027
 21
-1.80611
  0
LINE
  8
0
 10
1.87027
 20
-1.80611
 11
1.83847
 21
-1.83847
  0
LINE
  8
0
 10
1.83847
 20
-1.83847
 11
1.80611
 21
-1.87027
  0
LINE
  8
0
 10
1.80611
 20
-1.87027
 11
1.77319
 21
-1.9015
  0
LINE
  8
0
 10
1.77319
 20
-1.9015
 11
1.73973
 21
-1.93217
  0
LINE
  8
0
 10
1.73973
 20
-1.93217
 11
1.70575
 21
-1.96223
  0
LINE
  8
0
 10
1.70575
 20
-1.96223
 11
1.67123
 21
-1.99171
  0
LINE
  8
0
 10
1.67123
 20
-1.99171
 11
1.63623
 21
-2.02057
  0
LINE
  8
0
 10
1.63623
 20
-2.02057
 11
1.60071
 21
-2.04881
  0
LINE
  8
0
 10
1.60071
 20
-2.04881
 11
1.56471
 21
-2.07645
  0
LINE
  8
0
 10
1.56471
 20
-2.07645
 11
1.52823
 21
-2.10344
  0
LINE
  8
0
 10
1.52823
 20
-2.10344
 11
1.49129
 21
-2.12979
  0
LINE
  8
0
 10
1.49129
 20
-2.12979
 11
1.45389
 21
-2.15549
  0
LINE
  8
0
 10
1.45389
 20
-2.15549
 11
1.41606
 21
-2.18054
  0
LINE
  8
0
 10
1.41606
 20
-2.18054
 11
1.37778
 21
-2.20491
  0
LINE
  8
0
 10
1.37778
 20
-2.20491
 11
1.3391
 21
-2.22862
  0
LINE
  8
0
 10
1.3391
 20
-2.22862
 11
1.29999
 21
-2.25166
  0
LINE
  8
0
 10
1.29999
 20
-2.25166
 11
1.2605
 21
-2.274
  0
LINE
  8
0
 10
1.2605
 20
-2.274
 11
1.22061
 21
-2.29565
  0
LINE
  8
0
 10
1.22061
 20
-2.29565
 11
1.18037
 21
-2.3166
  0
LINE
  8
0
 10
1.18037
 20
-2.3166
 11
1.13976
 21
-2.33685
  0
LINE
  8
0
 10
1.13976
 20
-2.33685
 11
1.0988
 21
-2.3564
  0
LINE
  8
0
 10
1.0988
 20
-2.3564
 11
1.05751
 21
-2.37521
  0
LINE
  8
0
 10
1.05751
 20
-2.37521
 11
1.0159
 21
-2.39331
  0
LINE
  8
0
 10
1.0159
 20
-2.39331
 11
0.973969
 21
-2.41068
  0
LINE
  8
0
 10
0.973969
 20
-2.41068
 11
0.931747
 21
-2.42731
  0
LINE
  8
0
 10
0.931747
 20
-2.42731
 11
0.889252
 21
-2.44319
  0
LINE
  8
0
 10
0.889252
 20
-2.44319
 11
0.846466
 21
-2.45834
  0
LINE
  8
0
 10
0.846466
 20
-2.45834
 11
0.803436
 21
-2.47273
  0
LINE
  8
0
 10
0.803436
 20
-2.47273
 11
0.760162
 21
-2.48639
  0
LINE
  8
0
 10
0.760162
 20
-2.48639
 11
0.716644
 21
-2.49927
  0
LINE
  8
0
 10
0.716644
 20
-2.49927
 11
0.672928
 21
-2.5114
  0
LINE
  8
0
 10
0.672928
 20
-2.5114
 11
0.628983
 21
-2.52277
  0
LINE
  8
0
 10
0.628983
 20
-2.52277
 11
0.584869
 21
-2.53336
  0
LINE
  8
0
 10
0.584869
 20
-2.53336
 11
0.540558
 21
-2.54318
  0
LINE
  8
0
 10
0.540558
 20
-2.54318
 11
0.496094
 21
-2.55222
  0
LINE
  8
0
 10
0.496094
 20
-2.55222
 11
0.451477
 21
-2.56049
  0
LINE
  8
0
 10
0.451477
 20
-2.56049
 11
0.406723
 21
-2.56798
  0
LINE
  8
0
 10
0.406723
 20
-2.56798
 11
0.361847
 21
-2.57469
  0
LINE
  8
0
 10
0.361847
 20
-2.57469
 11
0.316849
 21
-2.58061
  0
LINE
  8
0
 10
0.316849
 20
-2.58061
 11
0.271759
 21
-2.58575
  0
LINE
  8
0
 10
0.271759
 20
-2.58575
 11
0.226593
 21
-2.5901
  0
LINE
  8
0
 10
0.226593
 20
-2.5901
 11
0.181366
 21
-2.59366
  0
LINE
  8
0
 10
0.181366
 20
-2.59366
 11
0.136063
 21
-2.59644
  0
LINE
  8
0
 10
0.136063
 20
-2.59644
 11
0.0907288
 21
-2.5984
  0
LINE
  8
0
 10
0.0907288
 20
-2.5984
 11
0.0453644
 21
-2.59959
  0
LINE
  8
0
 10
0.0453644
 20
-2.59959
 11
0
 21
-2.59999
  0
LINE
  8
0
 10
0
 20
-2.59999
 11
-0.0453644
 21
-2.59959
  0
ENDSEC
  0
SECTION
  2
OBJECTS
  0
DICTIONARY
  0
ENDSEC
  0
EOF
