  0
SECTION
  2
BLOCKS
  0
ENDSEC
  0
SECTION
  2
ENTITIES
  0
LINE
  8
0
 10
1.83075
 20
-104.884
 11
3.66095
 21
-104.836
  0
LINE
  8
0
 10
3.66095
 20
-104.836
 11
5.49004
 21
-104.756
  0
LINE
  8
0
 10
5.49004
 20
-104.756
 11
7.31744
 21
-104.644
  0
LINE
  8
0
 10
7.31744
 20
-104.644
 11
9.14262
 21
-104.501
  0
LINE
  8
0
 10
9.14262
 20
-104.501
 11
10.965
 21
-104.325
  0
LINE
  8
0
 10
10.965
 20
-104.325
 11
12.7841
 21
-104.118
  0
LINE
  8
0
 10
12.7841
 20
-104.118
 11
14.5992
 21
-103.879
  0
LINE
  8
0
 10
14.5992
 20
-103.879
 11
16.41
 21
-103.609
  0
LINE
  8
0
 10
16.41
 20
-103.609
 11
18.2157
 21
-103.306
  0
LINE
  8
0
 10
18.2157
 20
-103.306
 11
20.0159
 21
-102.973
  0
LINE
  8
0
 10
20.0159
 20
-102.973
 11
21.8099
 21
-102.608
  0
LINE
  8
0
 10
21.8099
 20
-102.608
 11
23.5974
 21
-102.211
  0
LINE
  8
0
 10
23.5974
 20
-102.211
 11
25.3776
 21
-101.784
  0
LINE
  8
0
 10
25.3776
 20
-101.784
 11
27.1501
 21
-101.326
  0
LINE
  8
0
 10
27.1501
 20
-101.326
 11
28.9144
 21
-100.836
  0
LINE
  8
0
 10
28.9144
 20
-100.836
 11
30.6698
 21
-100.316
  0
LINE
  8
0
 10
30.6698
 20
-100.316
 11
32.4159
 21
-99.7658
  0
LINE
  8
0
 10
32.4159
 20
-99.7658
 11
34.1521
 21
-99.1849
  0
LINE
  8
0
 10
34.1521
 20
-99.1849
 11
35.8779
 21
-98.5737
  0
LINE
  8
0
 10
35.8779
 20
-98.5737
 11
37.5928
 21
-97.9326
  0
LINE
  8
0
 10
37.5928
 20
-97.9326
 11
39.2962
 21
-97.2616
  0
LINE
  8
0
 10
39.2962
 20
-97.2616
 11
40.9877
 21
-96.561
  0
LINE
  8
0
 10
40.9877
 20
-96.561
 11
42.6667
 21
-95.8309
  0
LINE
  8
0
 10
42.6667
 20
-95.8309
 11
44.3326
 21
-95.0717
  0
LINE
  8
0
 10
44.3326
 20
-95.0717
 11
45.9851
 21
-94.2835
  0
LINE
  8
0
 10
45.9851
 20
-94.2835
 11
47.6236
 21
-93.4666
  0
LINE
  8
0
 10
47.6236
 20
-93.4666
 11
49.2476
 21
-92.6212
  0
LINE
  8
0
 10
49.2476
 20
-92.6212
 11
50.8565
 21
-91.7476
  0
LINE
  8
0
 10
50.8565
 20
-91.7476
 11
52.45
 21
-90.8461
  0
LINE
  8
0
 10
52.45
 20
-90.8461
 11
54.0275
 21
-89.9168
  0
LINE
  8
0
 10
54.0275
 20
-89.9168
 11
55.5885
 21
-88.9602
  0
LINE
  8
0
 10
55.5885
 20
-88.9602
 11
57.1326
 21
-87.9765
  0
LINE
  8
0
 10
57.1326
 20
-87.9765
 11
58.6593
 21
-86.966
  0
LINE
  8
0
 10
58.6593
 20
-86.966
 11
60.1682
 21
-85.929
  0
LINE
  8
0
 10
60.1682
 20
-85.929
 11
61.6587
 21
-84.8659
  0
LINE
  8
0
 10
61.6587
 20
-84.8659
 11
63.1304
 21
-83.7769
  0
LINE
  8
0
 10
63.1304
 20
-83.7769
 11
64.5829
 21
-82.6623
  0
LINE
  8
0
 10
64.5829
 20
-82.6623
 11
66.0157
 21
-81.5226
  0
LINE
  8
0
 10
66.0157
 20
-81.5226
 11
67.4284
 21
-80.358
  0
LINE
  8
0
 10
67.4284
 20
-80.358
 11
68.8206
 21
-79.169
  0
LINE
  8
0
 10
68.8206
 20
-79.169
 11
70.1918
 21
-77.9559
  0
LINE
  8
0
 10
70.1918
 20
-77.9559
 11
71.5416
 21
-76.719
  0
LINE
  8
0
 10
71.5416
 20
-76.719
 11
72.8697
 21
-75.4587
  0
LINE
  8
0
 10
72.8697
 20
-75.4587
 11
74.1755
 21
-74.1755
  0
LINE
  8
0
 10
74.1755
 20
-74.1755
 11
75.4587
 21
-72.8697
  0
LINE
  8
0
 10
75.4587
 20
-72.8697
 11
76.719
 21
-71.5416
  0
LINE
  8
0
 10
76.719
 20
-71.5416
 11
77.9559
 21
-70.1918
  0
LINE
  8
0
 10
77.9559
 20
-70.1918
 11
79.169
 21
-68.8206
  0
LINE
  8
0
 10
79.169
 20
-68.8206
 11
80.358
 21
-67.4284
  0
LINE
  8
0
 10
80.358
 20
-67.4284
 11
81.5226
 21
-66.0157
  0
LINE
  8
0
 10
81.5226
 20
-66.0157
 11
82.6623
 21
-64.5829
  0
LINE
  8
0
 10
82.6623
 20
-64.5829
 11
83.7769
 21
-63.1304
  0
LINE
  8
0
 10
83.7769
 20
-63.1304
 11
84.8659
 21
-61.6587
  0
LINE
  8
0
 10
84.8659
 20
-61.6587
 11
85.929
 21
-60.1682
  0
LINE
  8
0
 10
85.929
 20
-60.1682
 11
86.966
 21
-58.6593
  0
LINE
  8
0
 10
86.966
 20
-58.6593
 11
87.9765
 21
-57.1326
  0
LINE
  8
0
 10
87.9765
 20
-57.1326
 11
88.9602
 21
-55.5885
  0
LINE
  8
0
 10
88.9602
 20
-55.5885
 11
89.2554
 21
-55.1069
  0
LINE
  8
0
 10
89.2554
 20
-55.1069
 11
89.2443
 21
-55.0999
  0
LINE
  8
0
 10
89.2443
 20
-55.0999
 11
89.1992
 21
-55.07
  0
LINE
  8
0
 10
89.1992
 20
-55.07
 11
89.1546
 21
-55.0394
  0
LINE
  8
0
 10
89.1546
 20
-55.0394
 11
89.1105
 21
-55.0079
  0
LINE
  8
0
 10
89.1105
 20
-55.0079
 11
89.067
 21
-54.9758
  0
LINE
  8
0
 10
89.067
 20
-54.9758
 11
89.0241
 21
-54.9428
  0
LINE
  8
0
 10
89.0241
 20
-54.9428
 11
88.9818
 21
-54.9091
  0
LINE
  8
0
 10
88.9818
 20
-54.9091
 11
88.94
 21
-54.8747
  0
LINE
  8
0
 10
88.94
 20
-54.8747
 11
88.8989
 21
-54.8396
  0
LINE
  8
0
 10
88.8989
 20
-54.8396
 11
88.8584
 21
-54.8037
  0
LINE
  8
0
 10
88.8584
 20
-54.8037
 11
88.8185
 21
-54.7672
  0
LINE
  8
0
 10
88.8185
 20
-54.7672
 11
88.7792
 21
-54.7299
  0
LINE
  8
0
 10
88.7792
 20
-54.7299
 11
88.7406
 21
-54.692
  0
LINE
  8
0
 10
88.7406
 20
-54.692
 11
88.7027
 21
-54.6534
  0
LINE
  8
0
 10
88.7027
 20
-54.6534
 11
88.6655
 21
-54.6142
  0
LINE
  8
0
 10
88.6655
 20
-54.6142
 11
88.6289
 21
-54.5743
  0
LINE
  8
0
 10
88.6289
 20
-54.5743
 11
88.5931
 21
-54.5338
  0
LINE
  8
0
 10
88.5931
 20
-54.5338
 11
88.5579
 21
-54.4926
  0
LINE
  8
0
 10
88.5579
 20
-54.4926
 11
88.5235
 21
-54.4509
  0
LINE
  8
0
 10
88.5235
 20
-54.4509
 11
88.4898
 21
-54.4085
  0
LINE
  8
0
 10
88.4898
 20
-54.4085
 11
88.4569
 21
-54.3656
  0
LINE
  8
0
 10
88.4569
 20
-54.3656
 11
88.4247
 21
-54.3221
  0
LINE
  8
0
 10
88.4247
 20
-54.3221
 11
88.3933
 21
-54.2781
  0
LINE
  8
0
 10
88.3933
 20
-54.2781
 11
88.3626
 21
-54.2335
  0
LINE
  8
0
 10
88.3626
 20
-54.2335
 11
88.3328
 21
-54.1884
  0
LINE
  8
0
 10
88.3328
 20
-54.1884
 11
88.3037
 21
-54.1427
  0
LINE
  8
0
 10
88.3037
 20
-54.1427
 11
88.2754
 21
-54.0966
  0
LINE
  8
0
 10
88.2754
 20
-54.0966
 11
88.248
 21
-54.05
  0
LINE
  8
0
 10
88.248
 20
-54.05
 11
88.2213
 21
-54.0029
  0
LINE
  8
0
 10
88.2213
 20
-54.0029
 11
88.1955
 21
-53.9554
  0
LINE
  8
0
 10
88.1955
 20
-53.9554
 11
88.1705
 21
-53.9074
  0
LINE
  8
0
 10
88.1705
 20
-53.9074
 11
88.1464
 21
-53.8589
  0
LINE
  8
0
 10
88.1464
 20
-53.8589
 11
88.1231
 21
-53.8101
  0
LINE
  8
0
 10
88.1231
 20
-53.8101
 11
88.1007
 21
-53.7609
  0
LINE
  8
0
 10
88.1007
 20
-53.7609
 11
88.0791
 21
-53.7113
  0
LINE
  8
0
 10
88.0791
 20
-53.7113
 11
88.0584
 21
-53.6613
  0
LINE
  8
0
 10
88.0584
 20
-53.6613
 11
88.0386
 21
-53.6109
  0
LINE
  8
0
 10
88.0386
 20
-53.6109
 11
88.0196
 21
-53.5603
  0
LINE
  8
0
 10
88.0196
 20
-53.5603
 11
88.0016
 21
-53.5092
  0
LINE
  8
0
 10
88.0016
 20
-53.5092
 11
87.9844
 21
-53.4579
  0
LINE
  8
0
 10
87.9844
 20
-53.4579
 11
87.9681
 21
-53.4063
  0
LINE
  8
0
 10
87.9681
 20
-53.4063
 11
87.9527
 21
-53.3545
  0
LINE
  8
0
 10
87.9527
 20
-53.3545
 11
87.9383
 21
-53.3023
  0
LINE
  8
0
 10
87.9383
 20
-53.3023
 11
87.9247
 21
-53.25
  0
LINE
  8
0
 10
87.9247
 20
-53.25
 11
87.9121
 21
-53.1973
  0
LINE
  8
0
 10
87.9121
 20
-53.1973
 11
87.9004
 21
-53.1445
  0
LINE
  8
0
 10
87.9004
 20
-53.1445
 11
87.8896
 21
-53.0915
  0
LINE
  8
0
 10
87.8896
 20
-53.0915
 11
87.8798
 21
-53.0383
  0
LINE
  8
0
 10
87.8798
 20
-53.0383
 11
87.8708
 21
-52.9849
  0
LINE
  8
0
 10
87.8708
 20
-52.9849
 11
87.8628
 21
-52.9314
  0
LINE
  8
0
 10
87.8628
 20
-52.9314
 11
87.8558
 21
-52.8778
  0
LINE
  8
0
 10
87.8558
 20
-52.8778
 11
87.8496
 21
-52.824
  0
LINE
  8
0
 10
87.8496
 20
-52.824
 11
87.8445
 21
-52.7702
  0
LINE
  8
0
 10
87.8445
 20
-52.7702
 11
87.8402
 21
-52.7162
  0
LINE
  8
0
 10
87.8402
 20
-52.7162
 11
87.8369
 21
-52.6622
  0
LINE
  8
0
 10
87.8369
 20
-52.6622
 11
87.8345
 21
-52.6082
  0
LINE
  8
0
 10
87.8345
 20
-52.6082
 11
87.8331
 21
-52.5541
  0
LINE
  8
0
 10
87.8331
 20
-52.5541
 11
87.8327
 21
-52.5
  0
LINE
  8
0
 10
87.8327
 20
-52.5
 11
87.8331
 21
-52.4459
  0
LINE
  8
0
 10
87.8331
 20
-52.4459
 11
87.8345
 21
-52.3918
  0
LINE
  8
0
 10
87.8345
 20
-52.3918
 11
87.8369
 21
-52.3378
  0
LINE
  8
0
 10
87.8369
 20
-52.3378
 11
87.8402
 21
-52.2838
  0
LINE
  8
0
 10
87.8402
 20
-52.2838
 11
87.8445
 21
-52.2298
  0
LINE
  8
0
 10
87.8445
 20
-52.2298
 11
87.8496
 21
-52.1759
  0
LINE
  8
0
 10
87.8496
 20
-52.1759
 11
87.8558
 21
-52.1222
  0
LINE
  8
0
 10
87.8558
 20
-52.1222
 11
87.8628
 21
-52.0686
  0
LINE
  8
0
 10
87.8628
 20
-52.0686
 11
87.8708
 21
-52.015
  0
LINE
  8
0
 10
87.8708
 20
-52.015
 11
87.8798
 21
-51.9617
  0
LINE
  8
0
 10
87.8798
 20
-51.9617
 11
87.8896
 21
-51.9085
  0
LINE
  8
0
 10
87.8896
 20
-51.9085
 11
87.9004
 21
-51.8555
  0
LINE
  8
0
 10
87.9004
 20
-51.8555
 11
87.9121
 21
-51.8026
  0
LINE
  8
0
 10
87.9121
 20
-51.8026
 11
87.9247
 21
-51.75
  0
LINE
  8
0
 10
87.9247
 20
-51.75
 11
87.9383
 21
-51.6976
  0
LINE
  8
0
 10
87.9383
 20
-51.6976
 11
87.9527
 21
-51.6455
  0
LINE
  8
0
 10
87.9527
 20
-51.6455
 11
87.9681
 21
-51.5936
  0
LINE
  8
0
 10
87.9681
 20
-51.5936
 11
87.9844
 21
-51.542
  0
LINE
  8
0
 10
87.9844
 20
-51.542
 11
88.0016
 21
-51.4907
  0
LINE
  8
0
 10
88.0016
 20
-51.4907
 11
88.0196
 21
-51.4397
  0
LINE
  8
0
 10
88.0196
 20
-51.4397
 11
88.0386
 21
-51.3891
  0
LINE
  8
0
 10
88.0386
 20
-51.3891
 11
88.0584
 21
-51.3387
  0
LINE
  8
0
 10
88.0584
 20
-51.3387
 11
88.0791
 21
-51.2887
  0
LINE
  8
0
 10
88.0791
 20
-51.2887
 11
88.1007
 21
-51.2391
  0
LINE
  8
0
 10
88.1007
 20
-51.2391
 11
88.1231
 21
-51.1899
  0
LINE
  8
0
 10
88.1231
 20
-51.1899
 11
88.1464
 21
-51.141
  0
LINE
  8
0
 10
88.1464
 20
-51.141
 11
88.1705
 21
-51.0926
  0
LINE
  8
0
 10
88.1705
 20
-51.0926
 11
88.1955
 21
-51.0446
  0
LINE
  8
0
 10
88.1955
 20
-51.0446
 11
88.2213
 21
-50.9971
  0
LINE
  8
0
 10
88.2213
 20
-50.9971
 11
88.248
 21
-50.95
  0
LINE
  8
0
 10
88.248
 20
-50.95
 11
88.2754
 21
-50.9034
  0
LINE
  8
0
 10
88.2754
 20
-50.9034
 11
88.3037
 21
-50.8572
  0
LINE
  8
0
 10
88.3037
 20
-50.8572
 11
88.3328
 21
-50.8116
  0
LINE
  8
0
 10
88.3328
 20
-50.8116
 11
88.3626
 21
-50.7665
  0
LINE
  8
0
 10
88.3626
 20
-50.7665
 11
88.3933
 21
-50.7219
  0
LINE
  8
0
 10
88.3933
 20
-50.7219
 11
88.4247
 21
-50.6779
  0
LINE
  8
0
 10
88.4247
 20
-50.6779
 11
88.4569
 21
-50.6344
  0
LINE
  8
0
 10
88.4569
 20
-50.6344
 11
88.4898
 21
-50.5914
  0
LINE
  8
0
 10
88.4898
 20
-50.5914
 11
88.5235
 21
-50.5491
  0
LINE
  8
0
 10
88.5235
 20
-50.5491
 11
88.5579
 21
-50.5074
  0
LINE
  8
0
 10
88.5579
 20
-50.5074
 11
88.5931
 21
-50.4662
  0
LINE
  8
0
 10
88.5931
 20
-50.4662
 11
88.6289
 21
-50.4257
  0
LINE
  8
0
 10
88.6289
 20
-50.4257
 11
88.6655
 21
-50.3858
  0
LINE
  8
0
 10
88.6655
 20
-50.3858
 11
88.7027
 21
-50.3466
  0
LINE
  8
0
 10
88.7027
 20
-50.3466
 11
88.7406
 21
-50.308
  0
LINE
  8
0
 10
88.7406
 20
-50.308
 11
88.7792
 21
-50.27
  0
LINE
  8
0
 10
88.7792
 20
-50.27
 11
88.8185
 21
-50.2328
  0
LINE
  8
0
 10
88.8185
 20
-50.2328
 11
88.8584
 21
-50.1962
  0
LINE
  8
0
 10
88.8584
 20
-50.1962
 11
88.8989
 21
-50.1604
  0
LINE
  8
0
 10
88.8989
 20
-50.1604
 11
88.94
 21
-50.1253
  0
LINE
  8
0
 10
88.94
 20
-50.1253
 11
88.9818
 21
-50.0908
  0
LINE
  8
0
 10
88.9818
 20
-50.0908
 11
89.0241
 21
-50.0572
  0
LINE
  8
0
 10
89.0241
 20
-50.0572
 11
89.067
 21
-50.0242
  0
LINE
  8
0
 10
89.067
 20
-50.0242
 11
89.1105
 21
-49.992
  0
LINE
  8
0
 10
89.1105
 20
-49.992
 11
89.1546
 21
-49.9606
  0
LINE
  8
0
 10
89.1546
 20
-49.9606
 11
89.1992
 21
-49.93
  0
LINE
  8
0
 10
89.1992
 20
-49.93
 11
89.2443
 21
-49.9001
  0
LINE
  8
0
 10
89.2443
 20
-49.9001
 11
89.2899
 21
-49.871
  0
LINE
  8
0
 10
89.2899
 20
-49.871
 11
89.336
 21
-49.8428
  0
LINE
  8
0
 10
89.336
 20
-49.8428
 11
89.3827
 21
-49.8153
  0
LINE
  8
0
 10
89.3827
 20
-49.8153
 11
89.4297
 21
-49.7887
  0
LINE
  8
0
 10
89.4297
 20
-49.7887
 11
89.4773
 21
-49.7628
  0
LINE
  8
0
 10
89.4773
 20
-49.7628
 11
89.5253
 21
-49.7379
  0
LINE
  8
0
 10
89.5253
 20
-49.7379
 11
89.5737
 21
-49.7137
  0
LINE
  8
0
 10
89.5737
 20
-49.7137
 11
89.6225
 21
-49.6904
  0
LINE
  8
0
 10
89.6225
 20
-49.6904
 11
89.6718
 21
-49.668
  0
LINE
  8
0
 10
89.6718
 20
-49.668
 11
89.7214
 21
-49.6464
  0
LINE
  8
0
 10
89.7214
 20
-49.6464
 11
89.7714
 21
-49.6257
  0
LINE
  8
0
 10
89.7714
 20
-49.6257
 11
89.8217
 21
-49.6059
  0
LINE
  8
0
 10
89.8217
 20
-49.6059
 11
89.8724
 21
-49.5869
  0
LINE
  8
0
 10
89.8724
 20
-49.5869
 11
89.9234
 21
-49.5689
  0
LINE
  8
0
 10
89.9234
 20
-49.5689
 11
89.9747
 21
-49.5517
  0
LINE
  8
0
 10
89.9747
 20
-49.5517
 11
90.0263
 21
-49.5354
  0
LINE
  8
0
 10
90.0263
 20
-49.5354
 11
90.0782
 21
-49.5201
  0
LINE
  8
0
 10
90.0782
 20
-49.5201
 11
90.1303
 21
-49.5056
  0
LINE
  8
0
 10
90.1303
 20
-49.5056
 11
90.1827
 21
-49.4921
  0
LINE
  8
0
 10
90.1827
 20
-49.4921
 11
90.2353
 21
-49.4794
  0
LINE
  8
0
 10
90.2353
 20
-49.4794
 11
90.2881
 21
-49.4677
  0
LINE
  8
0
 10
90.2881
 20
-49.4677
 11
90.3412
 21
-49.457
  0
LINE
  8
0
 10
90.3412
 20
-49.457
 11
90.3943
 21
-49.4471
  0
LINE
  8
0
 10
90.3943
 20
-49.4471
 11
90.4477
 21
-49.4382
  0
LINE
  8
0
 10
90.4477
 20
-49.4382
 11
90.5012
 21
-49.4302
  0
LINE
  8
0
 10
90.5012
 20
-49.4302
 11
90.5549
 21
-49.4231
  0
LINE
  8
0
 10
90.5549
 20
-49.4231
 11
90.6086
 21
-49.417
  0
LINE
  8
0
 10
90.6086
 20
-49.417
 11
90.6625
 21
-49.4118
  0
LINE
  8
0
 10
90.6625
 20
-49.4118
 11
90.7164
 21
-49.4075
  0
LINE
  8
0
 10
90.7164
 20
-49.4075
 11
90.7704
 21
-49.4042
  0
LINE
  8
0
 10
90.7704
 20
-49.4042
 11
90.8245
 21
-49.4019
  0
LINE
  8
0
 10
90.8245
 20
-49.4019
 11
90.8786
 21
-49.4005
  0
LINE
  8
0
 10
90.8786
 20
-49.4005
 11
90.9327
 21
-49.4
  0
LINE
  8
0
 10
90.9327
 20
-49.4
 11
90.9868
 21
-49.4005
  0
LINE
  8
0
 10
90.9868
 20
-49.4005
 11
91.0408
 21
-49.4019
  0
LINE
  8
0
 10
91.0408
 20
-49.4019
 11
91.0949
 21
-49.4042
  0
LINE
  8
0
 10
91.0949
 20
-49.4042
 11
91.1489
 21
-49.4075
  0
LINE
  8
0
 10
91.1489
 20
-49.4075
 11
91.2028
 21
-49.4118
  0
LINE
  8
0
 10
91.2028
 20
-49.4118
 11
91.2567
 21
-49.417
  0
LINE
  8
0
 10
91.2567
 20
-49.417
 11
91.3105
 21
-49.4231
  0
LINE
  8
0
 10
91.3105
 20
-49.4231
 11
91.3641
 21
-49.4302
  0
LINE
  8
0
 10
91.3641
 20
-49.4302
 11
91.4176
 21
-49.4382
  0
LINE
  8
0
 10
91.4176
 20
-49.4382
 11
91.471
 21
-49.4471
  0
LINE
  8
0
 10
91.471
 20
-49.4471
 11
91.5242
 21
-49.457
  0
LINE
  8
0
 10
91.5242
 20
-49.457
 11
91.5772
 21
-49.4677
  0
LINE
  8
0
 10
91.5772
 20
-49.4677
 11
91.63
 21
-49.4794
  0
LINE
  8
0
 10
91.63
 20
-49.4794
 11
91.6826
 21
-49.4921
  0
LINE
  8
0
 10
91.6826
 20
-49.4921
 11
91.735
 21
-49.5056
  0
LINE
  8
0
 10
91.735
 20
-49.5056
 11
91.7871
 21
-49.5201
  0
LINE
  8
0
 10
91.7871
 20
-49.5201
 11
91.839
 21
-49.5354
  0
LINE
  8
0
 10
91.839
 20
-49.5354
 11
91.8906
 21
-49.5517
  0
LINE
  8
0
 10
91.8906
 20
-49.5517
 11
91.9419
 21
-49.5689
  0
LINE
  8
0
 10
91.9419
 20
-49.5689
 11
91.9929
 21
-49.5869
  0
LINE
  8
0
 10
91.9929
 20
-49.5869
 11
92.0436
 21
-49.6059
  0
LINE
  8
0
 10
92.0436
 20
-49.6059
 11
92.0939
 21
-49.6257
  0
LINE
  8
0
 10
92.0939
 20
-49.6257
 11
92.1439
 21
-49.6464
  0
LINE
  8
0
 10
92.1439
 20
-49.6464
 11
92.1935
 21
-49.668
  0
LINE
  8
0
 10
92.1935
 20
-49.668
 11
92.2428
 21
-49.6904
  0
LINE
  8
0
 10
92.2428
 20
-49.6904
 11
92.2916
 21
-49.7137
  0
LINE
  8
0
 10
92.2916
 20
-49.7137
 11
92.34
 21
-49.7379
  0
LINE
  8
0
 10
92.34
 20
-49.7379
 11
92.3517
 21
-49.7439
  0
LINE
  8
0
 10
92.3517
 20
-49.7439
 11
92.6212
 21
-49.2476
  0
LINE
  8
0
 10
92.6212
 20
-49.2476
 11
93.4666
 21
-47.6236
  0
LINE
  8
0
 10
93.4666
 20
-47.6236
 11
94.2835
 21
-45.9851
  0
LINE
  8
0
 10
94.2835
 20
-45.9851
 11
95.0717
 21
-44.3326
  0
LINE
  8
0
 10
95.0717
 20
-44.3326
 11
95.8309
 21
-42.6667
  0
LINE
  8
0
 10
95.8309
 20
-42.6667
 11
96.561
 21
-40.9877
  0
LINE
  8
0
 10
96.561
 20
-40.9877
 11
97.2616
 21
-39.2962
  0
LINE
  8
0
 10
97.2616
 20
-39.2962
 11
97.9326
 21
-37.5928
  0
LINE
  8
0
 10
97.9326
 20
-37.5928
 11
98.5737
 21
-35.8779
  0
LINE
  8
0
 10
98.5737
 20
-35.8779
 11
99.1849
 21
-34.1521
  0
LINE
  8
0
 10
99.1849
 20
-34.1521
 11
99.7658
 21
-32.4159
  0
LINE
  8
0
 10
99.7658
 20
-32.4159
 11
100.316
 21
-30.6698
  0
LINE
  8
0
 10
100.316
 20
-30.6698
 11
100.836
 21
-28.9144
  0
LINE
  8
0
 10
100.836
 20
-28.9144
 11
101.326
 21
-27.1501
  0
LINE
  8
0
 10
101.326
 20
-27.1501
 11
101.784
 21
-25.3776
  0
LINE
  8
0
 10
101.784
 20
-25.3776
 11
102.211
 21
-23.5974
  0
LINE
  8
0
 10
102.211
 20
-23.5974
 11
102.608
 21
-21.8099
  0
LINE
  8
0
 10
102.608
 20
-21.8099
 11
102.973
 21
-20.0159
  0
LINE
  8
0
 10
102.973
 20
-20.0159
 11
103.306
 21
-18.2157
  0
LINE
  8
0
 10
103.306
 20
-18.2157
 11
103.609
 21
-16.41
  0
LINE
  8
0
 10
103.609
 20
-16.41
 11
103.879
 21
-14.5992
  0
LINE
  8
0
 10
103.879
 20
-14.5992
 11
104.118
 21
-12.7841
  0
LINE
  8
0
 10
104.118
 20
-12.7841
 11
104.325
 21
-10.965
  0
LINE
  8
0
 10
104.325
 20
-10.965
 11
104.501
 21
-9.14262
  0
LINE
  8
0
 10
104.501
 20
-9.14262
 11
104.644
 21
-7.31744
  0
LINE
  8
0
 10
104.644
 20
-7.31744
 11
104.756
 21
-5.49004
  0
LINE
  8
0
 10
104.756
 20
-5.49004
 11
104.836
 21
-3.66095
  0
LINE
  8
0
 10
104.836
 20
-3.66095
 11
104.884
 21
-1.83075
  0
LINE
  8
0
 10
104.884
 20
-1.83075
 11
104.9
 21
0
  0
LINE
  8
0
 10
104.9
 20
0
 11
104.884
 21
1.83075
  0
LINE
  8
0
 10
104.884
 20
1.83075
 11
104.836
 21
3.66095
  0
LINE
  8
0
 10
104.836
 20
3.66095
 11
104.756
 21
5.49004
  0
LINE
  8
0
 10
104.756
 20
5.49004
 11
104.644
 21
7.31744
  0
LINE
  8
0
 10
104.644
 20
7.31744
 11
104.501
 21
9.14262
  0
LINE
  8
0
 10
104.501
 20
9.14262
 11
104.325
 21
10.965
  0
LINE
  8
0
 10
104.325
 20
10.965
 11
104.118
 21
12.7841
  0
LINE
  8
0
 10
104.118
 20
12.7841
 11
103.879
 21
14.5992
  0
LINE
  8
0
 10
103.879
 20
14.5992
 11
103.609
 21
16.41
  0
LINE
  8
0
 10
103.609
 20
16.41
 11
103.306
 21
18.2157
  0
LINE
  8
0
 10
103.306
 20
18.2157
 11
102.973
 21
20.0159
  0
LINE
  8
0
 10
102.973
 20
20.0159
 11
102.608
 21
21.8099
  0
LINE
  8
0
 10
102.608
 20
21.8099
 11
102.211
 21
23.5974
  0
LINE
  8
0
 10
102.211
 20
23.5974
 11
101.784
 21
25.3776
  0
LINE
  8
0
 10
101.784
 20
25.3776
 11
101.326
 21
27.1501
  0
LINE
  8
0
 10
101.326
 20
27.1501
 11
100.836
 21
28.9144
  0
LINE
  8
0
 10
100.836
 20
28.9144
 11
100.316
 21
30.6698
  0
LINE
  8
0
 10
100.316
 20
30.6698
 11
99.7658
 21
32.4159
  0
LINE
  8
0
 10
99.7658
 20
32.4159
 11
99.1849
 21
34.1521
  0
LINE
  8
0
 10
99.1849
 20
34.1521
 11
98.5737
 21
35.8779
  0
LINE
  8
0
 10
98.5737
 20
35.8779
 11
97.9326
 21
37.5928
  0
LINE
  8
0
 10
97.9326
 20
37.5928
 11
97.2616
 21
39.2962
  0
LINE
  8
0
 10
97.2616
 20
39.2962
 11
96.561
 21
40.9877
  0
LINE
  8
0
 10
96.561
 20
40.9877
 11
95.8309
 21
42.6667
  0
LINE
  8
0
 10
95.8309
 20
42.6667
 11
95.0717
 21
44.3326
  0
LINE
  8
0
 10
95.0717
 20
44.3326
 11
94.2835
 21
45.9851
  0
LINE
  8
0
 10
94.2835
 20
45.9851
 11
93.4666
 21
47.6236
  0
LINE
  8
0
 10
93.4666
 20
47.6236
 11
92.6212
 21
49.2476
  0
LINE
  8
0
 10
92.6212
 20
49.2476
 11
91.7476
 21
50.8565
  0
LINE
  8
0
 10
91.7476
 20
50.8565
 11
90.8461
 21
52.45
  0
LINE
  8
0
 10
90.8461
 20
52.45
 11
89.9168
 21
54.0275
  0
LINE
  8
0
 10
89.9168
 20
54.0275
 11
88.9602
 21
55.5885
  0
LINE
  8
0
 10
88.9602
 20
55.5885
 11
87.9765
 21
57.1326
  0
LINE
  8
0
 10
87.9765
 20
57.1326
 11
86.966
 21
58.6593
  0
LINE
  8
0
 10
86.966
 20
58.6593
 11
85.929
 21
60.1682
  0
LINE
  8
0
 10
85.929
 20
60.1682
 11
84.8659
 21
61.6587
  0
LINE
  8
0
 10
84.8659
 20
61.6587
 11
83.7769
 21
63.1304
  0
LINE
  8
0
 10
83.7769
 20
63.1304
 11
82.6623
 21
64.5829
  0
LINE
  8
0
 10
82.6623
 20
64.5829
 11
81.5226
 21
66.0157
  0
LINE
  8
0
 10
81.5226
 20
66.0157
 11
80.358
 21
67.4284
  0
LINE
  8
0
 10
80.358
 20
67.4284
 11
79.169
 21
68.8206
  0
LINE
  8
0
 10
79.169
 20
68.8206
 11
77.9559
 21
70.1918
  0
LINE
  8
0
 10
77.9559
 20
70.1918
 11
76.719
 21
71.5416
  0
LINE
  8
0
 10
76.719
 20
71.5416
 11
75.4587
 21
72.8697
  0
LINE
  8
0
 10
75.4587
 20
72.8697
 11
74.1755
 21
74.1755
  0
LINE
  8
0
 10
74.1755
 20
74.1755
 11
72.8697
 21
75.4587
  0
LINE
  8
0
 10
72.8697
 20
75.4587
 11
71.5416
 21
76.719
  0
LINE
  8
0
 10
71.5416
 20
76.719
 11
70.1918
 21
77.9559
  0
LINE
  8
0
 10
70.1918
 20
77.9559
 11
68.8206
 21
79.169
  0
LINE
  8
0
 10
68.8206
 20
79.169
 11
67.4284
 21
80.358
  0
LINE
  8
0
 10
67.4284
 20
80.358
 11
66.0157
 21
81.5226
  0
LINE
  8
0
 10
66.0157
 20
81.5226
 11
64.5829
 21
82.6623
  0
LINE
  8
0
 10
64.5829
 20
82.6623
 11
63.1304
 21
83.7769
  0
LINE
  8
0
 10
63.1304
 20
83.7769
 11
61.6587
 21
84.8659
  0
LINE
  8
0
 10
61.6587
 20
84.8659
 11
60.1682
 21
85.929
  0
LINE
  8
0
 10
60.1682
 20
85.929
 11
58.6593
 21
86.966
  0
LINE
  8
0
 10
58.6593
 20
86.966
 11
57.1326
 21
87.9765
  0
LINE
  8
0
 10
57.1326
 20
87.9765
 11
55.5885
 21
88.9602
  0
LINE
  8
0
 10
55.5885
 20
88.9602
 11
54.0275
 21
89.9168
  0
LINE
  8
0
 10
54.0275
 20
89.9168
 11
52.45
 21
90.8461
  0
LINE
  8
0
 10
52.45
 20
90.8461
 11
50.8565
 21
91.7476
  0
LINE
  8
0
 10
50.8565
 20
91.7476
 11
49.2476
 21
92.6212
  0
LINE
  8
0
 10
49.2476
 20
92.6212
 11
47.6236
 21
93.4666
  0
LINE
  8
0
 10
47.6236
 20
93.4666
 11
45.9851
 21
94.2835
  0
LINE
  8
0
 10
45.9851
 20
94.2835
 11
44.3326
 21
95.0717
  0
LINE
  8
0
 10
44.3326
 20
95.0717
 11
42.6667
 21
95.8309
  0
LINE
  8
0
 10
42.6667
 20
95.8309
 11
40.9877
 21
96.561
  0
LINE
  8
0
 10
40.9877
 20
96.561
 11
39.2962
 21
97.2616
  0
LINE
  8
0
 10
39.2962
 20
97.2616
 11
37.5928
 21
97.9326
  0
LINE
  8
0
 10
37.5928
 20
97.9326
 11
35.8779
 21
98.5737
  0
LINE
  8
0
 10
35.8779
 20
98.5737
 11
34.1521
 21
99.1849
  0
LINE
  8
0
 10
34.1521
 20
99.1849
 11
32.4159
 21
99.7658
  0
LINE
  8
0
 10
32.4159
 20
99.7658
 11
30.6698
 21
100.316
  0
LINE
  8
0
 10
30.6698
 20
100.316
 11
28.9144
 21
100.836
  0
LINE
  8
0
 10
28.9144
 20
100.836
 11
27.1501
 21
101.326
  0
LINE
  8
0
 10
27.1501
 20
101.326
 11
25.3776
 21
101.784
  0
LINE
  8
0
 10
25.3776
 20
101.784
 11
23.5974
 21
102.211
  0
LINE
  8
0
 10
23.5974
 20
102.211
 11
21.8099
 21
102.608
  0
LINE
  8
0
 10
21.8099
 20
102.608
 11
20.0159
 21
102.973
  0
LINE
  8
0
 10
20.0159
 20
102.973
 11
18.2157
 21
103.306
  0
LINE
  8
0
 10
18.2157
 20
103.306
 11
16.41
 21
103.609
  0
LINE
  8
0
 10
16.41
 20
103.609
 11
14.5992
 21
103.879
  0
LINE
  8
0
 10
14.5992
 20
103.879
 11
12.7841
 21
104.118
  0
LINE
  8
0
 10
12.7841
 20
104.118
 11
10.965
 21
104.325
  0
LINE
  8
0
 10
10.965
 20
104.325
 11
9.14262
 21
104.501
  0
LINE
  8
0
 10
9.14262
 20
104.501
 11
7.31744
 21
104.644
  0
LINE
  8
0
 10
7.31744
 20
104.644
 11
5.49004
 21
104.756
  0
LINE
  8
0
 10
5.49004
 20
104.756
 11
3.66095
 21
104.836
  0
LINE
  8
0
 10
3.66095
 20
104.836
 11
1.83075
 21
104.884
  0
LINE
  8
0
 10
1.83075
 20
104.884
 11
0
 21
104.9
  0
LINE
  8
0
 10
0
 20
104.9
 11
-1.83075
 21
104.884
  0
LINE
  8
0
 10
-1.83075
 20
104.884
 11
-3.66095
 21
104.836
  0
LINE
  8
0
 10
-3.66095
 20
104.836
 11
-5.49004
 21
104.756
  0
LINE
  8
0
 10
-5.49004
 20
104.756
 11
-7.31744
 21
104.644
  0
LINE
  8
0
 10
-7.31744
 20
104.644
 11
-9.14262
 21
104.501
  0
LINE
  8
0
 10
-9.14262
 20
104.501
 11
-10.965
 21
104.325
  0
LINE
  8
0
 10
-10.965
 20
104.325
 11
-12.7841
 21
104.118
  0
LINE
  8
0
 10
-12.7841
 20
104.118
 11
-14.5992
 21
103.879
  0
LINE
  8
0
 10
-14.5992
 20
103.879
 11
-16.41
 21
103.609
  0
LINE
  8
0
 10
-16.41
 20
103.609
 11
-18.2157
 21
103.306
  0
LINE
  8
0
 10
-18.2157
 20
103.306
 11
-20.0159
 21
102.973
  0
LINE
  8
0
 10
-20.0159
 20
102.973
 11
-21.8099
 21
102.608
  0
LINE
  8
0
 10
-21.8099
 20
102.608
 11
-23.5974
 21
102.211
  0
LINE
  8
0
 10
-23.5974
 20
102.211
 11
-25.3776
 21
101.784
  0
LINE
  8
0
 10
-25.3776
 20
101.784
 11
-27.1501
 21
101.326
  0
LINE
  8
0
 10
-27.1501
 20
101.326
 11
-28.9144
 21
100.836
  0
LINE
  8
0
 10
-28.9144
 20
100.836
 11
-30.6698
 21
100.316
  0
LINE
  8
0
 10
-30.6698
 20
100.316
 11
-32.4159
 21
99.7658
  0
LINE
  8
0
 10
-32.4159
 20
99.7658
 11
-34.1521
 21
99.1849
  0
LINE
  8
0
 10
-34.1521
 20
99.1849
 11
-35.8779
 21
98.5737
  0
LINE
  8
0
 10
-35.8779
 20
98.5737
 11
-37.5928
 21
97.9326
  0
LINE
  8
0
 10
-37.5928
 20
97.9326
 11
-39.2962
 21
97.2616
  0
LINE
  8
0
 10
-39.2962
 20
97.2616
 11
-40.9877
 21
96.561
  0
LINE
  8
0
 10
-40.9877
 20
96.561
 11
-42.6667
 21
95.8309
  0
LINE
  8
0
 10
-42.6667
 20
95.8309
 11
-44.3326
 21
95.0717
  0
LINE
  8
0
 10
-44.3326
 20
95.0717
 11
-45.9851
 21
94.2835
  0
LINE
  8
0
 10
-45.9851
 20
94.2835
 11
-47.6236
 21
93.4666
  0
LINE
  8
0
 10
-47.6236
 20
93.4666
 11
-49.2476
 21
92.6212
  0
LINE
  8
0
 10
-49.2476
 20
92.6212
 11
-50.8565
 21
91.7476
  0
LINE
  8
0
 10
-50.8565
 20
91.7476
 11
-52.45
 21
90.8461
  0
LINE
  8
0
 10
-52.45
 20
90.8461
 11
-54.0275
 21
89.9168
  0
LINE
  8
0
 10
-54.0275
 20
89.9168
 11
-55.5885
 21
88.9602
  0
LINE
  8
0
 10
-55.5885
 20
88.9602
 11
-57.1326
 21
87.9765
  0
LINE
  8
0
 10
-57.1326
 20
87.9765
 11
-58.6593
 21
86.966
  0
LINE
  8
0
 10
-58.6593
 20
86.966
 11
-60.1682
 21
85.929
  0
LINE
  8
0
 10
-60.1682
 20
85.929
 11
-61.6587
 21
84.8659
  0
LINE
  8
0
 10
-61.6587
 20
84.8659
 11
-63.1304
 21
83.7769
  0
LINE
  8
0
 10
-63.1304
 20
83.7769
 11
-64.5829
 21
82.6623
  0
LINE
  8
0
 10
-64.5829
 20
82.6623
 11
-66.0157
 21
81.5226
  0
LINE
  8
0
 10
-66.0157
 20
81.5226
 11
-67.4284
 21
80.358
  0
LINE
  8
0
 10
-67.4284
 20
80.358
 11
-68.8206
 21
79.169
  0
LINE
  8
0
 10
-68.8206
 20
79.169
 11
-70.1918
 21
77.9559
  0
LINE
  8
0
 10
-70.1918
 20
77.9559
 11
-71.5416
 21
76.719
  0
LINE
  8
0
 10
-71.5416
 20
76.719
 11
-72.8697
 21
75.4587
  0
LINE
  8
0
 10
-72.8697
 20
75.4587
 11
-74.1755
 21
74.1755
  0
LINE
  8
0
 10
-74.1755
 20
74.1755
 11
-75.4587
 21
72.8697
  0
LINE
  8
0
 10
-75.4587
 20
72.8697
 11
-76.719
 21
71.5416
  0
LINE
  8
0
 10
-76.719
 20
71.5416
 11
-77.9559
 21
70.1918
  0
LINE
  8
0
 10
-77.9559
 20
70.1918
 11
-79.169
 21
68.8206
  0
LINE
  8
0
 10
-79.169
 20
68.8206
 11
-80.358
 21
67.4284
  0
LINE
  8
0
 10
-80.358
 20
67.4284
 11
-81.5226
 21
66.0157
  0
LINE
  8
0
 10
-81.5226
 20
66.0157
 11
-82.6623
 21
64.5829
  0
LINE
  8
0
 10
-82.6623
 20
64.5829
 11
-83.7769
 21
63.1304
  0
LINE
  8
0
 10
-83.7769
 20
63.1304
 11
-84.8659
 21
61.6587
  0
LINE
  8
0
 10
-84.8659
 20
61.6587
 11
-85.929
 21
60.1682
  0
LINE
  8
0
 10
-85.929
 20
60.1682
 11
-86.966
 21
58.6593
  0
LINE
  8
0
 10
-86.966
 20
58.6593
 11
-87.9765
 21
57.1326
  0
LINE
  8
0
 10
-87.9765
 20
57.1326
 11
-88.9602
 21
55.5885
  0
LINE
  8
0
 10
-88.9602
 20
55.5885
 11
-89.9168
 21
54.0275
  0
LINE
  8
0
 10
-89.9168
 20
54.0275
 11
-90.8461
 21
52.45
  0
LINE
  8
0
 10
-90.8461
 20
52.45
 11
-91.7476
 21
50.8565
  0
LINE
  8
0
 10
-91.7476
 20
50.8565
 11
-92.6212
 21
49.2476
  0
LINE
  8
0
 10
-92.6212
 20
49.2476
 11
-93.4666
 21
47.6236
  0
LINE
  8
0
 10
-93.4666
 20
47.6236
 11
-94.2835
 21
45.9851
  0
LINE
  8
0
 10
-94.2835
 20
45.9851
 11
-95.0717
 21
44.3326
  0
LINE
  8
0
 10
-95.0717
 20
44.3326
 11
-95.8309
 21
42.6667
  0
LINE
  8
0
 10
-95.8309
 20
42.6667
 11
-96.561
 21
40.9877
  0
LINE
  8
0
 10
-96.561
 20
40.9877
 11
-97.2616
 21
39.2962
  0
LINE
  8
0
 10
-97.2616
 20
39.2962
 11
-97.9326
 21
37.5928
  0
LINE
  8
0
 10
-97.9326
 20
37.5928
 11
-98.5737
 21
35.8779
  0
LINE
  8
0
 10
-98.5737
 20
35.8779
 11
-99.1849
 21
34.1521
  0
LINE
  8
0
 10
-99.1849
 20
34.1521
 11
-99.7658
 21
32.4159
  0
LINE
  8
0
 10
-99.7658
 20
32.4159
 11
-100.316
 21
30.6698
  0
LINE
  8
0
 10
-100.316
 20
30.6698
 11
-100.836
 21
28.9144
  0
LINE
  8
0
 10
-100.836
 20
28.9144
 11
-101.326
 21
27.1501
  0
LINE
  8
0
 10
-101.326
 20
27.1501
 11
-101.784
 21
25.3776
  0
LINE
  8
0
 10
-101.784
 20
25.3776
 11
-102.211
 21
23.5974
  0
LINE
  8
0
 10
-102.211
 20
23.5974
 11
-102.608
 21
21.8099
  0
LINE
  8
0
 10
-102.608
 20
21.8099
 11
-102.973
 21
20.0159
  0
LINE
  8
0
 10
-102.973
 20
20.0159
 11
-103.306
 21
18.2157
  0
LINE
  8
0
 10
-103.306
 20
18.2157
 11
-103.609
 21
16.41
  0
LINE
  8
0
 10
-103.609
 20
16.41
 11
-103.879
 21
14.5992
  0
LINE
  8
0
 10
-103.879
 20
14.5992
 11
-104.118
 21
12.7841
  0
LINE
  8
0
 10
-104.118
 20
12.7841
 11
-104.325
 21
10.965
  0
LINE
  8
0
 10
-104.325
 20
10.965
 11
-104.501
 21
9.14262
  0
LINE
  8
0
 10
-104.501
 20
9.14262
 11
-104.644
 21
7.31744
  0
LINE
  8
0
 10
-104.644
 20
7.31744
 11
-104.756
 21
5.49004
  0
LINE
  8
0
 10
-104.756
 20
5.49004
 11
-104.836
 21
3.66095
  0
LINE
  8
0
 10
-104.836
 20
3.66095
 11
-104.884
 21
1.83075
  0
LINE
  8
0
 10
-104.884
 20
1.83075
 11
-104.9
 21
0
  0
LINE
  8
0
 10
-104.9
 20
0
 11
-104.884
 21
-1.83075
  0
LINE
  8
0
 10
-104.884
 20
-1.83075
 11
-104.836
 21
-3.66095
  0
LINE
  8
0
 10
-104.836
 20
-3.66095
 11
-104.756
 21
-5.49004
  0
LINE
  8
0
 10
-104.756
 20
-5.49004
 11
-104.644
 21
-7.31744
  0
LINE
  8
0
 10
-104.644
 20
-7.31744
 11
-104.501
 21
-9.14262
  0
LINE
  8
0
 10
-104.501
 20
-9.14262
 11
-104.325
 21
-10.965
  0
LINE
  8
0
 10
-104.325
 20
-10.965
 11
-104.118
 21
-12.7841
  0
LINE
  8
0
 10
-104.118
 20
-12.7841
 11
-103.879
 21
-14.5992
  0
LINE
  8
0
 10
-103.879
 20
-14.5992
 11
-103.609
 21
-16.41
  0
LINE
  8
0
 10
-103.609
 20
-16.41
 11
-103.306
 21
-18.2157
  0
LINE
  8
0
 10
-103.306
 20
-18.2157
 11
-102.973
 21
-20.0159
  0
LINE
  8
0
 10
-102.973
 20
-20.0159
 11
-102.608
 21
-21.8099
  0
LINE
  8
0
 10
-102.608
 20
-21.8099
 11
-102.211
 21
-23.5974
  0
LINE
  8
0
 10
-102.211
 20
-23.5974
 11
-101.784
 21
-25.3776
  0
LINE
  8
0
 10
-101.784
 20
-25.3776
 11
-101.326
 21
-27.1501
  0
LINE
  8
0
 10
-101.326
 20
-27.1501
 11
-100.836
 21
-28.9144
  0
LINE
  8
0
 10
-100.836
 20
-28.9144
 11
-100.316
 21
-30.6698
  0
LINE
  8
0
 10
-100.316
 20
-30.6698
 11
-99.7658
 21
-32.4159
  0
LINE
  8
0
 10
-99.7658
 20
-32.4159
 11
-99.1849
 21
-34.1521
  0
LINE
  8
0
 10
-99.1849
 20
-34.1521
 11
-98.5737
 21
-35.8779
  0
LINE
  8
0
 10
-98.5737
 20
-35.8779
 11
-97.9326
 21
-37.5928
  0
LINE
  8
0
 10
-97.9326
 20
-37.5928
 11
-97.2616
 21
-39.2962
  0
LINE
  8
0
 10
-97.2616
 20
-39.2962
 11
-96.561
 21
-40.9877
  0
LINE
  8
0
 10
-96.561
 20
-40.9877
 11
-95.8309
 21
-42.6667
  0
LINE
  8
0
 10
-95.8309
 20
-42.6667
 11
-95.0717
 21
-44.3326
  0
LINE
  8
0
 10
-95.0717
 20
-44.3326
 11
-94.2835
 21
-45.9851
  0
LINE
  8
0
 10
-94.2835
 20
-45.9851
 11
-93.4666
 21
-47.6236
  0
LINE
  8
0
 10
-93.4666
 20
-47.6236
 11
-92.6212
 21
-49.2476
  0
LINE
  8
0
 10
-92.6212
 20
-49.2476
 11
-92.3517
 21
-49.7439
  0
LINE
  8
0
 10
-92.3517
 20
-49.7439
 11
-92.34
 21
-49.7379
  0
LINE
  8
0
 10
-92.34
 20
-49.7379
 11
-92.2916
 21
-49.7137
  0
LINE
  8
0
 10
-92.2916
 20
-49.7137
 11
-92.2428
 21
-49.6904
  0
LINE
  8
0
 10
-92.2428
 20
-49.6904
 11
-92.1935
 21
-49.668
  0
LINE
  8
0
 10
-92.1935
 20
-49.668
 11
-92.1439
 21
-49.6464
  0
LINE
  8
0
 10
-92.1439
 20
-49.6464
 11
-92.0939
 21
-49.6257
  0
LINE
  8
0
 10
-92.0939
 20
-49.6257
 11
-92.0436
 21
-49.6059
  0
LINE
  8
0
 10
-92.0436
 20
-49.6059
 11
-91.9929
 21
-49.5869
  0
LINE
  8
0
 10
-91.9929
 20
-49.5869
 11
-91.9419
 21
-49.5689
  0
LINE
  8
0
 10
-91.9419
 20
-49.5689
 11
-91.8906
 21
-49.5517
  0
LINE
  8
0
 10
-91.8906
 20
-49.5517
 11
-91.839
 21
-49.5354
  0
LINE
  8
0
 10
-91.839
 20
-49.5354
 11
-91.7871
 21
-49.5201
  0
LINE
  8
0
 10
-91.7871
 20
-49.5201
 11
-91.735
 21
-49.5056
  0
LINE
  8
0
 10
-91.735
 20
-49.5056
 11
-91.6826
 21
-49.4921
  0
LINE
  8
0
 10
-91.6826
 20
-49.4921
 11
-91.63
 21
-49.4794
  0
LINE
  8
0
 10
-91.63
 20
-49.4794
 11
-91.5772
 21
-49.4677
  0
LINE
  8
0
 10
-91.5772
 20
-49.4677
 11
-91.5242
 21
-49.457
  0
LINE
  8
0
 10
-91.5242
 20
-49.457
 11
-91.471
 21
-49.4471
  0
LINE
  8
0
 10
-91.471
 20
-49.4471
 11
-91.4176
 21
-49.4382
  0
LINE
  8
0
 10
-91.4176
 20
-49.4382
 11
-91.3641
 21
-49.4302
  0
LINE
  8
0
 10
-91.3641
 20
-49.4302
 11
-91.3105
 21
-49.4231
  0
LINE
  8
0
 10
-91.3105
 20
-49.4231
 11
-91.2567
 21
-49.417
  0
LINE
  8
0
 10
-91.2567
 20
-49.417
 11
-91.2028
 21
-49.4118
  0
LINE
  8
0
 10
-91.2028
 20
-49.4118
 11
-91.1489
 21
-49.4075
  0
LINE
  8
0
 10
-91.1489
 20
-49.4075
 11
-91.0949
 21
-49.4042
  0
LINE
  8
0
 10
-91.0949
 20
-49.4042
 11
-91.0408
 21
-49.4019
  0
LINE
  8
0
 10
-91.0408
 20
-49.4019
 11
-90.9868
 21
-49.4005
  0
LINE
  8
0
 10
-90.9868
 20
-49.4005
 11
-90.9327
 21
-49.4
  0
LINE
  8
0
 10
-90.9327
 20
-49.4
 11
-90.8786
 21
-49.4005
  0
LINE
  8
0
 10
-90.8786
 20
-49.4005
 11
-90.8245
 21
-49.4019
  0
LINE
  8
0
 10
-90.8245
 20
-49.4019
 11
-90.7704
 21
-49.4042
  0
LINE
  8
0
 10
-90.7704
 20
-49.4042
 11
-90.7164
 21
-49.4075
  0
LINE
  8
0
 10
-90.7164
 20
-49.4075
 11
-90.6625
 21
-49.4118
  0
LINE
  8
0
 10
-90.6625
 20
-49.4118
 11
-90.6086
 21
-49.417
  0
LINE
  8
0
 10
-90.6086
 20
-49.417
 11
-90.5549
 21
-49.4231
  0
LINE
  8
0
 10
-90.5549
 20
-49.4231
 11
-90.5012
 21
-49.4302
  0
LINE
  8
0
 10
-90.5012
 20
-49.4302
 11
-90.4477
 21
-49.4382
  0
LINE
  8
0
 10
-90.4477
 20
-49.4382
 11
-90.3943
 21
-49.4471
  0
LINE
  8
0
 10
-90.3943
 20
-49.4471
 11
-90.3412
 21
-49.457
  0
LINE
  8
0
 10
-90.3412
 20
-49.457
 11
-90.2881
 21
-49.4677
  0
LINE
  8
0
 10
-90.2881
 20
-49.4677
 11
-90.2353
 21
-49.4794
  0
LINE
  8
0
 10
-90.2353
 20
-49.4794
 11
-90.1827
 21
-49.4921
  0
LINE
  8
0
 10
-90.1827
 20
-49.4921
 11
-90.1303
 21
-49.5056
  0
LINE
  8
0
 10
-90.1303
 20
-49.5056
 11
-90.0782
 21
-49.5201
  0
LINE
  8
0
 10
-90.0782
 20
-49.5201
 11
-90.0263
 21
-49.5354
  0
LINE
  8
0
 10
-90.0263
 20
-49.5354
 11
-89.9747
 21
-49.5517
  0
LINE
  8
0
 10
-89.9747
 20
-49.5517
 11
-89.9234
 21
-49.5689
  0
LINE
  8
0
 10
-89.9234
 20
-49.5689
 11
-89.8724
 21
-49.5869
  0
LINE
  8
0
 10
-89.8724
 20
-49.5869
 11
-89.8217
 21
-49.6059
  0
LINE
  8
0
 10
-89.8217
 20
-49.6059
 11
-89.7714
 21
-49.6257
  0
LINE
  8
0
 10
-89.7714
 20
-49.6257
 11
-89.7214
 21
-49.6464
  0
LINE
  8
0
 10
-89.7214
 20
-49.6464
 11
-89.6718
 21
-49.668
  0
LINE
  8
0
 10
-89.6718
 20
-49.668
 11
-89.6225
 21
-49.6904
  0
LINE
  8
0
 10
-89.6225
 20
-49.6904
 11
-89.5737
 21
-49.7137
  0
LINE
  8
0
 10
-89.5737
 20
-49.7137
 11
-89.5253
 21
-49.7379
  0
LINE
  8
0
 10
-89.5253
 20
-49.7379
 11
-89.4773
 21
-49.7628
  0
LINE
  8
0
 10
-89.4773
 20
-49.7628
 11
-89.4297
 21
-49.7887
  0
LINE
  8
0
 10
-89.4297
 20
-49.7887
 11
-89.3827
 21
-49.8153
  0
LINE
  8
0
 10
-89.3827
 20
-49.8153
 11
-89.336
 21
-49.8428
  0
LINE
  8
0
 10
-89.336
 20
-49.8428
 11
-89.2899
 21
-49.871
  0
LINE
  8
0
 10
-89.2899
 20
-49.871
 11
-89.2443
 21
-49.9001
  0
LINE
  8
0
 10
-89.2443
 20
-49.9001
 11
-89.1992
 21
-49.93
  0
LINE
  8
0
 10
-89.1992
 20
-49.93
 11
-89.1546
 21
-49.9606
  0
LINE
  8
0
 10
-89.1546
 20
-49.9606
 11
-89.1105
 21
-49.992
  0
LINE
  8
0
 10
-89.1105
 20
-49.992
 11
-89.067
 21
-50.0242
  0
LINE
  8
0
 10
-89.067
 20
-50.0242
 11
-89.0241
 21
-50.0572
  0
LINE
  8
0
 10
-89.0241
 20
-50.0572
 11
-88.9818
 21
-50.0908
  0
LINE
  8
0
 10
-88.9818
 20
-50.0908
 11
-88.94
 21
-50.1253
  0
LINE
  8
0
 10
-88.94
 20
-50.1253
 11
-88.8989
 21
-50.1604
  0
LINE
  8
0
 10
-88.8989
 20
-50.1604
 11
-88.8584
 21
-50.1962
  0
LINE
  8
0
 10
-88.8584
 20
-50.1962
 11
-88.8185
 21
-50.2328
  0
LINE
  8
0
 10
-88.8185
 20
-50.2328
 11
-88.7792
 21
-50.27
  0
LINE
  8
0
 10
-88.7792
 20
-50.27
 11
-88.7406
 21
-50.308
  0
LINE
  8
0
 10
-88.7406
 20
-50.308
 11
-88.7027
 21
-50.3466
  0
LINE
  8
0
 10
-88.7027
 20
-50.3466
 11
-88.6655
 21
-50.3858
  0
LINE
  8
0
 10
-88.6655
 20
-50.3858
 11
-88.6289
 21
-50.4257
  0
LINE
  8
0
 10
-88.6289
 20
-50.4257
 11
-88.5931
 21
-50.4662
  0
LINE
  8
0
 10
-88.5931
 20
-50.4662
 11
-88.5579
 21
-50.5074
  0
LINE
  8
0
 10
-88.5579
 20
-50.5074
 11
-88.5235
 21
-50.5491
  0
LINE
  8
0
 10
-88.5235
 20
-50.5491
 11
-88.4898
 21
-50.5914
  0
LINE
  8
0
 10
-88.4898
 20
-50.5914
 11
-88.4569
 21
-50.6344
  0
LINE
  8
0
 10
-88.4569
 20
-50.6344
 11
-88.4247
 21
-50.6779
  0
LINE
  8
0
 10
-88.4247
 20
-50.6779
 11
-88.3933
 21
-50.7219
  0
LINE
  8
0
 10
-88.3933
 20
-50.7219
 11
-88.3626
 21
-50.7665
  0
LINE
  8
0
 10
-88.3626
 20
-50.7665
 11
-88.3328
 21
-50.8116
  0
LINE
  8
0
 10
-88.3328
 20
-50.8116
 11
-88.3037
 21
-50.8572
  0
LINE
  8
0
 10
-88.3037
 20
-50.8572
 11
-88.2754
 21
-50.9034
  0
LINE
  8
0
 10
-88.2754
 20
-50.9034
 11
-88.248
 21
-50.95
  0
LINE
  8
0
 10
-88.248
 20
-50.95
 11
-88.2213
 21
-50.9971
  0
LINE
  8
0
 10
-88.2213
 20
-50.9971
 11
-88.1955
 21
-51.0446
  0
LINE
  8
0
 10
-88.1955
 20
-51.0446
 11
-88.1705
 21
-51.0926
  0
LINE
  8
0
 10
-88.1705
 20
-51.0926
 11
-88.1464
 21
-51.141
  0
LINE
  8
0
 10
-88.1464
 20
-51.141
 11
-88.1231
 21
-51.1899
  0
LINE
  8
0
 10
-88.1231
 20
-51.1899
 11
-88.1007
 21
-51.2391
  0
LINE
  8
0
 10
-88.1007
 20
-51.2391
 11
-88.0791
 21
-51.2887
  0
LINE
  8
0
 10
-88.0791
 20
-51.2887
 11
-88.0584
 21
-51.3387
  0
LINE
  8
0
 10
-88.0584
 20
-51.3387
 11
-88.0386
 21
-51.3891
  0
LINE
  8
0
 10
-88.0386
 20
-51.3891
 11
-88.0196
 21
-51.4397
  0
LINE
  8
0
 10
-88.0196
 20
-51.4397
 11
-88.0016
 21
-51.4907
  0
LINE
  8
0
 10
-88.0016
 20
-51.4907
 11
-87.9844
 21
-51.542
  0
LINE
  8
0
 10
-87.9844
 20
-51.542
 11
-87.9681
 21
-51.5936
  0
LINE
  8
0
 10
-87.9681
 20
-51.5936
 11
-87.9527
 21
-51.6455
  0
LINE
  8
0
 10
-87.9527
 20
-51.6455
 11
-87.9383
 21
-51.6976
  0
LINE
  8
0
 10
-87.9383
 20
-51.6976
 11
-87.9247
 21
-51.75
  0
LINE
  8
0
 10
-87.9247
 20
-51.75
 11
-87.9121
 21
-51.8026
  0
LINE
  8
0
 10
-87.9121
 20
-51.8026
 11
-87.9004
 21
-51.8555
  0
LINE
  8
0
 10
-87.9004
 20
-51.8555
 11
-87.8896
 21
-51.9085
  0
LINE
  8
0
 10
-87.8896
 20
-51.9085
 11
-87.8798
 21
-51.9617
  0
LINE
  8
0
 10
-87.8798
 20
-51.9617
 11
-87.8708
 21
-52.015
  0
LINE
  8
0
 10
-87.8708
 20
-52.015
 11
-87.8628
 21
-52.0686
  0
LINE
  8
0
 10
-87.8628
 20
-52.0686
 11
-87.8558
 21
-52.1222
  0
LINE
  8
0
 10
-87.8558
 20
-52.1222
 11
-87.8496
 21
-52.1759
  0
LINE
  8
0
 10
-87.8496
 20
-52.1759
 11
-87.8445
 21
-52.2298
  0
LINE
  8
0
 10
-87.8445
 20
-52.2298
 11
-87.8402
 21
-52.2838
  0
LINE
  8
0
 10
-87.8402
 20
-52.2838
 11
-87.8369
 21
-52.3378
  0
LINE
  8
0
 10
-87.8369
 20
-52.3378
 11
-87.8345
 21
-52.3918
  0
LINE
  8
0
 10
-87.8345
 20
-52.3918
 11
-87.8331
 21
-52.4459
  0
LINE
  8
0
 10
-87.8331
 20
-52.4459
 11
-87.8327
 21
-52.5
  0
LINE
  8
0
 10
-87.8327
 20
-52.5
 11
-87.8331
 21
-52.5541
  0
LINE
  8
0
 10
-87.8331
 20
-52.5541
 11
-87.8345
 21
-52.6082
  0
LINE
  8
0
 10
-87.8345
 20
-52.6082
 11
-87.8369
 21
-52.6622
  0
LINE
  8
0
 10
-87.8369
 20
-52.6622
 11
-87.8402
 21
-52.7162
  0
LINE
  8
0
 10
-87.8402
 20
-52.7162
 11
-87.8445
 21
-52.7702
  0
LINE
  8
0
 10
-87.8445
 20
-52.7702
 11
-87.8496
 21
-52.824
  0
LINE
  8
0
 10
-87.8496
 20
-52.824
 11
-87.8558
 21
-52.8778
  0
LINE
  8
0
 10
-87.8558
 20
-52.8778
 11
-87.8628
 21
-52.9314
  0
LINE
  8
0
 10
-87.8628
 20
-52.9314
 11
-87.8708
 21
-52.9849
  0
LINE
  8
0
 10
-87.8708
 20
-52.9849
 11
-87.8798
 21
-53.0383
  0
LINE
  8
0
 10
-87.8798
 20
-53.0383
 11
-87.8896
 21
-53.0915
  0
LINE
  8
0
 10
-87.8896
 20
-53.0915
 11
-87.9004
 21
-53.1445
  0
LINE
  8
0
 10
-87.9004
 20
-53.1445
 11
-87.9121
 21
-53.1973
  0
LINE
  8
0
 10
-87.9121
 20
-53.1973
 11
-87.9247
 21
-53.25
  0
LINE
  8
0
 10
-87.9247
 20
-53.25
 11
-87.9383
 21
-53.3023
  0
LINE
  8
0
 10
-87.9383
 20
-53.3023
 11
-87.9527
 21
-53.3545
  0
LINE
  8
0
 10
-87.9527
 20
-53.3545
 11
-87.9681
 21
-53.4063
  0
LINE
  8
0
 10
-87.9681
 20
-53.4063
 11
-87.9844
 21
-53.4579
  0
LINE
  8
0
 10
-87.9844
 20
-53.4579
 11
-88.0016
 21
-53.5092
  0
LINE
  8
0
 10
-88.0016
 20
-53.5092
 11
-88.0196
 21
-53.5603
  0
LINE
  8
0
 10
-88.0196
 20
-53.5603
 11
-88.0386
 21
-53.6109
  0
LINE
  8
0
 10
-88.0386
 20
-53.6109
 11
-88.0584
 21
-53.6613
  0
LINE
  8
0
 10
-88.0584
 20
-53.6613
 11
-88.0791
 21
-53.7113
  0
LINE
  8
0
 10
-88.0791
 20
-53.7113
 11
-88.1007
 21
-53.7609
  0
LINE
  8
0
 10
-88.1007
 20
-53.7609
 11
-88.1231
 21
-53.8101
  0
LINE
  8
0
 10
-88.1231
 20
-53.8101
 11
-88.1464
 21
-53.8589
  0
LINE
  8
0
 10
-88.1464
 20
-53.8589
 11
-88.1705
 21
-53.9074
  0
LINE
  8
0
 10
-88.1705
 20
-53.9074
 11
-88.1955
 21
-53.9554
  0
LINE
  8
0
 10
-88.1955
 20
-53.9554
 11
-88.2213
 21
-54.0029
  0
LINE
  8
0
 10
-88.2213
 20
-54.0029
 11
-88.248
 21
-54.05
  0
LINE
  8
0
 10
-88.248
 20
-54.05
 11
-88.2754
 21
-54.0966
  0
LINE
  8
0
 10
-88.2754
 20
-54.0966
 11
-88.3037
 21
-54.1427
  0
LINE
  8
0
 10
-88.3037
 20
-54.1427
 11
-88.3328
 21
-54.1884
  0
LINE
  8
0
 10
-88.3328
 20
-54.1884
 11
-88.3626
 21
-54.2335
  0
LINE
  8
0
 10
-88.3626
 20
-54.2335
 11
-88.3933
 21
-54.2781
  0
LINE
  8
0
 10
-88.3933
 20
-54.2781
 11
-88.4247
 21
-54.3221
  0
LINE
  8
0
 10
-88.4247
 20
-54.3221
 11
-88.4569
 21
-54.3656
  0
LINE
  8
0
 10
-88.4569
 20
-54.3656
 11
-88.4898
 21
-54.4085
  0
LINE
  8
0
 10
-88.4898
 20
-54.4085
 11
-88.5235
 21
-54.4509
  0
LINE
  8
0
 10
-88.5235
 20
-54.4509
 11
-88.5579
 21
-54.4926
  0
LINE
  8
0
 10
-88.5579
 20
-54.4926
 11
-88.5931
 21
-54.5338
  0
LINE
  8
0
 10
-88.5931
 20
-54.5338
 11
-88.6289
 21
-54.5743
  0
LINE
  8
0
 10
-88.6289
 20
-54.5743
 11
-88.6655
 21
-54.6142
  0
LINE
  8
0
 10
-88.6655
 20
-54.6142
 11
-88.7027
 21
-54.6534
  0
LINE
  8
0
 10
-88.7027
 20
-54.6534
 11
-88.7406
 21
-54.692
  0
LINE
  8
0
 10
-88.7406
 20
-54.692
 11
-88.7792
 21
-54.7299
  0
LINE
  8
0
 10
-88.7792
 20
-54.7299
 11
-88.8185
 21
-54.7672
  0
LINE
  8
0
 10
-88.8185
 20
-54.7672
 11
-88.8584
 21
-54.8037
  0
LINE
  8
0
 10
-88.8584
 20
-54.8037
 11
-88.8989
 21
-54.8396
  0
LINE
  8
0
 10
-88.8989
 20
-54.8396
 11
-88.94
 21
-54.8747
  0
LINE
  8
0
 10
-88.94
 20
-54.8747
 11
-88.9818
 21
-54.9091
  0
LINE
  8
0
 10
-88.9818
 20
-54.9091
 11
-89.0241
 21
-54.9428
  0
LINE
  8
0
 10
-89.0241
 20
-54.9428
 11
-89.067
 21
-54.9758
  0
LINE
  8
0
 10
-89.067
 20
-54.9758
 11
-89.1105
 21
-55.0079
  0
LINE
  8
0
 10
-89.1105
 20
-55.0079
 11
-89.1546
 21
-55.0394
  0
LINE
  8
0
 10
-89.1546
 20
-55.0394
 11
-89.1992
 21
-55.07
  0
LINE
  8
0
 10
-89.1992
 20
-55.07
 11
-89.2443
 21
-55.0999
  0
LINE
  8
0
 10
-89.2443
 20
-55.0999
 11
-89.2554
 21
-55.1069
  0
LINE
  8
0
 10
-89.2554
 20
-55.1069
 11
-88.9602
 21
-55.5885
  0
LINE
  8
0
 10
-88.9602
 20
-55.5885
 11
-87.9765
 21
-57.1326
  0
LINE
  8
0
 10
-87.9765
 20
-57.1326
 11
-86.966
 21
-58.6593
  0
LINE
  8
0
 10
-86.966
 20
-58.6593
 11
-85.929
 21
-60.1682
  0
LINE
  8
0
 10
-85.929
 20
-60.1682
 11
-84.8659
 21
-61.6587
  0
LINE
  8
0
 10
-84.8659
 20
-61.6587
 11
-83.7769
 21
-63.1304
  0
LINE
  8
0
 10
-83.7769
 20
-63.1304
 11
-82.6623
 21
-64.5829
  0
LINE
  8
0
 10
-82.6623
 20
-64.5829
 11
-81.5226
 21
-66.0157
  0
LINE
  8
0
 10
-81.5226
 20
-66.0157
 11
-80.358
 21
-67.4284
  0
LINE
  8
0
 10
-80.358
 20
-67.4284
 11
-79.169
 21
-68.8206
  0
LINE
  8
0
 10
-79.169
 20
-68.8206
 11
-77.9559
 21
-70.1918
  0
LINE
  8
0
 10
-77.9559
 20
-70.1918
 11
-76.719
 21
-71.5416
  0
LINE
  8
0
 10
-76.719
 20
-71.5416
 11
-75.4587
 21
-72.8697
  0
LINE
  8
0
 10
-75.4587
 20
-72.8697
 11
-74.1755
 21
-74.1755
  0
LINE
  8
0
 10
-74.1755
 20
-74.1755
 11
-72.8697
 21
-75.4587
  0
LINE
  8
0
 10
-72.8697
 20
-75.4587
 11
-71.5416
 21
-76.719
  0
LINE
  8
0
 10
-71.5416
 20
-76.719
 11
-70.1918
 21
-77.9559
  0
LINE
  8
0
 10
-70.1918
 20
-77.9559
 11
-68.8206
 21
-79.169
  0
LINE
  8
0
 10
-68.8206
 20
-79.169
 11
-67.4284
 21
-80.358
  0
LINE
  8
0
 10
-67.4284
 20
-80.358
 11
-66.0157
 21
-81.5226
  0
LINE
  8
0
 10
-66.0157
 20
-81.5226
 11
-64.5829
 21
-82.6623
  0
LINE
  8
0
 10
-64.5829
 20
-82.6623
 11
-63.1304
 21
-83.7769
  0
LINE
  8
0
 10
-63.1304
 20
-83.7769
 11
-61.6587
 21
-84.8659
  0
LINE
  8
0
 10
-61.6587
 20
-84.8659
 11
-60.1682
 21
-85.929
  0
LINE
  8
0
 10
-60.1682
 20
-85.929
 11
-58.6593
 21
-86.966
  0
LINE
  8
0
 10
-58.6593
 20
-86.966
 11
-57.1326
 21
-87.9765
  0
LINE
  8
0
 10
-57.1326
 20
-87.9765
 11
-55.5885
 21
-88.9602
  0
LINE
  8
0
 10
-55.5885
 20
-88.9602
 11
-54.0275
 21
-89.9168
  0
LINE
  8
0
 10
-54.0275
 20
-89.9168
 11
-52.45
 21
-90.8461
  0
LINE
  8
0
 10
-52.45
 20
-90.8461
 11
-50.8565
 21
-91.7476
  0
LINE
  8
0
 10
-50.8565
 20
-91.7476
 11
-49.2476
 21
-92.6212
  0
LINE
  8
0
 10
-49.2476
 20
-92.6212
 11
-47.6236
 21
-93.4666
  0
LINE
  8
0
 10
-47.6236
 20
-93.4666
 11
-45.9851
 21
-94.2835
  0
LINE
  8
0
 10
-45.9851
 20
-94.2835
 11
-44.3326
 21
-95.0717
  0
LINE
  8
0
 10
-44.3326
 20
-95.0717
 11
-42.6667
 21
-95.8309
  0
LINE
  8
0
 10
-42.6667
 20
-95.8309
 11
-40.9877
 21
-96.561
  0
LINE
  8
0
 10
-40.9877
 20
-96.561
 11
-39.2962
 21
-97.2616
  0
LINE
  8
0
 10
-39.2962
 20
-97.2616
 11
-37.5928
 21
-97.9326
  0
LINE
  8
0
 10
-37.5928
 20
-97.9326
 11
-35.8779
 21
-98.5737
  0
LINE
  8
0
 10
-35.8779
 20
-98.5737
 11
-34.1521
 21
-99.1849
  0
LINE
  8
0
 10
-34.1521
 20
-99.1849
 11
-32.4159
 21
-99.7658
  0
LINE
  8
0
 10
-32.4159
 20
-99.7658
 11
-30.6698
 21
-100.316
  0
LINE
  8
0
 10
-30.6698
 20
-100.316
 11
-28.9144
 21
-100.836
  0
LINE
  8
0
 10
-28.9144
 20
-100.836
 11
-27.1501
 21
-101.326
  0
LINE
  8
0
 10
-27.1501
 20
-101.326
 11
-25.3776
 21
-101.784
  0
LINE
  8
0
 10
-25.3776
 20
-101.784
 11
-23.5974
 21
-102.211
  0
LINE
  8
0
 10
-23.5974
 20
-102.211
 11
-21.8099
 21
-102.608
  0
LINE
  8
0
 10
-21.8099
 20
-102.608
 11
-20.0159
 21
-102.973
  0
LINE
  8
0
 10
-20.0159
 20
-102.973
 11
-18.2157
 21
-103.306
  0
LINE
  8
0
 10
-18.2157
 20
-103.306
 11
-16.41
 21
-103.609
  0
LINE
  8
0
 10
-16.41
 20
-103.609
 11
-14.5992
 21
-103.879
  0
LINE
  8
0
 10
-14.5992
 20
-103.879
 11
-12.7841
 21
-104.118
  0
LINE
  8
0
 10
-12.7841
 20
-104.118
 11
-10.965
 21
-104.325
  0
LINE
  8
0
 10
-10.965
 20
-104.325
 11
-9.14262
 21
-104.501
  0
LINE
  8
0
 10
-9.14262
 20
-104.501
 11
-7.31744
 21
-104.644
  0
LINE
  8
0
 10
-7.31744
 20
-104.644
 11
-5.49004
 21
-104.756
  0
LINE
  8
0
 10
-5.49004
 20
-104.756
 11
-3.66095
 21
-104.836
  0
LINE
  8
0
 10
-3.66095
 20
-104.836
 11
-1.83075
 21
-104.884
  0
LINE
  8
0
 10
-1.83075
 20
-104.884
 11
0
 21
-104.9
  0
LINE
  8
0
 10
0
 20
-104.9
 11
1.83075
 21
-104.884
  0
LINE
  8
0
 10
-0.0453644
 20
-2.59959
 11
-0.0907288
 21
-2.5984
  0
LINE
  8
0
 10
-0.0907288
 20
-2.5984
 11
-0.136063
 21
-2.59644
  0
LINE
  8
0
 10
-0.136063
 20
-2.59644
 11
-0.181366
 21
-2.59366
  0
LINE
  8
0
 10
-0.181366
 20
-2.59366
 11
-0.226593
 21
-2.5901
  0
LINE
  8
0
 10
-0.226593
 20
-2.5901
 11
-0.271759
 21
-2.58575
  0
LINE
  8
0
 10
-0.271759
 20
-2.58575
 11
-0.316849
 21
-2.58061
  0
LINE
  8
0
 10
-0.316849
 20
-2.58061
 11
-0.361847
 21
-2.57469
  0
LINE
  8
0
 10
-0.361847
 20
-2.57469
 11
-0.406723
 21
-2.56798
  0
LINE
  8
0
 10
-0.406723
 20
-2.56798
 11
-0.451477
 21
-2.56049
  0
LINE
  8
0
 10
-0.451477
 20
-2.56049
 11
-0.496094
 21
-2.55222
  0
LINE
  8
0
 10
-0.496094
 20
-2.55222
 11
-0.540558
 21
-2.54318
  0
LINE
  8
0
 10
-0.540558
 20
-2.54318
 11
-0.584869
 21
-2.53336
  0
LINE
  8
0
 10
-0.584869
 20
-2.53336
 11
-0.628983
 21
-2.52277
  0
LINE
  8
0
 10
-0.628983
 20
-2.52277
 11
-0.672928
 21
-2.5114
  0
LINE
  8
0
 10
-0.672928
 20
-2.5114
 11
-0.716644
 21
-2.49927
  0
LINE
  8
0
 10
-0.716644
 20
-2.49927
 11
-0.760162
 21
-2.48639
  0
LINE
  8
0
 10
-0.760162
 20
-2.48639
 11
-0.803436
 21
-2.47273
  0
LINE
  8
0
 10
-0.803436
 20
-2.47273
 11
-0.846466
 21
-2.45834
  0
LINE
  8
0
 10
-0.846466
 20
-2.45834
 11
-0.889252
 21
-2.44319
  0
LINE
  8
0
 10
-0.889252
 20
-2.44319
 11
-0.931747
 21
-2.42731
  0
LINE
  8
0
 10
-0.931747
 20
-2.42731
 11
-0.973969
 21
-2.41068
  0
LINE
  8
0
 10
-0.973969
 20
-2.41068
 11
-1.0159
 21
-2.39331
  0
LINE
  8
0
 10
-1.0159
 20
-2.39331
 11
-1.05751
 21
-2.37521
  0
LINE
  8
0
 10
-1.05751
 20
-2.37521
 11
-1.0988
 21
-2.3564
  0
LINE
  8
0
 10
-1.0988
 20
-2.3564
 11
-1.13976
 21
-2.33685
  0
LINE
  8
0
 10
-1.13976
 20
-2.33685
 11
-1.18037
 21
-2.3166
  0
LINE
  8
0
 10
-1.18037
 20
-2.3166
 11
-1.22061
 21
-2.29565
  0
LINE
  8
0
 10
-1.22061
 20
-2.29565
 11
-1.2605
 21
-2.274
  0
LINE
  8
0
 10
-1.2605
 20
-2.274
 11
-1.29999
 21
-2.25166
  0
LINE
  8
0
 10
-1.29999
 20
-2.25166
 11
-1.3391
 21
-2.22862
  0
LINE
  8
0
 10
-1.3391
 20
-2.22862
 11
-1.37778
 21
-2.20491
  0
LINE
  8
0
 10
-1.37778
 20
-2.20491
 11
-1.41606
 21
-2.18054
  0
LINE
  8
0
 10
-1.41606
 20
-2.18054
 11
-1.45389
 21
-2.15549
  0
LINE
  8
0
 10
-1.45389
 20
-2.15549
 11
-1.49129
 21
-2.12979
  0
LINE
  8
0
 10
-1.49129
 20
-2.12979
 11
-1.52823
 21
-2.10344
  0
LINE
  8
0
 10
-1.52823
 20
-2.10344
 11
-1.56471
 21
-2.07645
  0
LINE
  8
0
 10
-1.56471
 20
-2.07645
 11
-1.60071
 21
-2.04881
  0
LINE
  8
0
 10
-1.60071
 20
-2.04881
 11
-1.63623
 21
-2.02057
  0
LINE
  8
0
 10
-1.63623
 20
-2.02057
 11
-1.67123
 21
-1.99171
  0
LINE
  8
0
 10
-1.67123
 20
-1.99171
 11
-1.70575
 21
-1.96223
  0
LINE
  8
0
 10
-1.70575
 20
-1.96223
 11
-1.73973
 21
-1.93217
  0
LINE
  8
0
 10
-1.73973
 20
-1.93217
 11
-1.77319
 21
-1.9015
  0
LINE
  8
0
 10
-1.77319
 20
-1.9015
 11
-1.80611
 21
-1.87027
  0
LINE
  8
0
 10
-1.80611
 20
-1.87027
 11
-1.83847
 21
-1.83847
  0
LINE
  8
0
 10
-1.83847
 20
-1.83847
 11
-1.87027
 21
-1.80611
  0
LINE
  8
0
 10
-1.87027
 20
-1.80611
 11
-1.9015
 21
-1.77319
  0
LINE
  8
0
 10
-1.9015
 20
-1.77319
 11
-1.93217
 21
-1.73973
  0
LINE
  8
0
 10
-1.93217
 20
-1.73973
 11
-1.96223
 21
-1.70575
  0
LINE
  8
0
 10
-1.96223
 20
-1.70575
 11
-1.99171
 21
-1.67123
  0
LINE
  8
0
 10
-1.99171
 20
-1.67123
 11
-2.02057
 21
-1.63623
  0
LINE
  8
0
 10
-2.02057
 20
-1.63623
 11
-2.04881
 21
-1.60071
  0
LINE
  8
0
 10
-2.04881
 20
-1.60071
 11
-2.07645
 21
-1.56471
  0
LINE
  8
0
 10
-2.07645
 20
-1.56471
 11
-2.10344
 21
-1.52823
  0
LINE
  8
0
 10
-2.10344
 20
-1.52823
 11
-2.12979
 21
-1.49129
  0
LINE
  8
0
 10
-2.12979
 20
-1.49129
 11
-2.15549
 21
-1.45389
  0
LINE
  8
0
 10
-2.15549
 20
-1.45389
 11
-2.18054
 21
-1.41606
  0
LINE
  8
0
 10
-2.18054
 20
-1.41606
 11
-2.20491
 21
-1.37778
  0
LINE
  8
0
 10
-2.20491
 20
-1.37778
 11
-2.22862
 21
-1.3391
  0
LINE
  8
0
 10
-2.22862
 20
-1.3391
 11
-2.25166
 21
-1.29999
  0
LINE
  8
0
 10
-2.25166
 20
-1.29999
 11
-2.274
 21
-1.2605
  0
LINE
  8
0
 10
-2.274
 20
-1.2605
 11
-2.29565
 21
-1.22061
  0
LINE
  8
0
 10
-2.29565
 20
-1.22061
 11
-2.3166
 21
-1.18037
  0
LINE
  8
0
 10
-2.3166
 20
-1.18037
 11
-2.33685
 21
-1.13976
  0
LINE
  8
0
 10
-2.33685
 20
-1.13976
 11
-2.3564
 21
-1.0988
  0
LINE
  8
0
 10
-2.3564
 20
-1.0988
 11
-2.37521
 21
-1.05751
  0
LINE
  8
0
 10
-2.37521
 20
-1.05751
 11
-2.39331
 21
-1.0159
  0
LINE
  8
0
 10
-2.39331
 20
-1.0159
 11
-2.41068
 21
-0.973969
  0
LINE
  8
0
 10
-2.41068
 20
-0.973969
 11
-2.42731
 21
-0.931747
  0
LINE
  8
0
 10
-2.42731
 20
-0.931747
 11
-2.44319
 21
-0.889252
  0
LINE
  8
0
 10
-2.44319
 20
-0.889252
 11
-2.45834
 21
-0.846466
  0
LINE
  8
0
 10
-2.45834
 20
-0.846466
 11
-2.47273
 21
-0.803436
  0
LINE
  8
0
 10
-2.47273
 20
-0.803436
 11
-2.48639
 21
-0.760162
  0
LINE
  8
0
 10
-2.48639
 20
-0.760162
 11
-2.49927
 21
-0.716644
  0
LINE
  8
0
 10
-2.49927
 20
-0.716644
 11
-2.5114
 21
-0.672928
  0
LINE
  8
0
 10
-2.5114
 20
-0.672928
 11
-2.52277
 21
-0.628983
  0
LINE
  8
0
 10
-2.52277
 20
-0.628983
 11
-2.53336
 21
-0.584869
  0
LINE
  8
0
 10
-2.53336
 20
-0.584869
 11
-2.54318
 21
-0.540558
  0
LINE
  8
0
 10
-2.54318
 20
-0.540558
 11
-2.55222
 21
-0.496094
  0
LINE
  8
0
 10
-2.55222
 20
-0.496094
 11
-2.56049
 21
-0.451477
  0
LINE
  8
0
 10
-2.56049
 20
-0.451477
 11
-2.56798
 21
-0.406723
  0
LINE
  8
0
 10
-2.56798
 20
-0.406723
 11
-2.57469
 21
-0.361847
  0
LINE
  8
0
 10
-2.57469
 20
-0.361847
 11
-2.58061
 21
-0.316849
  0
LINE
  8
0
 10
-2.58061
 20
-0.316849
 11
-2.58575
 21
-0.271759
  0
LINE
  8
0
 10
-2.58575
 20
-0.271759
 11
-2.5901
 21
-0.226593
  0
LINE
  8
0
 10
-2.5901
 20
-0.226593
 11
-2.59366
 21
-0.181366
  0
LINE
  8
0
 10
-2.59366
 20
-0.181366
 11
-2.59644
 21
-0.136063
  0
LINE
  8
0
 10
-2.59644
 20
-0.136063
 11
-2.5984
 21
-0.0907288
  0
LINE
  8
0
 10
-2.5984
 20
-0.0907288
 11
-2.59959
 21
-0.0453644
  0
LINE
  8
0
 10
-2.59959
 20
-0.0453644
 11
-2.59999
 21
0
  0
LINE
  8
0
 10
-2.59999
 20
0
 11
-2.59959
 21
0.0453644
  0
LINE
  8
0
 10
-2.59959
 20
0.0453644
 11
-2.5984
 21
0.0907288
  0
LINE
  8
0
 10
-2.5984
 20
0.0907288
 11
-2.59644
 21
0.136063
  0
LINE
  8
0
 10
-2.59644
 20
0.136063
 11
-2.59366
 21
0.181366
  0
LINE
  8
0
 10
-2.59366
 20
0.181366
 11
-2.5901
 21
0.226593
  0
LINE
  8
0
 10
-2.5901
 20
0.226593
 11
-2.58575
 21
0.271759
  0
LINE
  8
0
 10
-2.58575
 20
0.271759
 11
-2.58061
 21
0.316849
  0
LINE
  8
0
 10
-2.58061
 20
0.316849
 11
-2.57469
 21
0.361847
  0
LINE
  8
0
 10
-2.57469
 20
0.361847
 11
-2.56798
 21
0.406723
  0
LINE
  8
0
 10
-2.56798
 20
0.406723
 11
-2.56049
 21
0.451477
  0
LINE
  8
0
 10
-2.56049
 20
0.451477
 11
-2.55222
 21
0.496094
  0
LINE
  8
0
 10
-2.55222
 20
0.496094
 11
-2.54318
 21
0.540558
  0
LINE
  8
0
 10
-2.54318
 20
0.540558
 11
-2.53336
 21
0.584869
  0
LINE
  8
0
 10
-2.53336
 20
0.584869
 11
-2.52277
 21
0.628983
  0
LINE
  8
0
 10
-2.52277
 20
0.628983
 11
-2.5114
 21
0.672928
  0
LINE
  8
0
 10
-2.5114
 20
0.672928
 11
-2.49927
 21
0.716644
  0
LINE
  8
0
 10
-2.49927
 20
0.716644
 11
-2.48639
 21
0.760162
  0
LINE
  8
0
 10
-2.48639
 20
0.760162
 11
-2.47273
 21
0.803436
  0
LINE
  8
0
 10
-2.47273
 20
0.803436
 11
-2.45834
 21
0.846466
  0
LINE
  8
0
 10
-2.45834
 20
0.846466
 11
-2.44319
 21
0.889252
  0
LINE
  8
0
 10
-2.44319
 20
0.889252
 11
-2.42731
 21
0.931747
  0
LINE
  8
0
 10
-2.42731
 20
0.931747
 11
-2.41068
 21
0.973969
  0
LINE
  8
0
 10
-2.41068
 20
0.973969
 11
-2.39331
 21
1.0159
  0
LINE
  8
0
 10
-2.39331
 20
1.0159
 11
-2.37521
 21
1.05751
  0
LINE
  8
0
 10
-2.37521
 20
1.05751
 11
-2.3564
 21
1.0988
  0
LINE
  8
0
 10
-2.3564
 20
1.0988
 11
-2.33685
 21
1.13976
  0
LINE
  8
0
 10
-2.33685
 20
1.13976
 11
-2.3166
 21
1.18037
  0
LINE
  8
0
 10
-2.3166
 20
1.18037
 11
-2.29565
 21
1.22061
  0
LINE
  8
0
 10
-2.29565
 20
1.22061
 11
-2.274
 21
1.2605
  0
LINE
  8
0
 10
-2.274
 20
1.2605
 11
-2.25166
 21
1.29999
  0
LINE
  8
0
 10
-2.25166
 20
1.29999
 11
-2.22862
 21
1.3391
  0
LINE
  8
0
 10
-2.22862
 20
1.3391
 11
-2.20491
 21
1.37778
  0
LINE
  8
0
 10
-2.20491
 20
1.37778
 11
-2.18054
 21
1.41606
  0
LINE
  8
0
 10
-2.18054
 20
1.41606
 11
-2.15549
 21
1.45389
  0
LINE
  8
0
 10
-2.15549
 20
1.45389
 11
-2.12979
 21
1.49129
  0
LINE
  8
0
 10
-2.12979
 20
1.49129
 11
-2.10344
 21
1.52823
  0
LINE
  8
0
 10
-2.10344
 20
1.52823
 11
-2.07645
 21
1.56471
  0
LINE
  8
0
 10
-2.07645
 20
1.56471
 11
-2.04881
 21
1.60071
  0
LINE
  8
0
 10
-2.04881
 20
1.60071
 11
-2.02057
 21
1.63623
  0
LINE
  8
0
 10
-2.02057
 20
1.63623
 11
-1.99171
 21
1.67123
  0
LINE
  8
0
 10
-1.99171
 20
1.67123
 11
-1.96223
 21
1.70575
  0
LINE
  8
0
 10
-1.96223
 20
1.70575
 11
-1.93217
 21
1.73973
  0
LINE
  8
0
 10
-1.93217
 20
1.73973
 11
-1.9015
 21
1.77319
  0
LINE
  8
0
 10
-1.9015
 20
1.77319
 11
-1.87027
 21
1.80611
  0
LINE
  8
0
 10
-1.87027
 20
1.80611
 11
-1.83847
 21
1.83847
  0
LINE
  8
0
 10
-1.83847
 20
1.83847
 11
-1.80611
 21
1.87027
  0
LINE
  8
0
 10
-1.80611
 20
1.87027
 11
-1.77319
 21
1.9015
  0
LINE
  8
0
 10
-1.77319
 20
1.9015
 11
-1.73973
 21
1.93217
  0
LINE
  8
0
 10
-1.73973
 20
1.93217
 11
-1.70575
 21
1.96223
  0
LINE
  8
0
 10
-1.70575
 20
1.96223
 11
-1.67123
 21
1.99171
  0
LINE
  8
0
 10
-1.67123
 20
1.99171
 11
-1.63623
 21
2.02057
  0
LINE
  8
0
 10
-1.63623
 20
2.02057
 11
-1.60071
 21
2.04881
  0
LINE
  8
0
 10
-1.60071
 20
2.04881
 11
-1.56471
 21
2.07645
  0
LINE
  8
0
 10
-1.56471
 20
2.07645
 11
-1.52823
 21
2.10344
  0
LINE
  8
0
 10
-1.52823
 20
2.10344
 11
-1.49129
 21
2.12979
  0
LINE
  8
0
 10
-1.49129
 20
2.12979
 11
-1.45389
 21
2.15549
  0
LINE
  8
0
 10
-1.45389
 20
2.15549
 11
-1.41606
 21
2.18054
  0
LINE
  8
0
 10
-1.41606
 20
2.18054
 11
-1.37778
 21
2.20491
  0
LINE
  8
0
 10
-1.37778
 20
2.20491
 11
-1.3391
 21
2.22862
  0
LINE
  8
0
 10
-1.3391
 20
2.22862
 11
-1.29999
 21
2.25166
  0
LINE
  8
0
 10
-1.29999
 20
2.25166
 11
-1.2605
 21
2.274
  0
LINE
  8
0
 10
-1.2605
 20
2.274
 11
-1.22061
 21
2.29565
  0
LINE
  8
0
 10
-1.22061
 20
2.29565
 11
-1.18037
 21
2.3166
  0
LINE
  8
0
 10
-1.18037
 20
2.3166
 11
-1.13976
 21
2.33685
  0
LINE
  8
0
 10
-1.13976
 20
2.33685
 11
-1.0988
 21
2.3564
  0
LINE
  8
0
 10
-1.0988
 20
2.3564
 11
-1.05751
 21
2.37521
  0
LINE
  8
0
 10
-1.05751
 20
2.37521
 11
-1.0159
 21
2.39331
  0
LINE
  8
0
 10
-1.0159
 20
2.39331
 11
-0.973969
 21
2.41068
  0
LINE
  8
0
 10
-0.973969
 20
2.41068
 11
-0.931747
 21
2.42731
  0
LINE
  8
0
 10
-0.931747
 20
2.42731
 11
-0.889252
 21
2.44319
  0
LINE
  8
0
 10
-0.889252
 20
2.44319
 11
-0.846466
 21
2.45834
  0
LINE
  8
0
 10
-0.846466
 20
2.45834
 11
-0.803436
 21
2.47273
  0
LINE
  8
0
 10
-0.803436
 20
2.47273
 11
-0.760162
 21
2.48639
  0
LINE
  8
0
 10
-0.760162
 20
2.48639
 11
-0.716644
 21
2.49927
  0
LINE
  8
0
 10
-0.716644
 20
2.49927
 11
-0.672928
 21
2.5114
  0
LINE
  8
0
 10
-0.672928
 20
2.5114
 11
-0.628983
 21
2.52277
  0
LINE
  8
0
 10
-0.628983
 20
2.52277
 11
-0.584869
 21
2.53336
  0
LINE
  8
0
 10
-0.584869
 20
2.53336
 11
-0.540558
 21
2.54318
  0
LINE
  8
0
 10
-0.540558
 20
2.54318
 11
-0.496094
 21
2.55222
  0
LINE
  8
0
 10
-0.496094
 20
2.55222
 11
-0.451477
 21
2.56049
  0
LINE
  8
0
 10
-0.451477
 20
2.56049
 11
-0.406723
 21
2.56798
  0
LINE
  8
0
 10
-0.406723
 20
2.56798
 11
-0.361847
 21
2.57469
  0
LINE
  8
0
 10
-0.361847
 20
2.57469
 11
-0.316849
 21
2.58061
  0
LINE
  8
0
 10
-0.316849
 20
2.58061
 11
-0.271759
 21
2.58575
  0
LINE
  8
0
 10
-0.271759
 20
2.58575
 11
-0.226593
 21
2.5901
  0
LINE
  8
0
 10
-0.226593
 20
2.5901
 11
-0.181366
 21
2.59366
  0
LINE
  8
0
 10
-0.181366
 20
2.59366
 11
-0.136063
 21
2.59644
  0
LINE
  8
0
 10
-0.136063
 20
2.59644
 11
-0.0907288
 21
2.5984
  0
LINE
  8
0
 10
-0.0907288
 20
2.5984
 11
-0.0453644
 21
2.59959
  0
LINE
  8
0
 10
-0.0453644
 20
2.59959
 11
0
 21
2.59999
  0
LINE
  8
0
 10
0
 20
2.59999
 11
0.0453644
 21
2.59959
  0
LINE
  8
0
 10
0.0453644
 20
2.59959
 11
0.0907288
 21
2.5984
  0
LINE
  8
0
 10
0.0907288
 20
2.5984
 11
0.136063
 21
2.59644
  0
LINE
  8
0
 10
0.136063
 20
2.59644
 11
0.181366
 21
2.59366
  0
LINE
  8
0
 10
0.181366
 20
2.59366
 11
0.226593
 21
2.5901
  0
LINE
  8
0
 10
0.226593
 20
2.5901
 11
0.271759
 21
2.58575
  0
LINE
  8
0
 10
0.271759
 20
2.58575
 11
0.316849
 21
2.58061
  0
LINE
  8
0
 10
0.316849
 20
2.58061
 11
0.361847
 21
2.57469
  0
LINE
  8
0
 10
0.361847
 20
2.57469
 11
0.406723
 21
2.56798
  0
LINE
  8
0
 10
0.406723
 20
2.56798
 11
0.451477
 21
2.56049
  0
LINE
  8
0
 10
0.451477
 20
2.56049
 11
0.496094
 21
2.55222
  0
LINE
  8
0
 10
0.496094
 20
2.55222
 11
0.540558
 21
2.54318
  0
LINE
  8
0
 10
0.540558
 20
2.54318
 11
0.584869
 21
2.53336
  0
LINE
  8
0
 10
0.584869
 20
2.53336
 11
0.628983
 21
2.52277
  0
LINE
  8
0
 10
0.628983
 20
2.52277
 11
0.672928
 21
2.5114
  0
LINE
  8
0
 10
0.672928
 20
2.5114
 11
0.716644
 21
2.49927
  0
LINE
  8
0
 10
0.716644
 20
2.49927
 11
0.760162
 21
2.48639
  0
LINE
  8
0
 10
0.760162
 20
2.48639
 11
0.803436
 21
2.47273
  0
LINE
  8
0
 10
0.803436
 20
2.47273
 11
0.846466
 21
2.45834
  0
LINE
  8
0
 10
0.846466
 20
2.45834
 11
0.889252
 21
2.44319
  0
LINE
  8
0
 10
0.889252
 20
2.44319
 11
0.931747
 21
2.42731
  0
LINE
  8
0
 10
0.931747
 20
2.42731
 11
0.973969
 21
2.41068
  0
LINE
  8
0
 10
0.973969
 20
2.41068
 11
1.0159
 21
2.39331
  0
LINE
  8
0
 10
1.0159
 20
2.39331
 11
1.05751
 21
2.37521
  0
LINE
  8
0
 10
1.05751
 20
2.37521
 11
1.0988
 21
2.3564
  0
LINE
  8
0
 10
1.0988
 20
2.3564
 11
1.13976
 21
2.33685
  0
LINE
  8
0
 10
1.13976
 20
2.33685
 11
1.18037
 21
2.3166
  0
LINE
  8
0
 10
1.18037
 20
2.3166
 11
1.22061
 21
2.29565
  0
LINE
  8
0
 10
1.22061
 20
2.29565
 11
1.2605
 21
2.274
  0
LINE
  8
0
 10
1.2605
 20
2.274
 11
1.29999
 21
2.25166
  0
LINE
  8
0
 10
1.29999
 20
2.25166
 11
1.3391
 21
2.22862
  0
LINE
  8
0
 10
1.3391
 20
2.22862
 11
1.37778
 21
2.20491
  0
LINE
  8
0
 10
1.37778
 20
2.20491
 11
1.41606
 21
2.18054
  0
LINE
  8
0
 10
1.41606
 20
2.18054
 11
1.45389
 21
2.15549
  0
LINE
  8
0
 10
1.45389
 20
2.15549
 11
1.49129
 21
2.12979
  0
LINE
  8
0
 10
1.49129
 20
2.12979
 11
1.52823
 21
2.10344
  0
LINE
  8
0
 10
1.52823
 20
2.10344
 11
1.56471
 21
2.07645
  0
LINE
  8
0
 10
1.56471
 20
2.07645
 11
1.60071
 21
2.04881
  0
LINE
  8
0
 10
1.60071
 20
2.04881
 11
1.63623
 21
2.02057
  0
LINE
  8
0
 10
1.63623
 20
2.02057
 11
1.67123
 21
1.99171
  0
LINE
  8
0
 10
1.67123
 20
1.99171
 11
1.70575
 21
1.96223
  0
LINE
  8
0
 10
1.70575
 20
1.96223
 11
1.73973
 21
1.93217
  0
LINE
  8
0
 10
1.73973
 20
1.93217
 11
1.77319
 21
1.9015
  0
LINE
  8
0
 10
1.77319
 20
1.9015
 11
1.80611
 21
1.87027
  0
LINE
  8
0
 10
1.80611
 20
1.87027
 11
1.83847
 21
1.83847
  0
LINE
  8
0
 10
1.83847
 20
1.83847
 11
1.87027
 21
1.80611
  0
LINE
  8
0
 10
1.87027
 20
1.80611
 11
1.9015
 21
1.77319
  0
LINE
  8
0
 10
1.9015
 20
1.77319
 11
1.93217
 21
1.73973
  0
LINE
  8
0
 10
1.93217
 20
1.73973
 11
1.96223
 21
1.70575
  0
LINE
  8
0
 10
1.96223
 20
1.70575
 11
1.99171
 21
1.67123
  0
LINE
  8
0
 10
1.99171
 20
1.67123
 11
2.02057
 21
1.63623
  0
LINE
  8
0
 10
2.02057
 20
1.63623
 11
2.04881
 21
1.60071
  0
LINE
  8
0
 10
2.04881
 20
1.60071
 11
2.07645
 21
1.56471
  0
LINE
  8
0
 10
2.07645
 20
1.56471
 11
2.10344
 21
1.52823
  0
LINE
  8
0
 10
2.10344
 20
1.52823
 11
2.12979
 21
1.49129
  0
LINE
  8
0
 10
2.12979
 20
1.49129
 11
2.15549
 21
1.45389
  0
LINE
  8
0
 10
2.15549
 20
1.45389
 11
2.18054
 21
1.41606
  0
LINE
  8
0
 10
2.18054
 20
1.41606
 11
2.20491
 21
1.37778
  0
LINE
  8
0
 10
2.20491
 20
1.37778
 11
2.22862
 21
1.3391
  0
LINE
  8
0
 10
2.22862
 20
1.3391
 11
2.25166
 21
1.29999
  0
LINE
  8
0
 10
2.25166
 20
1.29999
 11
2.274
 21
1.2605
  0
LINE
  8
0
 10
2.274
 20
1.2605
 11
2.29565
 21
1.22061
  0
LINE
  8
0
 10
2.29565
 20
1.22061
 11
2.3166
 21
1.18037
  0
LINE
  8
0
 10
2.3166
 20
1.18037
 11
2.33685
 21
1.13976
  0
LINE
  8
0
 10
2.33685
 20
1.13976
 11
2.3564
 21
1.0988
  0
LINE
  8
0
 10
2.3564
 20
1.0988
 11
2.37521
 21
1.05751
  0
LINE
  8
0
 10
2.37521
 20
1.05751
 11
2.39331
 21
1.0159
  0
LINE
  8
0
 10
2.39331
 20
1.0159
 11
2.41068
 21
0.973969
  0
LINE
  8
0
 10
2.41068
 20
0.973969
 11
2.42731
 21
0.931747
  0
LINE
  8
0
 10
2.42731
 20
0.931747
 11
2.44319
 21
0.889252
  0
LINE
  8
0
 10
2.44319
 20
0.889252
 11
2.45834
 21
0.846466
  0
LINE
  8
0
 10
2.45834
 20
0.846466
 11
2.47273
 21
0.803436
  0
LINE
  8
0
 10
2.47273
 20
0.803436
 11
2.48639
 21
0.760162
  0
LINE
  8
0
 10
2.48639
 20
0.760162
 11
2.49927
 21
0.716644
  0
LINE
  8
0
 10
2.49927
 20
0.716644
 11
2.5114
 21
0.672928
  0
LINE
  8
0
 10
2.5114
 20
0.672928
 11
2.52277
 21
0.628983
  0
LINE
  8
0
 10
2.52277
 20
0.628983
 11
2.53336
 21
0.584869
  0
LINE
  8
0
 10
2.53336
 20
0.584869
 11
2.54318
 21
0.540558
  0
LINE
  8
0
 10
2.54318
 20
0.540558
 11
2.55222
 21
0.496094
  0
LINE
  8
0
 10
2.55222
 20
0.496094
 11
2.56049
 21
0.451477
  0
LINE
  8
0
 10
2.56049
 20
0.451477
 11
2.56798
 21
0.406723
  0
LINE
  8
0
 10
2.56798
 20
0.406723
 11
2.57469
 21
0.361847
  0
LINE
  8
0
 10
2.57469
 20
0.361847
 11
2.58061
 21
0.316849
  0
LINE
  8
0
 10
2.58061
 20
0.316849
 11
2.58575
 21
0.271759
  0
LINE
  8
0
 10
2.58575
 20
0.271759
 11
2.5901
 21
0.226593
  0
LINE
  8
0
 10
2.5901
 20
0.226593
 11
2.59366
 21
0.181366
  0
LINE
  8
0
 10
2.59366
 20
0.181366
 11
2.59644
 21
0.136063
  0
LINE
  8
0
 10
2.59644
 20
0.136063
 11
2.5984
 21
0.0907288
  0
LINE
  8
0
 10
2.5984
 20
0.0907288
 11
2.59959
 21
0.0453644
  0
LINE
  8
0
 10
2.59959
 20
0.0453644
 11
2.59999
 21
0
  0
LINE
  8
0
 10
2.59999
 20
0
 11
2.59959
 21
-0.0453644
  0
LINE
  8
0
 10
2.59959
 20
-0.0453644
 11
2.5984
 21
-0.0907288
  0
LINE
  8
0
 10
2.5984
 20
-0.0907288
 11
2.59644
 21
-0.136063
  0
LINE
  8
0
 10
2.59644
 20
-0.136063
 11
2.59366
 21
-0.181366
  0
LINE
  8
0
 10
2.59366
 20
-0.181366
 11
2.5901
 21
-0.226593
  0
LINE
  8
0
 10
2.5901
 20
-0.226593
 11
2.58575
 21
-0.271759
  0
LINE
  8
0
 10
2.58575
 20
-0.271759
 11
2.58061
 21
-0.316849
  0
LINE
  8
0
 10
2.58061
 20
-0.316849
 11
2.57469
 21
-0.361847
  0
LINE
  8
0
 10
2.57469
 20
-0.361847
 11
2.56798
 21
-0.406723
  0
LINE
  8
0
 10
2.56798
 20
-0.406723
 11
2.56049
 21
-0.451477
  0
LINE
  8
0
 10
2.56049
 20
-0.451477
 11
2.55222
 21
-0.496094
  0
LINE
  8
0
 10
2.55222
 20
-0.496094
 11
2.54318
 21
-0.540558
  0
LINE
  8
0
 10
2.54318
 20
-0.540558
 11
2.53336
 21
-0.584869
  0
LINE
  8
0
 10
2.53336
 20
-0.584869
 11
2.52277
 21
-0.628983
  0
LINE
  8
0
 10
2.52277
 20
-0.628983
 11
2.5114
 21
-0.672928
  0
LINE
  8
0
 10
2.5114
 20
-0.672928
 11
2.49927
 21
-0.716644
  0
LINE
  8
0
 10
2.49927
 20
-0.716644
 11
2.48639
 21
-0.760162
  0
LINE
  8
0
 10
2.48639
 20
-0.760162
 11
2.47273
 21
-0.803436
  0
LINE
  8
0
 10
2.47273
 20
-0.803436
 11
2.45834
 21
-0.846466
  0
LINE
  8
0
 10
2.45834
 20
-0.846466
 11
2.44319
 21
-0.889252
  0
LINE
  8
0
 10
2.44319
 20
-0.889252
 11
2.42731
 21
-0.931747
  0
LINE
  8
0
 10
2.42731
 20
-0.931747
 11
2.41068
 21
-0.973969
  0
LINE
  8
0
 10
2.41068
 20
-0.973969
 11
2.39331
 21
-1.0159
  0
LINE
  8
0
 10
2.39331
 20
-1.0159
 11
2.37521
 21
-1.05751
  0
LINE
  8
0
 10
2.37521
 20
-1.05751
 11
2.3564
 21
-1.0988
  0
LINE
  8
0
 10
2.3564
 20
-1.0988
 11
2.33685
 21
-1.13976
  0
LINE
  8
0
 10
2.33685
 20
-1.13976
 11
2.3166
 21
-1.18037
  0
LINE
  8
0
 10
2.3166
 20
-1.18037
 11
2.29565
 21
-1.22061
  0
LINE
  8
0
 10
2.29565
 20
-1.22061
 11
2.274
 21
-1.2605
  0
LINE
  8
0
 10
2.274
 20
-1.2605
 11
2.25166
 21
-1.29999
  0
LINE
  8
0
 10
2.25166
 20
-1.29999
 11
2.22862
 21
-1.3391
  0
LINE
  8
0
 10
2.22862
 20
-1.3391
 11
2.20491
 21
-1.37778
  0
LINE
  8
0
 10
2.20491
 20
-1.37778
 11
2.18054
 21
-1.41606
  0
LINE
  8
0
 10
2.18054
 20
-1.41606
 11
2.15549
 21
-1.45389
  0
LINE
  8
0
 10
2.15549
 20
-1.45389
 11
2.12979
 21
-1.49129
  0
LINE
  8
0
 10
2.12979
 20
-1.49129
 11
2.10344
 21
-1.52823
  0
LINE
  8
0
 10
2.10344
 20
-1.52823
 11
2.07645
 21
-1.56471
  0
LINE
  8
0
 10
2.07645
 20
-1.56471
 11
2.04881
 21
-1.60071
  0
LINE
  8
0
 10
2.04881
 20
-1.60071
 11
2.02057
 21
-1.63623
  0
LINE
  8
0
 10
2.02057
 20
-1.63623
 11
1.99171
 21
-1.67123
  0
LINE
  8
0
 10
1.99171
 20
-1.67123
 11
1.96223
 21
-1.70575
  0
LINE
  8
0
 10
1.96223
 20
-1.70575
 11
1.93217
 21
-1.73973
  0
LINE
  8
0
 10
1.93217
 20
-1.73973
 11
1.9015
 21
-1.77319
  0
LINE
  8
0
 10
1.9015
 20
-1.77319
 11
1.87027
 21
-1.80611
  0
LINE
  8
0
 10
1.87027
 20
-1.80611
 11
1.83847
 21
-1.83847
  0
LINE
  8
0
 10
1.83847
 20
-1.83847
 11
1.80611
 21
-1.87027
  0
LINE
  8
0
 10
1.80611
 20
-1.87027
 11
1.77319
 21
-1.9015
  0
LINE
  8
0
 10
1.77319
 20
-1.9015
 11
1.73973
 21
-1.93217
  0
LINE
  8
0
 10
1.73973
 20
-1.93217
 11
1.70575
 21
-1.96223
  0
LINE
  8
0
 10
1.70575
 20
-1.96223
 11
1.67123
 21
-1.99171
  0
LINE
  8
0
 10
1.67123
 20
-1.99171
 11
1.63623
 21
-2.02057
  0
LINE
  8
0
 10
1.63623
 20
-2.02057
 11
1.60071
 21
-2.04881
  0
LINE
  8
0
 10
1.60071
 20
-2.04881
 11
1.56471
 21
-2.07645
  0
LINE
  8
0
 10
1.56471
 20
-2.07645
 11
1.52823
 21
-2.10344
  0
LINE
  8
0
 10
1.52823
 20
-2.10344
 11
1.49129
 21
-2.12979
  0
LINE
  8
0
 10
1.49129
 20
-2.12979
 11
1.45389
 21
-2.15549
  0
LINE
  8
0
 10
1.45389
 20
-2.15549
 11
1.41606
 21
-2.18054
  0
LINE
  8
0
 10
1.41606
 20
-2.18054
 11
1.37778
 21
-2.20491
  0
LINE
  8
0
 10
1.37778
 20
-2.20491
 11
1.3391
 21
-2.22862
  0
LINE
  8
0
 10
1.3391
 20
-2.22862
 11
1.29999
 21
-2.25166
  0
LINE
  8
0
 10
1.29999
 20
-2.25166
 11
1.2605
 21
-2.274
  0
LINE
  8
0
 10
1.2605
 20
-2.274
 11
1.22061
 21
-2.29565
  0
LINE
  8
0
 10
1.22061
 20
-2.29565
 11
1.18037
 21
-2.3166
  0
LINE
  8
0
 10
1.18037
 20
-2.3166
 11
1.13976
 21
-2.33685
  0
LINE
  8
0
 10
1.13976
 20
-2.33685
 11
1.0988
 21
-2.3564
  0
LINE
  8
0
 10
1.0988
 20
-2.3564
 11
1.05751
 21
-2.37521
  0
LINE
  8
0
 10
1.05751
 20
-2.37521
 11
1.0159
 21
-2.39331
  0
LINE
  8
0
 10
1.0159
 20
-2.39331
 11
0.973969
 21
-2.41068
  0
LINE
  8
0
 10
0.973969
 20
-2.41068
 11
0.931747
 21
-2.42731
  0
LINE
  8
0
 10
0.931747
 20
-2.42731
 11
0.889252
 21
-2.44319
  0
LINE
  8
0
 10
0.889252
 20
-2.44319
 11
0.846466
 21
-2.45834
  0
LINE
  8
0
 10
0.846466
 20
-2.45834
 11
0.803436
 21
-2.47273
  0
LINE
  8
0
 10
0.803436
 20
-2.47273
 11
0.760162
 21
-2.48639
  0
LINE
  8
0
 10
0.760162
 20
-2.48639
 11
0.716644
 21
-2.49927
  0
LINE
  8
0
 10
0.716644
 20
-2.49927
 11
0.672928
 21
-2.5114
  0
LINE
  8
0
 10
0.672928
 20
-2.5114
 11
0.628983
 21
-2.52277
  0
LINE
  8
0
 10
0.628983
 20
-2.52277
 11
0.584869
 21
-2.53336
  0
LINE
  8
0
 10
0.584869
 20
-2.53336
 11
0.540558
 21
-2.54318
  0
LINE
  8
0
 10
0.540558
 20
-2.54318
 11
0.496094
 21
-2.55222
  0
LINE
  8
0
 10
0.496094
 20
-2.55222
 11
0.451477
 21
-2.56049
  0
LINE
  8
0
 10
0.451477
 20
-2.56049
 11
0.406723
 21
-2.56798
  0
LINE
  8
0
 10
0.406723
 20
-2.56798
 11
0.361847
 21
-2.57469
  0
LINE
  8
0
 10
0.361847
 20
-2.57469
 11
0.316849
 21
-2.58061
  0
LINE
  8
0
 10
0.316849
 20
-2.58061
 11
0.271759
 21
-2.58575
  0
LINE
  8
0
 10
0.271759
 20
-2.58575
 11
0.226593
 21
-2.5901
  0
LINE
  8
0
 10
0.226593
 20
-2.5901
 11
0.181366
 21
-2.59366
  0
LINE
  8
0
 10
0.181366
 20
-2.59366
 11
0.136063
 21
-2.59644
  0
LINE
  8
0
 10
0.136063
 20
-2.59644
 11
0.0907288
 21
-2.5984
  0
LINE
  8
0
 10
0.0907288
 20
-2.5984
 11
0.0453644
 21
-2.59959
  0
LINE
  8
0
 10
0.0453644
 20
-2.59959
 11
0
 21
-2.59999
  0
LINE
  8
0
 10
0
 20
-2.59999
 11
-0.0453644
 21
-2.59959
  0
ENDSEC
  0
SECTION
  2
OBJECTS
  0
DICTIONARY
  0
ENDSEC
  0
EOF
